%
T1C0.0200F200S100
X000750Y008100
X000750Y010100
X000750Y012100
X000750Y014100
X000750Y016100
X000750Y018100
X000775Y003825
X000925Y001025
X001250Y011100
X001250Y013100
X001250Y015100
X001275Y009125
X001750Y002100
X001750Y008100
X001750Y010100
X001750Y012100
X001750Y014100
X001750Y016100
X001775Y003825
X001929Y017296
X002250Y002975
X002275Y001050
X002250Y011100
X002250Y013100
X002250Y015100
X002300Y009100
X002675Y002100
X002750Y010100
X002750Y014100
X002750Y020100
X002775Y003825
X002775Y008100
X002775Y012100
X002875Y016675
X003250Y001075
X003250Y009100
X003250Y011100
X003250Y013100
X003250Y015100
X003250Y018575
X003525Y016925
X003750Y002100
X003750Y020100
X003775Y003825
X003800Y004575
X004250Y003100
X004275Y005500
X004525Y016425
X004700Y003825
X004750Y002100
X004775Y004600
X004750Y020100
X004825Y016800
X005125Y016425
X005150Y017100
X005225Y002950
X005375Y018550
X005725Y003800
X005750Y002100
X005775Y004600
X005775Y017475
X006000Y018200
X006225Y002950
X006550Y015450
X006725Y003800
X006750Y002100
X006825Y017925
X007225Y002950
X007250Y001100
X007250Y013100
X007425Y020050
X007750Y002100
X007750Y012100
X007750Y014100
X007800Y008100
X007800Y010100
X008125Y006100
X008250Y001100
X008250Y002950
X008275Y007175
X008250Y009100
X008250Y011100
X008250Y013100
X008600Y010125
X008600Y012100
X008750Y002100
X009250Y001100
X009250Y002950
X009700Y018975
X009750Y002100
X010250Y001100
X010250Y002950
X010750Y002100
X010750Y016100
X011150Y016800
X011250Y001100
X011250Y002950
X011350Y018000
X011375Y018500
X011750Y002100
X012250Y001100
X012250Y002950
X012400Y016825
X012650Y002075
X012975Y015400
X013200Y017625
X013250Y005100
X013650Y002075
X013700Y016050
X014175Y015325
X014250Y005100
X014250Y017075
X014400Y018825
X014750Y016075
X014800Y004000
X014850Y017900
X015000Y018850
X015175Y015325
X015250Y005100
X015275Y003125
X015250Y017075
X015750Y002100
X015750Y004100
X015750Y016100
X015800Y017925
X016250Y003100
X016250Y005100
X016275Y015325
X016250Y017100
X016750Y002100
X016750Y004100
X017200Y015300
X016750Y016100
X016750Y018100
X017250Y003100
X017750Y004100
X017250Y005100
X017750Y016100
X017750Y018100
X017875Y002050
X017900Y010100
X017875Y012100
X018250Y005100
X018250Y011100
X018250Y013100
X018275Y015275
X018750Y004100
X018750Y006100
X018750Y010100
X018750Y012100
X018750Y014100
X018750Y016100
X018750Y018100
X018825Y002050
X019175Y007700
X019200Y007100
X019250Y001100
X019250Y005100
X019700Y006100
X019250Y009100
X019250Y011100
X019250Y013100
X019250Y015100
X019250Y017100
X019750Y002100
X019750Y004100
X020000Y007100
X019750Y010100
X019750Y012100
X019750Y014100
X020250Y003100
X020250Y005100
X020700Y006100
X020250Y009100
X020250Y011100
X020250Y013100
X020250Y015100
X020750Y002100
X020750Y004100
X020825Y008250
X020750Y010100
X020750Y012100
X020750Y014100
X021250Y003100
X021250Y005100
X021325Y007250
X021250Y009100
X021250Y011100
X021250Y013100
X021250Y015100
X021750Y004100
X021825Y008250
X021750Y010100
X021750Y012100
X021750Y014100
X021750Y016100
X021750Y018100
X022075Y003100
X022125Y006750
X022250Y005100
X022750Y004100
X022750Y010100
X022250Y011100
X022750Y012100
X022250Y013100
X022750Y014100
X022250Y015100
X022750Y016100
X022250Y017100
X022825Y017725
X023250Y005100
X023250Y011100
X023250Y013100
X023250Y015100
X023250Y017100
X023750Y008100
X023750Y010100
X023750Y012100
X023750Y014100
X023750Y016100
X023825Y017725
X024250Y005100
X024250Y007100
X024750Y008100
X024250Y009100
X024750Y010100
X024250Y011100
X024750Y012100
X024250Y013100
X024750Y014100
X024250Y015100
X024750Y016100
X024250Y017100
X024825Y017725
X025250Y005100
X025250Y007100
X025250Y009100
X025250Y011100
X025250Y013100
X025250Y015100
X025250Y017100
X025650Y017725
X025750Y008100
X025750Y010100
X025750Y012100
X025750Y016100
X026125Y007100
X026125Y009100
X026125Y011075
X026575Y012075
X026125Y013075
X026125Y015075
X026125Y017075
X026625Y008100
X027125Y007325
X026625Y010100
X026625Y016075
X026625Y017725
X027150Y008150
X027800Y008150
X027825Y007325
T3C0.0380F200S100
X006000Y007000
X006000Y008000
X006000Y009000
X006000Y010000
X006000Y011000
X006000Y012000
X006000Y013000
X006000Y014000
X006000Y015000
X009400Y020000
X010400Y020000
X011400Y020000
X012400Y020000
X013400Y020000
X014400Y020000
X015400Y020000
X016400Y020000
X018000Y020000
X019000Y020000
X020000Y020000
X021000Y020000
X022000Y020000
X023000Y020000
X024000Y020000
X025000Y020000
T2C0.0370F200S100
X003000Y007000
X004000Y007000
X005000Y007000
X007400Y017050
X007400Y018050
X007400Y019050
X008400Y017050
X008400Y018050
X008400Y019050
X013000Y001000
X014000Y001000
X015000Y001000
X016000Y001000
X017000Y001000
X018000Y001000
X020000Y001000
X021000Y001000
X022000Y001000
X023000Y001000
X024000Y001000
X025000Y001000
M30
