*
G04 Mass Parameters ***
*
G04 Image ***
*
%INC:\SVN\HWTREE\PROJECT\NANO_SHIELD\NANO_SHIELD_RX2.BOT*%
%ICAS*%
%MOIN*%
%IPPOS*%
%ASAXBY*%
G74*%FSLAN2X34Y34*%
*
G04 Aperture Definitions ***
*
%ADD10C,0.1280*%
%ADD11C,0.0400*%
%ADD12R,0.0394X0.0394*%
%ADD13R,0.0236X0.0354*%
%ADD14R,0.0354X0.0236*%
%ADD15R,0.0390X0.0320*%
%ADD16R,0.0390X0.0390*%
%ADD17R,0.0410X0.0870*%
%ADD18C,0.0580*%
%ADD19R,0.0580X0.0580*%
%ADD20R,0.0300X0.0150*%
%ADD21R,0.0150X0.0300*%
%ADD22C,0.0620*%
%ADD23R,0.1850X0.1350*%
%ADD24O,0.0334X0.0931*%
%ADD25O,0.0931X0.0334*%
%ADD26O,0.0470X0.0140*%
%ADD27R,0.0470X0.0140*%
%ADD28C,0.0350*%
%ADD29C,0.0010*%
%ADD30C,0.0100*%
%ADD31C,0.0150*%
%ADD32C,0.0080*%
%ADD33C,0.0500*%
%ADD34C,0.0170*%
%ADD35C,0.0200*%
*
G04 Plot Data ***
*
G54D29*
G01X0026050D01*
Y0001050D01*
X0027000Y0002000D01*
Y0004350D01*
X0033600D01*
Y0018200D01*
X0026000D01*
Y0020400D01*
X0025400Y0021000D01*
X0000000D01*
Y0000000D01*
X0026050D01*
Y0001050D01*
X0027000Y0002000D01*
Y0014900D01*
X0026000Y0015900D01*
Y0020400D01*
X0025400Y0021000D01*
X0000000D01*
Y0000000D01*
G54D30*
G01X0004515Y0008754D02*
X0005838Y0007431D01*
X0014730Y0020850D02*
Y0020715D01*
X0005391Y0008340D02*
X0004929D01*
X0007710Y0016360D02*
Y0015250D01*
X0027950Y0011400D02*
X0006633D01*
X0008160Y0016541D02*
Y0015250D01*
X0009240Y0019285D02*
Y0015250D01*
X0009060Y0019285D02*
Y0015250D01*
X0008250Y0016631D02*
Y0015250D01*
X0006360Y0012714D02*
Y0012559D01*
X0005905Y0014550D02*
X0005690D01*
X0006540Y0014750D02*
Y0012379D01*
X0013440Y0001440D02*
X0012560D01*
Y0000560D01*
X0013440D02*
X0012560D01*
X0013440Y0001440D02*
Y0000560D01*
X0009780Y0019778D02*
Y0019665D01*
X0008340Y0020850D02*
Y0020334D01*
X0017698Y0019680D02*
X0016840D01*
X0012300Y0019110D02*
Y0018690D01*
X0025980Y0013210D02*
Y0004450D01*
X0020440Y0001440D02*
X0019560D01*
Y0000560D01*
X0019910D02*
X0019560D01*
X0016840Y0020440D02*
Y0019640D01*
X0019910Y0020490D02*
X0016179D01*
X0012750Y0014821D02*
Y0001440D01*
X0008160Y0014750D02*
Y0000150D01*
X0007960Y0017070D02*
X0007840D01*
X0008133Y0017700D02*
X0007667D01*
X0008307Y0016620D02*
X0008239D01*
X0008840Y0018610D02*
X0008254D01*
X0003440Y0007440D02*
X0002560D01*
Y0006560D01*
X0003440D02*
X0002560D01*
X0003440Y0007440D02*
Y0006560D01*
X0001360Y0017970D02*
X0000150D01*
Y0020850D02*
Y0000150D01*
X0019550Y0020850D02*
X0000150D01*
X0009330Y0014750D02*
Y0000150D01*
X0027950Y0018000D02*
X0022400D01*
X0027950D02*
Y0004450D01*
X0023800D01*
X0005221Y0000870D02*
X0000150D01*
X0019500Y0000150D02*
X0000150D01*
X0027870Y0018000D02*
Y0004450D01*
X0027780Y0018000D02*
Y0004450D01*
X0027690Y0018000D02*
Y0004450D01*
X0027600Y0018000D02*
Y0004450D01*
X0027510Y0018000D02*
Y0004450D01*
X0027420Y0018000D02*
Y0004450D01*
X0027330Y0018000D02*
Y0004450D01*
X0027240Y0018000D02*
Y0004450D01*
X0027150Y0018000D02*
Y0004450D01*
X0027060Y0018000D02*
Y0004450D01*
X0026970Y0018000D02*
Y0004450D01*
X0026880Y0018000D02*
Y0004450D01*
X0021750Y0002400D02*
X0000150D01*
X0012390Y0014750D02*
Y0000150D01*
X0024720Y0018000D02*
Y0004450D01*
X0024630Y0018000D02*
Y0004450D01*
X0023730Y0018000D02*
Y0004380D01*
X0023640Y0018000D02*
Y0004290D01*
X0024450Y0018000D02*
Y0004450D01*
X0023190Y0018000D02*
Y0003840D01*
X0023100Y0018000D02*
Y0003750D01*
X0023010Y0018000D02*
Y0003660D01*
X0022920Y0018000D02*
Y0003570D01*
X0021030Y0018910D02*
Y0001680D01*
X0023280Y0018000D02*
Y0003930D01*
X0022740Y0018000D02*
Y0003390D01*
X0022650Y0018000D02*
Y0003300D01*
X0022560Y0018000D02*
Y0003210D01*
X0018960Y0018910D02*
Y0000150D01*
X0018870Y0018910D02*
Y0000150D01*
X0018420Y0000869D02*
Y0000150D01*
X0007080Y0020850D02*
Y0019865D01*
X0023800Y0004450D02*
X0020440Y0001090D01*
X0019910Y0000560D02*
X0019500Y0000150D01*
X0018690Y0018910D02*
Y0000150D01*
X0018600Y0018910D02*
Y0000150D01*
X0018510Y0018910D02*
Y0000150D01*
X0020440Y0001440D02*
Y0001090D01*
X0019860Y0018910D02*
Y0001440D01*
X0006810Y0020850D02*
Y0019679D01*
X0019770Y0018910D02*
Y0001440D01*
X0019590Y0018910D02*
Y0001440D01*
X0016260Y0000645D02*
Y0000150D01*
X0016170Y0000594D02*
Y0000150D01*
X0016080Y0000567D02*
Y0000150D01*
X0015990Y0000560D02*
Y0000150D01*
X0015900Y0000571D02*
Y0000150D01*
X0019140Y0018910D02*
Y0000150D01*
X0019770Y0000560D02*
Y0000420D01*
X0019560Y0001050D02*
X0018437D01*
X0017562Y0000960D02*
X0017438D01*
X0020940Y0018910D02*
Y0001590D01*
X0020850Y0018910D02*
Y0001500D01*
X0020760Y0018910D02*
Y0001410D01*
X0020670Y0018910D02*
Y0001320D01*
X0020580Y0018910D02*
Y0001230D01*
X0020490Y0018910D02*
Y0001140D01*
X0017700Y0018910D02*
Y0001322D01*
X0017880Y0018910D02*
Y0001423D01*
X0016583Y0001140D02*
X0016417D01*
X0016562Y0000960D02*
X0016438D01*
X0017880Y0000577D02*
Y0000150D01*
X0017430Y0000907D02*
Y0000150D01*
X0017340Y0000721D02*
Y0000150D01*
X0017250Y0000638D02*
Y0000150D01*
X0017160Y0000590D02*
Y0000150D01*
X0017747Y0019640D02*
X0016840D01*
X0017070Y0000566D02*
Y0000150D01*
X0019560Y0000780D02*
X0018381D01*
X0017610Y0000796D02*
Y0000150D01*
X0016890Y0018910D02*
Y0001426D01*
X0016800Y0018910D02*
Y0001392D01*
X0015583Y0001140D02*
X0015417D01*
X0015562Y0000960D02*
X0015438D01*
X0016890Y0000574D02*
Y0000150D01*
X0016350Y0000733D02*
Y0000150D01*
X0019410Y0018910D02*
Y0000150D01*
X0012030Y0019110D02*
Y0018690D01*
X0019320Y0018910D02*
Y0000150D01*
X0019560Y0000690D02*
X0018312D01*
X0016620Y0000778D02*
Y0000150D01*
X0015900Y0018756D02*
Y0001428D01*
X0015810Y0018666D02*
Y0001397D01*
X0014583Y0001140D02*
X0014417D01*
X0014562Y0000960D02*
X0014438D01*
X0019050Y0018910D02*
Y0000150D01*
X0015360Y0000747D02*
Y0000150D01*
X0014100Y0000571D02*
Y0000150D01*
X0015090Y0000569D02*
Y0000150D01*
X0016619Y0000780D02*
X0016381D01*
X0014460Y0018110D02*
Y0000150D01*
X0014910Y0018110D02*
Y0001431D01*
X0014820Y0018110D02*
Y0001401D01*
X0014619Y0000780D02*
X0014381D01*
X0014563Y0001050D02*
X0014437D01*
X0015180Y0000598D02*
Y0000150D01*
X0014550Y0020850D02*
Y0020715D01*
X0012570Y0018110D02*
Y0015349D01*
X0014010Y0018110D02*
Y0001440D01*
Y0000560D02*
Y0000150D01*
X0013380Y0018110D02*
Y0001440D01*
X0013688Y0000690D02*
X0013440D01*
X0005241Y0000780D02*
X0000150D01*
X0013920Y0000567D02*
Y0000150D01*
X0012930Y0018110D02*
Y0015722D01*
X0013290Y0015320D02*
Y0001440D01*
X0013110Y0015104D02*
Y0001440D01*
X0005131Y0009600D02*
X0004740D01*
X0012930Y0015001D02*
Y0001440D01*
X0012840Y0014911D02*
Y0001440D01*
X0012930Y0000560D02*
Y0000150D01*
X0012750Y0000560D02*
Y0000150D01*
X0012570Y0000560D02*
Y0000150D01*
X0012480Y0014750D02*
Y0000150D01*
X0012300Y0014750D02*
Y0000150D01*
X0012210Y0014750D02*
Y0000150D01*
X0012120Y0014750D02*
Y0000150D01*
X0005388Y0019500D02*
X0000150D01*
X0011940Y0014750D02*
Y0000150D01*
X0011850Y0014750D02*
Y0000150D01*
X0011760Y0014750D02*
Y0000150D01*
X0011670Y0014750D02*
Y0000150D01*
X0011580Y0014750D02*
Y0000150D01*
X0012030Y0014750D02*
Y0000150D01*
X0011220Y0014750D02*
Y0000150D01*
X0008070Y0020850D02*
Y0020064D01*
X0011130Y0014750D02*
Y0000150D01*
X0011040Y0014750D02*
Y0000150D01*
X0010950Y0014750D02*
Y0000150D01*
X0010860Y0014750D02*
Y0000150D01*
X0010770Y0014750D02*
Y0000150D01*
X0010680Y0014750D02*
Y0000150D01*
X0010590Y0014750D02*
Y0000150D01*
X0010500Y0014750D02*
Y0000150D01*
X0003921Y0016260D02*
X0000150D01*
X0010230Y0014750D02*
Y0000150D01*
X0012570Y0014750D02*
Y0001440D01*
X0010140Y0014750D02*
Y0000150D01*
X0010050Y0014750D02*
Y0000150D01*
X0009960Y0014750D02*
Y0000150D01*
X0009870Y0014750D02*
Y0000150D01*
X0009780Y0014750D02*
Y0000150D01*
X0009600Y0014750D02*
Y0000150D01*
X0009510Y0014750D02*
Y0000150D01*
X0009420Y0014750D02*
Y0000150D01*
X0009240Y0014750D02*
Y0000150D01*
X0004831Y0017160D02*
X0003749D01*
X0007971Y0016890D02*
X0007840D01*
X0009060Y0014750D02*
Y0000150D01*
X0008970Y0014750D02*
Y0000150D01*
X0008880Y0014750D02*
Y0000150D01*
X0008790Y0014750D02*
Y0000150D01*
X0008700Y0014750D02*
Y0000150D01*
X0008610Y0014750D02*
Y0000150D01*
X0002310Y0018441D02*
Y0016865D01*
X0001590Y0020850D02*
Y0018584D01*
X0008250Y0014750D02*
Y0000150D01*
X0008070Y0014750D02*
Y0000150D01*
X0007980Y0014750D02*
Y0000150D01*
X0007890Y0014750D02*
Y0000150D01*
X0007800Y0014750D02*
Y0000150D01*
X0007710Y0014750D02*
Y0000150D01*
X0007620Y0014750D02*
Y0000150D01*
X0027950Y0016710D02*
X0008679D01*
X0014254Y0019585D02*
X0013836Y0019168D01*
X0019410Y0019840D02*
Y0019640D01*
X0005581Y0000330D02*
X0000150D01*
X0005201Y0007530D02*
X0000150D01*
X0002560Y0006720D02*
X0000150D01*
X0007080Y0014750D02*
Y0000150D01*
X0006900Y0014750D02*
Y0000150D01*
X0006450Y0006905D02*
Y0001649D01*
X0006360Y0006714D02*
Y0001703D01*
X0006270Y0006628D02*
Y0001742D01*
X0006180Y0006577D02*
Y0001769D01*
X0006090Y0006549D02*
Y0001785D01*
X0006000Y0006540D02*
Y0001790D01*
X0005910Y0006549D02*
Y0001785D01*
X0005820Y0006577D02*
Y0001769D01*
X0005730Y0006628D02*
Y0001742D01*
X0005640Y0006714D02*
Y0001703D01*
X0005550Y0000351D02*
Y0000150D01*
X0005370Y0006762D02*
Y0001477D01*
Y0000523D02*
Y0000150D01*
X0005222Y0001140D02*
X0000150D01*
X0005100Y0006571D02*
Y0000150D01*
X0005010Y0006560D02*
Y0000150D01*
X0004920Y0006567D02*
Y0000150D01*
X0004581Y0009150D02*
X0004515D01*
X0005640Y0000297D02*
Y0000150D01*
X0003661Y0006720D02*
X0003440D01*
X0004762Y0006630D02*
X0004238D01*
X0004470Y0008261D02*
Y0000150D01*
X0004380Y0006778D02*
Y0000150D01*
X0004290Y0006669D02*
Y0000150D01*
X0004200Y0006608D02*
Y0000150D01*
X0004110Y0006574D02*
Y0000150D01*
X0004020Y0006560D02*
Y0000150D01*
X0003930Y0006566D02*
Y0000150D01*
X0003840Y0006590D02*
Y0000150D01*
X0004020Y0016161D02*
Y0007440D01*
X0002560Y0006810D02*
X0000150D01*
X0003762Y0006630D02*
X0003440D01*
X0003480Y0016603D02*
Y0000150D01*
X0003390Y0006560D02*
Y0000150D01*
X0003300Y0006560D02*
Y0000150D01*
X0003210Y0006560D02*
Y0000150D01*
X0003120Y0006560D02*
Y0000150D01*
X0003030Y0006560D02*
Y0000150D01*
X0002940Y0006560D02*
Y0000150D01*
X0002850Y0006560D02*
Y0000150D01*
X0006951Y0018870D02*
X0006814D01*
X0002760Y0016371D02*
Y0007440D01*
X0002580Y0016485D02*
Y0007440D01*
X0003234Y0017070D02*
X0002163D01*
X0002490Y0016485D02*
Y0000150D01*
X0002400Y0016485D02*
Y0000150D01*
X0002310Y0016485D02*
Y0000150D01*
X0002220Y0016485D02*
Y0000150D01*
X0001368Y0018330D02*
X0000150D01*
X0002130Y0016485D02*
Y0000150D01*
X0001950Y0016485D02*
Y0000150D01*
X0001860Y0016508D02*
Y0000150D01*
X0001680Y0016676D02*
Y0000150D01*
X0001770Y0016586D02*
Y0000150D01*
X0001320Y0020850D02*
Y0000150D01*
X0001230Y0020850D02*
Y0000150D01*
X0001140Y0020850D02*
Y0000150D01*
X0001050Y0020850D02*
Y0000150D01*
X0000960Y0020850D02*
Y0000150D01*
X0000870Y0020850D02*
Y0000150D01*
X0000780Y0020850D02*
Y0000150D01*
X0000690Y0020850D02*
Y0000150D01*
X0000600Y0020850D02*
Y0000150D01*
X0000510Y0020850D02*
Y0000150D01*
X0000420Y0020850D02*
Y0000150D01*
X0000330Y0020850D02*
Y0000150D01*
X0004740Y0009991D02*
Y0009529D01*
X0005370Y0020850D02*
Y0020477D01*
X0027950Y0015900D02*
X0005690D01*
X0019640Y0020760D02*
X0006216D01*
X0002400Y0020850D02*
Y0019265D01*
X0005581Y0020670D02*
X0000150D01*
X0001516Y0018510D02*
X0000150D01*
X0005380Y0020490D02*
X0000150D01*
X0001360Y0017520D02*
X0000150D01*
X0005273Y0020310D02*
X0000150D01*
X0006630Y0019523D02*
Y0019499D01*
X0008046Y0020040D02*
X0006789D01*
X0006540Y0019423D02*
Y0019409D01*
X0006721Y0019590D02*
X0006675D01*
X0027950Y0016350D02*
X0005965D01*
X0006901Y0019770D02*
X0006756D01*
X0006631Y0019500D02*
X0006612D01*
X0002650Y0016440D02*
X0000150D01*
X0002240Y0019230D02*
X0000150D01*
X0001360Y0017880D02*
X0000150D01*
X0001556Y0016800D02*
X0000150D01*
X0006630Y0018718D02*
Y0018549D01*
X0001500Y0016856D02*
Y0000150D01*
X0011490Y0014750D02*
Y0000150D01*
X0001360Y0017070D02*
X0000150D01*
X0008430Y0014750D02*
Y0000150D01*
X0002400Y0018531D02*
Y0016865D01*
X0001426Y0018420D02*
X0000150D01*
X0006810Y0018866D02*
Y0018729D01*
X0002670Y0016423D02*
Y0007440D01*
X0005325Y0019590D02*
X0000150D01*
X0004470Y0020850D02*
Y0019265D01*
X0001590Y0016766D02*
Y0000150D01*
X0008340Y0014750D02*
Y0000150D01*
X0002216Y0019209D02*
X0001418Y0018411D01*
X0013110Y0020850D02*
Y0020715D01*
X0001786Y0018780D02*
X0000150D01*
X0012390Y0019110D02*
Y0018690D01*
X0001696D02*
X0000150D01*
X0001360Y0017430D02*
X0000150D01*
X0002130Y0018261D02*
Y0017551D01*
X0002490Y0020850D02*
Y0019265D01*
X0001876Y0018870D02*
X0000150D01*
X0001606Y0018600D02*
X0000150D01*
X0002763Y0016980D02*
X0002005D01*
X0003831Y0016350D02*
X0000150D01*
X0001827Y0016530D02*
X0000150D01*
X0003577Y0016604D02*
X0004135Y0016046D01*
X0005221Y0020130D02*
X0000150D01*
X0008430Y0016611D02*
Y0015250D01*
X0013560Y0018110D02*
Y0000150D01*
X0004135Y0014190D02*
X0000150D01*
X0006360Y0000297D02*
Y0000150D01*
X0004135Y0014100D02*
X0000150D01*
X0004135Y0015630D02*
X0000150D01*
X0004135Y0015450D02*
X0000150D01*
X0004135Y0015540D02*
X0000150D01*
X0004135Y0015360D02*
X0000150D01*
X0004135Y0012210D02*
X0000150D01*
X0004135Y0012120D02*
X0000150D01*
X0004135Y0012030D02*
X0000150D01*
X0004135Y0015000D02*
X0000150D01*
X0004135Y0014910D02*
X0000150D01*
X0004135Y0014730D02*
X0000150D01*
X0006270Y0000258D02*
Y0000150D01*
X0027950Y0010500D02*
X0005769D01*
X0004135Y0011400D02*
X0000150D01*
X0004135Y0011310D02*
X0000150D01*
X0004135Y0014370D02*
X0000150D01*
X0004135Y0014280D02*
X0000150D01*
X0004135Y0014640D02*
X0000150D01*
X0004135Y0014550D02*
X0000150D01*
X0004135Y0014460D02*
X0000150D01*
X0004135Y0013920D02*
X0000150D01*
X0027950Y0011310D02*
X0006579D01*
X0008700Y0016728D02*
Y0015250D01*
X0004135Y0011130D02*
X0000150D01*
X0004135Y0013380D02*
X0000150D01*
X0004135Y0012390D02*
X0000150D01*
X0004135Y0013200D02*
X0000150D01*
X0027950Y0012210D02*
X0006640D01*
X0027950Y0012120D02*
X0006640D01*
X0027950Y0013020D02*
X0006460D01*
X0027950Y0012030D02*
X0006640D01*
X0004135Y0012750D02*
X0000150D01*
X0004135Y0011040D02*
X0000150D01*
X0004135Y0013290D02*
X0000150D01*
X0004135Y0012300D02*
X0000150D01*
X0004135Y0013110D02*
X0000150D01*
X0004135Y0013020D02*
X0000150D01*
X0004135Y0012660D02*
X0000150D01*
X0004135Y0012570D02*
X0000150D01*
X0004135Y0012480D02*
X0000150D01*
X0004135Y0011940D02*
X0000150D01*
X0027950Y0012840D02*
X0006431D01*
X0006450Y0014750D02*
Y0014095D01*
X0004135Y0015900D02*
X0000150D01*
X0004135Y0015810D02*
X0000150D01*
X0004135Y0015270D02*
X0000150D01*
X0004135Y0015180D02*
X0000150D01*
X0004135Y0015090D02*
X0000150D01*
X0027950Y0012660D02*
X0006310D01*
X0004135Y0011580D02*
X0000150D01*
X0027950D02*
X0006640D01*
X0027950Y0011490D02*
X0006640D01*
X0027950Y0010860D02*
X0006438D01*
X0027950Y0009060D02*
X0006456D01*
X0004391Y0008340D02*
X0000150D01*
X0004135Y0009420D02*
X0000150D01*
X0005544Y0009060D02*
X0005209D01*
X0027950Y0009330D02*
X0006320D01*
X0027950Y0010320D02*
X0006330D01*
X0002560Y0007350D02*
X0000150D01*
X0005541Y0008970D02*
X0005299D01*
X0027950Y0009150D02*
X0006435D01*
X0027950Y0010050D02*
X0006457D01*
X0005640Y0007714D02*
Y0007629D01*
X0004515Y0009216D02*
X0005569Y0008162D01*
X0014640Y0000747D02*
Y0000150D01*
X0004135Y0010410D02*
X0000150D01*
X0004135Y0010320D02*
X0000150D01*
X0004135Y0009690D02*
X0000150D01*
X0005556Y0008880D02*
X0005389D01*
X0027950Y0009960D02*
X0006458D01*
X0005591Y0008790D02*
X0005479D01*
X0004515Y0009216D02*
Y0008754D01*
X0005381Y0007350D02*
X0005267D01*
X0004830Y0008901D02*
Y0008439D01*
X0005010Y0007721D02*
Y0007440D01*
X0004830Y0007901D02*
Y0007406D01*
X0005569Y0008160D02*
X0005109D01*
X0005540Y0007980D02*
X0005289D01*
X0005553Y0007890D02*
X0005379D01*
X0005586Y0007800D02*
X0005469D01*
X0005741Y0007620D02*
X0005649D01*
X0005562Y0010140D02*
X0005129D01*
X0002760Y0006560D02*
Y0000150D01*
X0004135Y0010050D02*
X0000150D01*
X0027950Y0006810D02*
X0006419D01*
X0003560Y0006990D02*
X0003440D01*
X0002560Y0007260D02*
X0000150D01*
X0004603Y0006810D02*
X0004397D01*
X0027950Y0006630D02*
X0006273D01*
X0003750Y0016431D02*
Y0007362D01*
X0002560Y0006900D02*
X0000150D01*
X0002560Y0006630D02*
X0000150D01*
X0027950Y0006540D02*
X0000150D01*
X0027950Y0006450D02*
X0000150D01*
X0027950Y0006360D02*
X0000150D01*
X0027950Y0006270D02*
X0000150D01*
X0027950Y0006180D02*
X0000150D01*
X0027950Y0006090D02*
X0000150D01*
X0027950Y0006000D02*
X0000150D01*
X0027950Y0005910D02*
X0000150D01*
X0027950Y0005820D02*
X0000150D01*
X0027950Y0005730D02*
X0000150D01*
X0027950Y0005640D02*
X0000150D01*
X0027950Y0005550D02*
X0000150D01*
X0027950Y0005460D02*
X0000150D01*
X0000240Y0020850D02*
Y0000150D01*
X0027950Y0005280D02*
X0000150D01*
X0027950Y0005190D02*
X0000150D01*
X0027950Y0005100D02*
X0000150D01*
X0027950Y0005010D02*
X0000150D01*
X0027950Y0004920D02*
X0000150D01*
X0027950Y0004830D02*
X0000150D01*
X0027950Y0004740D02*
X0000150D01*
X0027950Y0004650D02*
X0000150D01*
X0027950Y0004560D02*
X0000150D01*
X0027950Y0004470D02*
X0000150D01*
X0023730Y0004380D02*
X0000150D01*
X0023640Y0004290D02*
X0000150D01*
X0023550Y0004200D02*
X0000150D01*
X0023460Y0004110D02*
X0000150D01*
X0023370Y0004020D02*
X0000150D01*
X0023280Y0003930D02*
X0000150D01*
X0001360Y0017250D02*
X0000150D01*
X0006541Y0019410D02*
X0006525D01*
X0005212Y0001050D02*
X0000150D01*
X0023100Y0003750D02*
X0000150D01*
X0023010Y0003660D02*
X0000150D01*
X0022920Y0003570D02*
X0000150D01*
X0022830Y0003480D02*
X0000150D01*
X0022740Y0003390D02*
X0000150D01*
X0022650Y0003300D02*
X0000150D01*
X0022560Y0003210D02*
X0000150D01*
X0022470Y0003120D02*
X0000150D01*
X0022380Y0003030D02*
X0000150D01*
X0022290Y0002940D02*
X0000150D01*
X0022200Y0002850D02*
X0000150D01*
X0022110Y0002760D02*
X0000150D01*
X0022020Y0002670D02*
X0000150D01*
X0021930Y0002580D02*
X0000150D01*
X0021840Y0002490D02*
X0000150D01*
X0021660Y0002310D02*
X0000150D01*
X0021480Y0002130D02*
X0000150D01*
X0021390Y0002040D02*
X0000150D01*
X0021300Y0001950D02*
X0000150D01*
X0006630Y0011389D02*
Y0001477D01*
X0005280Y0000675D02*
Y0000150D01*
X0005823Y0001770D02*
X0000150D01*
X0005598Y0001680D02*
X0000150D01*
X0005475Y0001590D02*
X0000150D01*
X0013740Y0018110D02*
Y0001355D01*
X0012560Y0001410D02*
X0006675D01*
X0012560Y0001320D02*
X0006722D01*
X0012560Y0001230D02*
X0006756D01*
X0012560Y0001140D02*
X0006777D01*
X0012560Y0001050D02*
X0006788D01*
X0012560Y0000960D02*
X0006789D01*
X0012560Y0000870D02*
X0006779D01*
X0012560Y0000780D02*
X0006759D01*
X0012560Y0000690D02*
X0006727D01*
X0005319Y0000600D02*
X0000150D01*
X0005380Y0000510D02*
X0000150D01*
X0005464Y0000420D02*
X0000150D01*
X0008520Y0020850D02*
Y0020514D01*
X0004740Y0007991D02*
Y0007355D01*
X0027950Y0008970D02*
X0006459D01*
X0027950Y0010680D02*
X0006330D01*
X0006360Y0016896D02*
Y0015286D01*
X0004650Y0006733D02*
Y0000150D01*
X0003660Y0006721D02*
Y0000150D01*
X0004594Y0007170D02*
X0004406D01*
X0006990Y0020850D02*
Y0019845D01*
X0004110Y0016071D02*
Y0007426D01*
X0003603Y0006810D02*
X0003440D01*
X0003930Y0016251D02*
Y0007434D01*
X0005244Y0001230D02*
X0000150D01*
X0004290Y0008441D02*
Y0007331D01*
X0027950Y0007170D02*
X0006427D01*
X0004733Y0007350D02*
X0004267D01*
X0027950Y0008520D02*
X0005749D01*
X0003645Y0007260D02*
X0003440D01*
X0003567Y0007080D02*
X0003440D01*
X0003571Y0006900D02*
X0003440D01*
X0003570Y0016603D02*
Y0007093D01*
X0003594Y0007170D02*
X0003440D01*
X0003570Y0006907D02*
Y0000150D01*
X0027950Y0007530D02*
X0005739D01*
X0003300Y0016690D02*
Y0007440D01*
X0003413Y0016620D02*
X0003195D01*
X0003120Y0016461D02*
Y0007440D01*
X0003030Y0016389D02*
Y0007440D01*
X0002940Y0016357D02*
Y0007440D01*
X0002850Y0016351D02*
Y0007440D01*
X0003750Y0006638D02*
Y0000150D01*
X0002670Y0006560D02*
Y0000150D01*
X0027950Y0006990D02*
X0006460D01*
X0003733Y0007350D02*
X0003440D01*
X0004560Y0006990D02*
X0004440D01*
X0027950Y0006720D02*
X0006365D01*
X0002560Y0007170D02*
X0000150D01*
X0002560Y0006990D02*
X0000150D01*
X0012918Y0015720D02*
X0005690D01*
X0007170Y0014750D02*
Y0000150D01*
X0006630Y0000523D02*
Y0000150D01*
X0027950Y0011130D02*
X0006441D01*
X0027950Y0012570D02*
X0006349D01*
X0004135Y0011850D02*
X0000150D01*
X0004135Y0010860D02*
X0000150D01*
X0027950Y0009510D02*
X0005759D01*
X0027950Y0009600D02*
X0006227D01*
X0005643Y0007710D02*
X0005559D01*
X0004135Y0010140D02*
X0000150D01*
X0012840Y0018110D02*
Y0015696D01*
X0006810Y0014750D02*
Y0000150D01*
X0006540Y0000423D02*
Y0000150D01*
X0004740Y0009529D02*
X0005838Y0008431D01*
X0004830Y0006594D02*
Y0000150D01*
X0006990Y0014750D02*
Y0000150D01*
X0021120Y0001770D02*
X0006177D01*
X0021030Y0001680D02*
X0006402D01*
X0020940Y0001590D02*
X0006525D01*
X0013830Y0018110D02*
Y0001406D01*
X0020850Y0001500D02*
X0006612D01*
X0005388D02*
X0000150D01*
X0005325Y0001410D02*
X0000150D01*
X0005278Y0001320D02*
X0000150D01*
X0004740Y0006645D02*
Y0000150D01*
X0023190Y0003840D02*
X0000150D01*
X0021210Y0001860D02*
X0000150D01*
X0005211Y0000960D02*
X0000150D01*
X0005273Y0000690D02*
X0000150D01*
X0019860Y0000510D02*
X0006620D01*
X0019770Y0000420D02*
X0006536D01*
X0019680Y0000330D02*
X0006419D01*
X0005370Y0019523D02*
Y0019265D01*
X0001360Y0017610D02*
X0000150D01*
X0006720Y0020850D02*
Y0020325D01*
X0006630Y0020850D02*
Y0020477D01*
X0006540Y0020850D02*
Y0020577D01*
X0006450Y0020850D02*
Y0020649D01*
X0006360Y0020850D02*
Y0020703D01*
X0006270Y0020850D02*
Y0020742D01*
X0006180Y0020850D02*
Y0020769D01*
X0006090Y0020850D02*
Y0020785D01*
X0006000Y0020850D02*
Y0020790D01*
X0005910Y0020850D02*
Y0020785D01*
X0005820Y0020850D02*
Y0020769D01*
X0005730Y0020850D02*
Y0020742D01*
X0005640Y0020850D02*
Y0020703D01*
X0005550Y0020850D02*
Y0020649D01*
X0005460Y0020850D02*
Y0020577D01*
X0011940Y0020850D02*
Y0020715D01*
X0005710Y0019265D02*
X0002350D01*
X0022250Y0018150D02*
X0015292D01*
X0007871Y0019865D02*
X0007075D01*
X0021300Y0018910D02*
Y0001950D01*
X0019860Y0000560D02*
Y0000510D01*
X0016440Y0018910D02*
Y0000150D01*
X0019500Y0018910D02*
Y0000150D01*
X0008316Y0020310D02*
X0006727D01*
X0013020Y0000560D02*
Y0000150D01*
X0008520Y0014750D02*
Y0000150D01*
X0001360Y0018150D02*
X0000150D01*
X0005244Y0019770D02*
X0000150D01*
X0022110Y0018290D02*
Y0002760D01*
X0024360Y0018000D02*
Y0004450D01*
X0026700Y0013634D02*
Y0004450D01*
X0026610Y0013498D02*
Y0004450D01*
X0026520Y0013405D02*
Y0004450D01*
X0026430Y0013337D02*
Y0004450D01*
X0026340Y0013287D02*
Y0004450D01*
X0026250Y0013251D02*
Y0004450D01*
X0026160Y0013226D02*
Y0004450D01*
X0026070Y0013213D02*
Y0004450D01*
X0026790Y0018000D02*
Y0004450D01*
X0025890Y0013218D02*
Y0004450D01*
X0025800Y0013236D02*
Y0004450D01*
X0025710Y0013265D02*
Y0004450D01*
X0025620Y0013307D02*
Y0004450D01*
X0025530Y0013365D02*
Y0004450D01*
X0025440Y0013443D02*
Y0004450D01*
X0025510Y0013380D02*
X0006259D01*
X0026700Y0018000D02*
Y0014366D01*
X0026610Y0018000D02*
Y0014502D01*
X0026520Y0018000D02*
Y0014595D01*
X0026430Y0018000D02*
Y0014663D01*
X0026340Y0018000D02*
Y0014713D01*
X0026250Y0018000D02*
Y0014749D01*
X0026160Y0018000D02*
Y0014774D01*
X0026070Y0018000D02*
Y0014787D01*
X0025980Y0018000D02*
Y0014790D01*
X0025890Y0018000D02*
Y0014782D01*
X0025800Y0018000D02*
Y0014764D01*
X0025710Y0018000D02*
Y0014735D01*
X0025620Y0018000D02*
Y0014693D01*
X0025530Y0018000D02*
Y0014635D01*
X0025440Y0018000D02*
Y0014557D01*
X0025260Y0018000D02*
Y0014277D01*
X0027950Y0014730D02*
X0026302D01*
X0027950Y0014640D02*
X0026463D01*
X0027950Y0014550D02*
X0026567D01*
X0027950Y0014460D02*
X0026642D01*
X0027950Y0014370D02*
X0026698D01*
X0027950Y0014280D02*
X0026739D01*
X0027950Y0014190D02*
X0026767D01*
X0027950Y0014100D02*
X0026784D01*
X0027950Y0014010D02*
X0026790D01*
X0027950Y0013920D02*
X0026786D01*
X0027950Y0013830D02*
X0026771D01*
X0027950Y0013740D02*
X0026746D01*
X0027950Y0013650D02*
X0026708D01*
X0027950Y0013560D02*
X0026656D01*
X0027950Y0013470D02*
X0026586D01*
X0004135Y0011220D02*
X0000150D01*
X0011580Y0017770D02*
Y0015250D01*
X0006325Y0012675D02*
X0006000Y0013000D01*
X0008610Y0016663D02*
Y0015250D01*
X0006325Y0013325D02*
X0006000Y0013000D01*
X0016689Y0001311D02*
X0017000Y0001000D01*
X0017311Y0000689D02*
X0017000Y0001000D01*
X0016689Y0000689D02*
X0017000Y0001000D01*
X0017311Y0001311D02*
X0017000Y0001000D01*
X0015689Y0001311D02*
X0016000Y0001000D01*
X0016311Y0000689D02*
X0016000Y0001000D01*
X0015689Y0000689D02*
X0016000Y0001000D01*
X0016311Y0001311D02*
X0016000Y0001000D01*
X0004135Y0009870D02*
X0000150D01*
X0007350Y0020850D02*
Y0019865D01*
X0002040Y0016991D02*
Y0016865D01*
X0009510Y0019285D02*
Y0019239D01*
X0011310Y0014750D02*
Y0000150D01*
X0009498Y0019230D02*
X0008840D01*
X0009510Y0018711D02*
Y0015250D01*
X0022340Y0018060D02*
X0012129D01*
X0014676Y0018870D02*
X0010008D01*
X0007960Y0018060D02*
X0007840D01*
X0005598Y0019320D02*
X0000150D01*
X0009960Y0020850D02*
Y0020715D01*
X0009690Y0014750D02*
Y0000150D01*
X0011310Y0019110D02*
Y0018818D01*
X0001736Y0016620D02*
X0000150D01*
X0008666Y0020659D02*
X0007871Y0019865D01*
X0001360Y0018060D02*
X0000150D01*
X0005585Y0016980D02*
X0005539D01*
X0007980Y0020850D02*
Y0019974D01*
X0007260Y0017633D02*
Y0017490D01*
X0007800Y0018285D02*
Y0018233D01*
X0006235Y0018060D02*
X0002119D01*
X0007710Y0020850D02*
Y0019865D01*
X0006270Y0016990D02*
Y0015372D01*
X0006630Y0014750D02*
Y0012261D01*
X0008406Y0020400D02*
X0006681D01*
X0017250Y0020850D02*
Y0019640D01*
X0021890Y0018510D02*
X0015654D01*
X0016260Y0018910D02*
Y0001355D01*
X0010410Y0014750D02*
Y0000150D01*
X0017160Y0020850D02*
Y0019640D01*
X0017430Y0020850D02*
Y0019640D01*
X0011400Y0014750D02*
Y0000150D01*
X0013619Y0000780D02*
X0013440D01*
X0015619D02*
X0015381D01*
X0023460Y0018000D02*
Y0004110D01*
X0015180Y0019619D02*
Y0019299D01*
X0021490Y0018910D02*
X0016054D01*
X0025350Y0013551D02*
Y0004450D01*
X0022070Y0018330D02*
X0015474D01*
X0015270Y0019580D02*
Y0019389D01*
X0013110Y0018110D02*
Y0015696D01*
X0015000Y0018110D02*
Y0001440D01*
X0015270Y0000653D02*
Y0000150D01*
X0008045Y0017790D02*
X0007755D01*
X0011670Y0017810D02*
Y0015250D01*
Y0019110D02*
Y0018690D01*
X0011098Y0018330D02*
X0008739D01*
X0021710Y0018690D02*
X0015834D01*
X0014853Y0019140D02*
X0013802D01*
X0014694Y0018960D02*
X0010025D01*
X0011102Y0017790D02*
X0008755D01*
X0027950Y0017970D02*
X0012039D01*
X0021490Y0018910D02*
X0022400Y0018000D01*
X0014280Y0018110D02*
Y0001339D01*
X0011048Y0017880D02*
X0008806D01*
X0011210Y0018780D02*
X0009960D01*
X0009392Y0018870D02*
X0008840D01*
X0008430Y0018610D02*
Y0018489D01*
X0016890Y0020850D02*
Y0019640D01*
X0015291Y0019410D02*
X0014079D01*
X0014280Y0019577D02*
Y0018690D01*
X0013200Y0015165D02*
Y0001440D01*
X0005773Y0009600D02*
X0005669D01*
X0004830Y0009901D02*
Y0009439D01*
X0004671Y0009060D02*
X0004515D01*
X0005820Y0000231D02*
Y0000150D01*
X0005460Y0007271D02*
Y0001577D01*
X0005820Y0008577D02*
Y0008449D01*
X0005481Y0008250D02*
X0005019D01*
X0005280Y0008451D02*
Y0007989D01*
X0006540Y0018710D02*
Y0018459D01*
X0005021Y0007710D02*
X0000150D01*
X0005280Y0010451D02*
Y0009989D01*
X0005651Y0008700D02*
X0005569D01*
X0004135Y0009060D02*
X0000150D01*
X0003846Y0016873D02*
X0004211Y0016508D01*
X0006900Y0018956D02*
Y0018819D01*
X0004470Y0018710D02*
Y0016745D01*
X0003840Y0016341D02*
Y0007410D01*
X0005280Y0018710D02*
Y0017398D01*
X0005190Y0018710D02*
Y0017422D01*
X0005370Y0007361D02*
Y0007238D01*
Y0018710D02*
Y0017339D01*
X0007350Y0014750D02*
Y0000150D01*
Y0016360D02*
Y0015250D01*
X0007440Y0016360D02*
Y0015250D01*
X0006450Y0016806D02*
Y0015250D01*
X0007530Y0016360D02*
Y0015250D01*
X0027950Y0015270D02*
X0013273D01*
X0027950Y0015360D02*
X0013297D01*
X0027950Y0015450D02*
X0013296D01*
X0006450Y0000351D02*
Y0000150D01*
X0025414Y0013470D02*
X0005690D01*
X0012750Y0018110D02*
Y0015634D01*
X0005820Y0016051D02*
Y0015423D01*
X0006450Y0011181D02*
Y0011095D01*
X0006720Y0014750D02*
Y0001325D01*
X0008254Y0016635D02*
X0008036Y0016418D01*
X0006090Y0000215D02*
Y0000150D01*
X0005550Y0011905D02*
Y0011095D01*
X0005730Y0011628D02*
Y0011372D01*
X0005820Y0011577D02*
Y0011423D01*
X0005910Y0011549D02*
Y0011451D01*
X0006180Y0000231D02*
Y0000150D01*
X0027950Y0013200D02*
X0006414D01*
X0005670Y0010680D02*
X0005589D01*
X0006640Y0012200D02*
Y0011450D01*
X0005820Y0013577D02*
Y0013423D01*
X0027950Y0011670D02*
X0006640D01*
X0006990Y0016360D02*
Y0015250D01*
X0008340Y0016614D02*
Y0015250D01*
X0012480Y0018110D02*
Y0015259D01*
X0008520Y0016627D02*
Y0015250D01*
X0013290Y0018110D02*
Y0015480D01*
X0007620Y0016360D02*
Y0015250D01*
X0006291Y0016966D02*
X0006838Y0016418D01*
X0007080Y0016360D02*
Y0015250D01*
X0008790Y0016846D02*
Y0015250D01*
X0006260Y0011580D02*
X0006188D01*
X0005541Y0012030D02*
X0005315D01*
X0027950Y0012750D02*
X0006386D01*
X0010860Y0019110D02*
Y0015250D01*
X0011400Y0017679D02*
Y0015250D01*
X0010320Y0019110D02*
Y0015250D01*
X0005585Y0017211D02*
Y0016934D01*
X0010950Y0019110D02*
Y0015250D01*
X0007800Y0016360D02*
Y0015250D01*
X0005690Y0015921D02*
Y0015340D01*
Y0013660D02*
Y0013340D01*
X0018747Y0019640D02*
X0018253D01*
X0005714Y0015360D02*
X0005690D01*
X0012840Y0000560D02*
Y0000150D01*
X0005910Y0016141D02*
Y0015451D01*
X0005585Y0017070D02*
X0005474D01*
X0005730Y0015961D02*
Y0015372D01*
X0005471Y0017048D02*
X0005585Y0016934D01*
X0009330Y0019285D02*
Y0015250D01*
X0009420Y0018810D02*
Y0015250D01*
X0004920Y0018710D02*
Y0017330D01*
X0005730Y0018710D02*
Y0017797D01*
X0002579Y0018710D02*
X0002119Y0018250D01*
X0007260Y0014750D02*
Y0000150D01*
X0011310Y0017677D02*
Y0015250D01*
X0005756Y0008610D02*
X0005659D01*
X0005479Y0017340D02*
X0005369D01*
X0002146Y0019140D02*
X0000150D01*
X0004020Y0018710D02*
Y0016699D01*
X0005540Y0017700D02*
X0002119D01*
X0006235Y0017970D02*
X0002119D01*
X0004110Y0018710D02*
Y0016609D01*
X0006636Y0016620D02*
X0005965D01*
X0005041Y0009690D02*
X0004740D01*
X0012179Y0018110D02*
X0011936Y0017868D01*
X0019550Y0020850D02*
X0019962Y0020438D01*
X0005453Y0017430D02*
X0002225D01*
X0006985Y0018904D02*
X0006293Y0018211D01*
X0012210Y0019110D02*
Y0018690D01*
X0005585Y0017160D02*
X0005469D01*
X0007840Y0017490D02*
X0007229D01*
X0012120Y0019110D02*
Y0018690D01*
X0007890Y0016360D02*
Y0015250D01*
X0005315Y0012416D02*
Y0010954D01*
X0006540Y0016716D02*
Y0015250D01*
X0027950Y0011040D02*
X0006458D01*
X0018600Y0019817D02*
Y0019640D01*
X0012651Y0015430D02*
X0012471Y0015250D01*
X0025537Y0014640D02*
X0006286D01*
X0006720Y0016536D02*
Y0015250D01*
X0016260Y0020850D02*
Y0020440D01*
X0015270Y0020850D02*
Y0020715D01*
X0017700Y0019678D02*
Y0019640D01*
X0017583Y0019860D02*
X0016840D01*
X0022160Y0018240D02*
X0015384D01*
X0015875Y0020715D02*
X0008800D01*
X0010860Y0020850D02*
Y0020715D01*
X0010840Y0020000D02*
X0010400D01*
X0005370Y0009361D02*
Y0008899D01*
X0009960Y0020335D02*
Y0019665D01*
X0010860Y0020335D02*
Y0019665D01*
X0010950Y0020335D02*
Y0019665D01*
X0027950Y0011760D02*
X0006640D01*
X0005100Y0009631D02*
Y0009169D01*
X0006720Y0018776D02*
Y0018639D01*
X0006360Y0019297D02*
Y0019265D01*
X0004380Y0020850D02*
Y0019265D01*
X0007620Y0020850D02*
Y0019865D01*
X0015115Y0020335D02*
X0014685D01*
X0004135Y0015990D02*
X0000150D01*
X0002220Y0018351D02*
Y0017441D01*
X0010050Y0020335D02*
Y0020267D01*
X0007032Y0019860D02*
X0006777D01*
X0013920Y0020850D02*
Y0020715D01*
X0009544Y0018690D02*
X0008840D01*
X0016350Y0018910D02*
Y0001267D01*
X0004920Y0020850D02*
Y0019265D01*
X0002940Y0018710D02*
Y0016993D01*
X0001860Y0020850D02*
Y0018854D01*
X0006941Y0019809D02*
X0006396Y0019265D01*
X0027950Y0013290D02*
X0026346D01*
X0001360Y0017700D02*
X0000150D01*
X0003651Y0016530D02*
X0003166D01*
X0014910Y0020335D02*
Y0019162D01*
X0001360Y0018275D02*
Y0017075D01*
X0006250Y0018150D02*
X0002119D01*
X0002220Y0020850D02*
Y0019214D01*
X0005464Y0020580D02*
X0000150D01*
X0012840Y0020850D02*
Y0020715D01*
X0004290Y0018710D02*
Y0016649D01*
X0027950Y0016170D02*
X0005933D01*
X0005319Y0020400D02*
X0000150D01*
X0001680Y0020850D02*
Y0018674D01*
X0004110Y0020850D02*
Y0019265D01*
X0005280Y0019675D02*
Y0019265D01*
X0002631Y0016890D02*
X0002004D01*
X0006235Y0017520D02*
X0006097D01*
X0008136Y0020130D02*
X0006779D01*
X0002760Y0018710D02*
Y0016979D01*
X0005479Y0017610D02*
X0002119D01*
X0027950Y0016530D02*
X0008149D01*
X0007530Y0014750D02*
Y0000150D01*
X0007440Y0017612D02*
Y0017490D01*
X0007530Y0017630D02*
Y0017490D01*
X0027950Y0015000D02*
X0012929D01*
X0008790Y0020850D02*
Y0020715D01*
X0016054Y0018910D02*
X0015311Y0018168D01*
X0005460Y0017395D02*
Y0017198D01*
X0007080Y0017723D02*
Y0017639D01*
X0005031Y0008700D02*
X0004569D01*
X0005910Y0000215D02*
Y0000150D01*
X0005820Y0009577D02*
Y0009449D01*
X0005491Y0009240D02*
X0005029D01*
X0027950Y0008700D02*
X0006349D01*
X0004771Y0009960D02*
X0004740D01*
X0013560Y0019110D02*
Y0018690D01*
X0013650Y0019110D02*
Y0018690D01*
X0013290Y0019110D02*
Y0018690D01*
X0019590Y0019840D02*
Y0019640D01*
X0005411Y0010320D02*
X0005015D01*
Y0010716D02*
Y0010254D01*
X0006720Y0000675D02*
Y0000150D01*
X0005100Y0018710D02*
Y0017421D01*
X0005820Y0010577D02*
Y0010449D01*
X0006000Y0000210D02*
Y0000150D01*
X0005791Y0010590D02*
X0005679D01*
X0027950Y0014820D02*
X0012748D01*
X0006000Y0010540D02*
Y0010460D01*
X0011490Y0017707D02*
Y0015250D01*
X0011220Y0017702D02*
Y0015250D01*
X0005291Y0007440D02*
X0000150D01*
X0006000Y0007540D02*
Y0007460D01*
X0005231Y0010500D02*
X0005015D01*
X0004661Y0006720D02*
X0004339D01*
X0005635D02*
X0005339D01*
X0005581Y0006810D02*
X0005397D01*
X0005280Y0007451D02*
Y0007339D01*
X0005540Y0006990D02*
X0005440D01*
X0004554Y0016980D02*
X0003845D01*
X0004513Y0016890D02*
X0003848D01*
X0005565Y0009150D02*
X0005119D01*
X0005866Y0007440D02*
X0005829D01*
X0005660Y0009690D02*
X0005579D01*
X0001950Y0016972D02*
Y0016944D01*
X0027950Y0008430D02*
X0006163D01*
X0003225Y0016800D02*
X0003175D01*
X0003300Y0018710D02*
Y0017159D01*
X0004265Y0016620D02*
X0004099D01*
X0003930Y0018710D02*
Y0016789D01*
X0027950Y0007620D02*
X0006259D01*
X0027950Y0007710D02*
X0006357D01*
X0008970Y0020850D02*
Y0020715D01*
X0008250Y0020850D02*
Y0020244D01*
X0011130Y0019110D02*
Y0018713D01*
X0006396Y0019265D02*
X0006290D01*
X0015360Y0019562D02*
Y0019479D01*
X0007440Y0020850D02*
Y0019865D01*
X0019730Y0020670D02*
X0015998D01*
X0004369Y0016710D02*
X0004009D01*
X0005222Y0019860D02*
X0000150D01*
X0008226Y0020220D02*
X0006759D01*
X0001500Y0020850D02*
Y0018494D01*
X0002130Y0020850D02*
Y0019124D01*
X0027950Y0016620D02*
X0008493D01*
X0009420Y0019140D02*
X0008840D01*
X0009960Y0020000D02*
X0010400D01*
X0006450Y0019351D02*
Y0019319D01*
X0005475Y0019410D02*
X0000150D01*
X0003030Y0020850D02*
Y0019265D01*
X0001950Y0020850D02*
Y0018944D01*
X0019590Y0020810D02*
Y0020160D01*
X0005905Y0015450D02*
X0005690D01*
X0002940Y0020850D02*
Y0019265D01*
X0002850Y0020850D02*
Y0019265D01*
X0011040Y0020335D02*
Y0020253D01*
X0006411Y0018330D02*
X0002199D01*
X0001410Y0020850D02*
Y0018403D01*
X0006591Y0018510D02*
X0002379D01*
X0006270Y0018710D02*
Y0018185D01*
X0001770Y0020850D02*
Y0018764D01*
X0001360Y0018240D02*
X0000150D01*
X0002760Y0020850D02*
Y0019265D01*
X0005278Y0019680D02*
X0000150D01*
X0002130Y0017041D02*
Y0016865D01*
X0005211Y0020040D02*
X0000150D01*
X0006575Y0018710D02*
X0002579D01*
X0006235Y0017160D02*
X0005965D01*
X0002490Y0018621D02*
Y0016865D01*
X0027950Y0015810D02*
X0005690D01*
X0004861Y0009870D02*
X0004740D01*
X0009150Y0014750D02*
Y0000150D01*
X0005341Y0012390D02*
X0005315D01*
X0005540Y0017250D02*
X0005438D01*
X0007039Y0017680D02*
X0007229Y0017490D01*
X0006235Y0017790D02*
X0005855D01*
X0006235Y0018075D02*
Y0017100D01*
Y0017430D02*
X0006097D01*
X0006816Y0016440D02*
X0005965D01*
X0007620Y0017669D02*
Y0017490D01*
X0001385Y0016980D02*
X0000150D01*
X0004560Y0018710D02*
Y0016988D01*
X0003202Y0016890D02*
X0003119D01*
X0006681Y0018600D02*
X0002469D01*
X0007800Y0020850D02*
Y0019865D01*
X0006235Y0017340D02*
X0006071D01*
X0007900Y0016360D02*
X0006975D01*
X0001923Y0016971D02*
X0002029Y0016865D01*
X0027950Y0016800D02*
X0008762D01*
X0008160Y0020850D02*
Y0020154D01*
X0007881Y0016800D02*
X0007840D01*
X0007440Y0014750D02*
Y0000150D01*
X0007170Y0020850D02*
Y0019865D01*
X0008254Y0018610D02*
X0007986Y0018343D01*
X0005910Y0009549D02*
Y0009451D01*
X0004560Y0009171D02*
Y0008709D01*
X0014683Y0018780D02*
X0011540D01*
X0008070Y0018426D02*
Y0018341D01*
X0009602Y0019285D02*
X0008840D01*
X0007840Y0017490D02*
Y0016759D01*
X0006321Y0018240D02*
X0002119D01*
X0014370Y0000762D02*
Y0000150D01*
Y0020850D02*
Y0020715D01*
X0014460Y0020850D02*
Y0020715D01*
X0014744Y0019050D02*
X0010044D01*
X0006235Y0017250D02*
X0006009D01*
X0010104Y0019110D02*
X0010021Y0019027D01*
X0007170Y0016360D02*
Y0015250D01*
X0027950Y0014910D02*
X0012839D01*
X0014100Y0018110D02*
Y0001428D01*
X0001646Y0016710D02*
X0000150D01*
X0027950Y0016260D02*
X0005964D01*
X0002611Y0016865D02*
X0002029D01*
X0027950Y0009780D02*
X0006404D01*
X0004135Y0012840D02*
X0000150D01*
X0027950Y0012390D02*
X0006529D01*
X0003281Y0016710D02*
X0003198D01*
X0004380Y0018710D02*
Y0016716D01*
X0004217Y0016530D02*
X0004189D01*
X0006900Y0016375D02*
Y0015250D01*
X0003741Y0016440D02*
X0003099D01*
X0005321Y0010410D02*
X0005015D01*
X0004644Y0017070D02*
X0003816D01*
X0001410Y0016947D02*
Y0000150D01*
X0001416Y0016941D02*
X0001813Y0016543D01*
X0001466Y0016890D02*
X0000150D01*
X0012480Y0019110D02*
Y0018690D01*
X0005695Y0017790D02*
X0002119D01*
X0012030Y0017961D02*
Y0015250D01*
X0011225Y0017700D02*
X0008667D01*
X0011800Y0017810D02*
X0011614D01*
X0005551Y0006900D02*
X0005428D01*
X0027950Y0010770D02*
X0006398D01*
X0004135Y0013470D02*
X0000150D01*
X0004135Y0013650D02*
X0000150D01*
X0004135Y0011490D02*
X0000150D01*
X0007980Y0016378D02*
Y0015250D01*
X0004135Y0013830D02*
X0000150D01*
X0006810Y0016446D02*
Y0015250D01*
X0004135Y0010950D02*
X0000150D01*
X0004135Y0012930D02*
X0000150D01*
X0027950Y0012480D02*
X0006439D01*
X0027950Y0011940D02*
X0006640D01*
X0006630Y0016626D02*
Y0015250D01*
X0025654Y0013290D02*
X0006357D01*
X0006450Y0013905D02*
Y0013095D01*
X0006360Y0013714D02*
Y0013286D01*
X0006270Y0013628D02*
Y0013372D01*
X0006180Y0013577D02*
Y0013423D01*
X0006090Y0013549D02*
Y0013451D01*
X0006000Y0013540D02*
Y0013460D01*
X0005910Y0013549D02*
Y0013451D01*
X0025358Y0014460D02*
X0005690D01*
X0012682Y0015540D02*
X0005690D01*
X0004135Y0013560D02*
X0000150D01*
X0006309Y0012609D02*
X0006582Y0012336D01*
X0006450Y0012905D02*
Y0012469D01*
X0004135Y0011760D02*
X0000150D01*
X0027950Y0012930D02*
X0006455D01*
X0004135Y0011670D02*
X0000150D01*
X0027950Y0013110D02*
X0006447D01*
X0005460Y0000423D02*
Y0000150D01*
X0025344Y0013560D02*
X0006134D01*
X0005730Y0013628D02*
Y0013372D01*
X0006360Y0014714D02*
Y0014286D01*
X0006270Y0014628D02*
Y0014372D01*
X0006180Y0014577D02*
Y0014423D01*
X0006090Y0014549D02*
Y0014451D01*
X0006000Y0014540D02*
Y0014460D01*
X0005910Y0014549D02*
Y0014451D01*
X0011040Y0017902D02*
Y0015250D01*
X0005820Y0014577D02*
Y0014423D01*
X0005701Y0013650D02*
X0005690D01*
X0025302Y0014370D02*
X0006273D01*
X0025261Y0014280D02*
X0006365D01*
X0025233Y0014190D02*
X0006419D01*
X0025216Y0014100D02*
X0006449D01*
X0025210Y0014010D02*
X0006460D01*
X0025214Y0013920D02*
X0006453D01*
X0025228Y0013830D02*
X0006427D01*
X0025254Y0013740D02*
X0006379D01*
X0006235Y0017880D02*
X0002119D01*
X0005730Y0014628D02*
Y0014372D01*
X0001360Y0017340D02*
X0000150D01*
X0016980Y0020850D02*
Y0019640D01*
X0006969Y0018960D02*
X0006904D01*
X0015443Y0019562D02*
X0015052Y0019171D01*
X0006090Y0017395D02*
Y0015451D01*
X0004135Y0014010D02*
X0000150D01*
X0012660Y0014765D02*
Y0001440D01*
X0012575Y0014750D02*
X0006386D01*
X0012745Y0015630D02*
X0005690D01*
X0027950Y0011850D02*
X0006640D01*
X0012660Y0018110D02*
Y0015480D01*
X0005714Y0014640D02*
X0005690D01*
X0025698Y0014730D02*
X0006372D01*
X0025433Y0014550D02*
X0006095D01*
X0017840Y0001410D02*
X0017160D01*
X0017698Y0001320D02*
X0017302D01*
X0017625Y0001230D02*
X0017375D01*
X0017583Y0001140D02*
X0017417D01*
X0018780Y0018910D02*
Y0000150D01*
X0017970Y0000561D02*
Y0000150D01*
X0018420Y0018910D02*
Y0001131D01*
X0018330Y0018910D02*
Y0001291D01*
X0018240Y0018910D02*
Y0001369D01*
X0018150Y0018910D02*
Y0001414D01*
X0018060Y0018910D02*
Y0001436D01*
X0017970Y0018910D02*
Y0001439D01*
X0019680Y0000560D02*
Y0000330D01*
X0017700Y0000678D02*
Y0000150D01*
X0017580Y0000870D02*
X0017420D01*
X0017619Y0000780D02*
X0017381D01*
X0004135Y0014820D02*
X0000150D01*
X0017817Y0000600D02*
X0017183D01*
X0019560Y0001410D02*
X0018160D01*
X0019560Y0001320D02*
X0018302D01*
X0019560Y0001230D02*
X0018375D01*
X0019560Y0001140D02*
X0018417D01*
X0017790Y0018910D02*
Y0001387D01*
X0017610Y0018910D02*
Y0001204D01*
X0016980Y0000560D02*
Y0000150D01*
X0019590Y0000560D02*
Y0000240D01*
X0017430Y0018910D02*
Y0001093D01*
X0017340Y0018910D02*
Y0001279D01*
X0017250Y0018910D02*
Y0001362D01*
X0017160Y0018910D02*
Y0001410D01*
X0017070Y0018910D02*
Y0001434D01*
X0016980Y0018910D02*
Y0001440D01*
X0017790Y0000613D02*
Y0000150D01*
X0016710Y0018910D02*
Y0001331D01*
X0019560Y0000870D02*
X0018420D01*
X0016580D02*
X0016420D01*
X0016688Y0000690D02*
X0016312D01*
X0016817Y0000600D02*
X0016183D01*
X0019560Y0000960D02*
X0018438D01*
X0016840Y0001410D02*
X0016160D01*
X0016698Y0001320D02*
X0016302D01*
X0016625Y0001230D02*
X0016375D01*
X0016620Y0018910D02*
Y0001222D01*
X0017520Y0018910D02*
Y0000150D01*
X0015720Y0018576D02*
Y0001339D01*
X0016530Y0018910D02*
Y0000150D01*
X0019230Y0018910D02*
Y0000150D01*
X0015990Y0018846D02*
Y0001440D01*
X0016800Y0000608D02*
Y0000150D01*
X0016170Y0018910D02*
Y0001406D01*
X0016710Y0000669D02*
Y0000150D01*
X0015580Y0000870D02*
X0015420D01*
X0015688Y0000690D02*
X0015312D01*
X0015817Y0000600D02*
X0015183D01*
X0016563Y0001050D02*
X0016437D01*
X0015840Y0001410D02*
X0015160D01*
X0015698Y0001320D02*
X0015302D01*
X0015625Y0001230D02*
X0015375D01*
X0015630Y0018486D02*
Y0001238D01*
X0011760Y0017810D02*
Y0015250D01*
X0014280Y0000661D02*
Y0000150D01*
X0011220Y0019110D02*
Y0018786D01*
X0015450Y0018306D02*
Y0000150D01*
X0015090Y0018110D02*
Y0001431D01*
X0015000Y0000560D02*
Y0000150D01*
X0015270Y0018135D02*
Y0001347D01*
X0015810Y0000603D02*
Y0000150D01*
X0014730Y0018110D02*
Y0001347D01*
X0015720Y0000661D02*
Y0000150D01*
X0014580Y0000870D02*
X0014420D01*
X0014640Y0018110D02*
Y0001253D01*
X0015630Y0000762D02*
Y0000150D01*
X0019747Y0019640D02*
X0019253D01*
X0014190Y0000603D02*
Y0000150D01*
X0014688Y0000690D02*
X0014312D01*
X0014817Y0000600D02*
X0014183D01*
X0015563Y0001050D02*
X0015437D01*
X0014840Y0001410D02*
X0014160D01*
X0014698Y0001320D02*
X0014302D01*
X0014625Y0001230D02*
X0014375D01*
X0014820Y0000598D02*
Y0000150D01*
X0014370Y0018110D02*
Y0001238D01*
X0014730Y0000653D02*
Y0000150D01*
X0014190Y0018110D02*
Y0001397D01*
X0014550Y0018110D02*
Y0000150D01*
X0012491Y0015270D02*
X0006372D01*
X0027950Y0005370D02*
X0000150D01*
X0013920Y0018110D02*
Y0001433D01*
X0015540Y0018396D02*
Y0000150D01*
X0012560Y0000600D02*
X0006681D01*
X0019560D02*
X0018183D01*
X0013840Y0001410D02*
X0013440D01*
X0013698Y0001320D02*
X0013440D01*
X0013625Y0001230D02*
X0013440D01*
X0013583Y0001140D02*
X0013440D01*
X0013563Y0001050D02*
X0013440D01*
X0013562Y0000960D02*
X0013440D01*
X0013580Y0000870D02*
X0013440D01*
X0013817Y0000600D02*
X0013440D01*
X0004101Y0016080D02*
X0000150D01*
X0013470Y0018110D02*
Y0000150D01*
X0013380Y0000560D02*
Y0000150D01*
X0013290Y0000560D02*
Y0000150D01*
X0013200Y0000560D02*
Y0000150D01*
X0018690Y0019688D02*
Y0019640D01*
X0013110Y0000560D02*
Y0000150D01*
X0013650Y0000733D02*
Y0000150D01*
X0012660Y0000560D02*
Y0000150D01*
X0009780Y0020335D02*
Y0020222D01*
Y0020850D02*
Y0020715D01*
X0009690Y0020850D02*
Y0020715D01*
X0027950Y0015720D02*
X0013032D01*
X0009510Y0020850D02*
Y0020715D01*
X0009420Y0020850D02*
Y0020715D01*
X0009330Y0020850D02*
Y0020715D01*
X0004560Y0020850D02*
Y0019265D01*
X0008880Y0020850D02*
Y0020715D01*
X0009150Y0020850D02*
Y0020715D01*
X0010088Y0020310D02*
X0009712D01*
X0010019Y0020220D02*
X0009781D01*
X0009980Y0020130D02*
X0009820D01*
X0009962Y0020040D02*
X0009838D01*
X0009963Y0019950D02*
X0009837D01*
X0009983Y0019860D02*
X0009817D01*
X0004135Y0009600D02*
X0000150D01*
X0010025Y0019770D02*
X0009775D01*
X0011115Y0020335D02*
X0010685D01*
X0008970Y0019285D02*
Y0015250D01*
X0010770Y0020335D02*
Y0020238D01*
Y0020850D02*
Y0020715D01*
X0010680Y0020850D02*
Y0020715D01*
X0010590Y0020850D02*
Y0020715D01*
X0010500Y0020850D02*
Y0020715D01*
X0010410Y0020850D02*
Y0020715D01*
X0010320Y0020850D02*
Y0020715D01*
X0010098Y0019680D02*
X0009702D01*
X0010050Y0020850D02*
Y0020715D01*
X0010140Y0020850D02*
Y0020715D01*
X0011088Y0020310D02*
X0010712D01*
X0011019Y0020220D02*
X0010781D01*
X0010980Y0020130D02*
X0010820D01*
X0010962Y0020040D02*
X0010838D01*
X0010963Y0019950D02*
X0010837D01*
X0010983Y0019860D02*
X0010817D01*
X0011025Y0019770D02*
X0010775D01*
X0010230Y0020850D02*
Y0020715D01*
X0010770Y0019762D02*
Y0019665D01*
X0011760Y0020850D02*
Y0020715D01*
X0011670Y0020850D02*
Y0020715D01*
X0011580Y0020850D02*
Y0020715D01*
X0011490Y0020850D02*
Y0020715D01*
X0007890Y0020850D02*
Y0019884D01*
X0011310Y0020850D02*
Y0020715D01*
X0011098Y0019680D02*
X0010702D01*
X0011040Y0020850D02*
Y0020715D01*
X0011130Y0020850D02*
Y0020715D01*
X0007170Y0017675D02*
Y0017549D01*
X0027950Y0006900D02*
X0006449D01*
X0011220Y0020850D02*
Y0020715D01*
X0013110Y0019110D02*
Y0018690D01*
X0012750Y0020850D02*
Y0020715D01*
X0012660Y0020850D02*
Y0020715D01*
X0012480Y0020850D02*
Y0020715D01*
X0027950Y0017610D02*
X0007109D01*
X0012390Y0020850D02*
Y0020715D01*
X0012300Y0020850D02*
Y0020715D01*
X0012120Y0020850D02*
Y0020715D01*
X0012210Y0020850D02*
Y0020715D01*
X0013830Y0020850D02*
Y0020715D01*
X0013740Y0020850D02*
Y0020715D01*
X0013650Y0020850D02*
Y0020715D01*
X0013560Y0020850D02*
Y0020715D01*
X0013470Y0020850D02*
Y0020715D01*
X0013380Y0020850D02*
Y0020715D01*
X0013290Y0020850D02*
Y0020715D01*
X0013020Y0020850D02*
Y0020715D01*
X0027950Y0015180D02*
X0013214D01*
X0014717Y0018690D02*
X0011639D01*
X0014460Y0019564D02*
Y0018690D01*
X0014820Y0020850D02*
Y0020715D01*
X0014730Y0020335D02*
Y0020291D01*
X0014640Y0020850D02*
Y0020715D01*
X0013200Y0020850D02*
Y0020715D01*
X0014820Y0019869D02*
Y0019121D01*
X0014730Y0019709D02*
Y0019031D01*
X0014190Y0020850D02*
Y0020715D01*
X0015088Y0020310D02*
X0014712D01*
X0015019Y0020220D02*
X0014781D01*
X0014980Y0020130D02*
X0014820D01*
X0014962Y0020040D02*
X0014838D01*
X0014963Y0019950D02*
X0014837D01*
X0015090Y0019688D02*
Y0019209D01*
X0014370Y0019561D02*
Y0018690D01*
X0015098Y0019680D02*
X0014702D01*
X0014280Y0020850D02*
Y0020715D01*
X0014100Y0020850D02*
Y0020715D01*
X0014983Y0019860D02*
X0014817D01*
X0015720Y0020850D02*
Y0020715D01*
X0015630Y0020850D02*
Y0020715D01*
X0015540Y0020850D02*
Y0020715D01*
X0015450Y0020850D02*
Y0020715D01*
X0015360Y0020850D02*
Y0020715D01*
X0015900Y0020850D02*
Y0020713D01*
X0015180Y0020850D02*
Y0020715D01*
X0015810Y0020850D02*
Y0020715D01*
X0015090Y0020850D02*
Y0020715D01*
X0015240Y0019590D02*
X0014560D01*
X0015000Y0020850D02*
Y0020715D01*
X0016800Y0020850D02*
Y0020440D01*
X0016710Y0020850D02*
Y0020440D01*
X0016620Y0020850D02*
Y0020440D01*
X0016530Y0020850D02*
Y0020440D01*
X0016440Y0020850D02*
Y0020440D01*
X0015090Y0020335D02*
Y0020312D01*
X0017688Y0000690D02*
X0017312D01*
X0016350Y0020850D02*
Y0020440D01*
X0017817Y0020400D02*
X0016840D01*
X0017688Y0020310D02*
X0016840D01*
X0017619Y0020220D02*
X0016840D01*
X0017580Y0020130D02*
X0016840D01*
X0017562Y0020040D02*
X0016840D01*
X0017563Y0019950D02*
X0016840D01*
X0016009Y0020659D02*
X0016229Y0020440D01*
X0005784Y0000240D02*
X0000150D01*
X0025350Y0018000D02*
Y0014449D01*
X0025170Y0018000D02*
Y0004450D01*
X0025080Y0018000D02*
Y0004450D01*
X0024270Y0018000D02*
Y0004450D01*
X0008070Y0016451D02*
Y0015250D01*
X0004135Y0010500D02*
X0000150D01*
X0024540Y0018000D02*
Y0004450D01*
X0024090Y0018000D02*
Y0004450D01*
X0024000Y0018000D02*
Y0004450D01*
X0025260Y0013723D02*
Y0004450D01*
X0021840Y0018560D02*
Y0002490D01*
X0024900Y0018000D02*
Y0004450D01*
X0019820Y0020580D02*
X0016089D01*
X0023550Y0018000D02*
Y0004200D01*
X0021930Y0018470D02*
Y0002580D01*
X0021480Y0018910D02*
Y0002130D01*
X0024810Y0018000D02*
Y0004450D01*
X0023910Y0018000D02*
Y0004450D01*
X0022830Y0018000D02*
Y0003480D01*
X0022290Y0018110D02*
Y0002940D01*
X0022200Y0018200D02*
Y0002850D01*
X0024180Y0018000D02*
Y0004450D01*
X0022020Y0018380D02*
Y0002670D01*
X0021570Y0018830D02*
Y0002220D01*
X0021750Y0018650D02*
Y0002400D01*
X0021120Y0018910D02*
Y0001770D01*
X0021660Y0018740D02*
Y0002310D01*
X0022380Y0018020D02*
Y0003030D01*
X0023820Y0018000D02*
Y0004450D01*
X0023370Y0018000D02*
Y0004020D01*
X0021210Y0018910D02*
Y0001860D01*
X0022470Y0018000D02*
Y0003120D01*
X0019680Y0018910D02*
Y0001440D01*
X0018240Y0000631D02*
Y0000150D01*
X0014910Y0000569D02*
Y0000150D01*
X0020760Y0001410D02*
X0020440D01*
X0020670Y0001320D02*
X0020440D01*
X0020580Y0001230D02*
X0020440D01*
X0020490Y0001140D02*
X0020440D01*
X0018330Y0000709D02*
Y0000150D01*
X0018150Y0000586D02*
Y0000150D01*
X0017563Y0001050D02*
X0017437D01*
X0018060Y0000564D02*
Y0000150D01*
X0020400Y0018910D02*
Y0001440D01*
X0020310Y0018910D02*
Y0001440D01*
X0020220Y0018910D02*
Y0001440D01*
X0020130Y0018910D02*
Y0001440D01*
X0020040Y0018910D02*
Y0001440D01*
X0019950Y0018910D02*
Y0001440D01*
X0017625Y0019770D02*
X0016840D01*
X0016080Y0020850D02*
Y0020589D01*
X0018420Y0020850D02*
Y0020131D01*
X0018330Y0020850D02*
Y0020291D01*
X0018240Y0020850D02*
Y0020369D01*
X0018150Y0020850D02*
Y0020414D01*
X0018060Y0020850D02*
Y0020436D01*
X0017970Y0020850D02*
Y0020439D01*
X0017880Y0020850D02*
Y0020423D01*
X0017790Y0020850D02*
Y0020387D01*
X0015000Y0020335D02*
Y0020183D01*
X0017700Y0020850D02*
Y0020322D01*
X0018817Y0020400D02*
X0018183D01*
X0018688Y0020310D02*
X0018312D01*
X0018619Y0020220D02*
X0018381D01*
X0018580Y0020130D02*
X0018420D01*
X0018562Y0020040D02*
X0018438D01*
X0018563Y0019950D02*
X0018437D01*
X0018583Y0019860D02*
X0018417D01*
X0018625Y0019770D02*
X0018375D01*
X0018698Y0019680D02*
X0018302D01*
X0019500Y0020850D02*
Y0019640D01*
X0019410Y0020850D02*
Y0020160D01*
X0019320Y0020850D02*
Y0020302D01*
X0019230Y0020850D02*
Y0020375D01*
X0019140Y0020850D02*
Y0020417D01*
X0019050Y0020850D02*
Y0020437D01*
X0018960Y0020850D02*
Y0020438D01*
X0018870Y0020850D02*
Y0020420D01*
X0018780Y0020850D02*
Y0020381D01*
X0019680Y0019698D02*
Y0019640D01*
X0018690Y0020850D02*
Y0020312D01*
X0019817Y0020400D02*
X0019183D01*
X0019688Y0020310D02*
X0019312D01*
X0019619Y0020220D02*
X0019381D01*
X0019580Y0020130D02*
X0019420D01*
X0019562Y0020040D02*
X0019438D01*
X0019563Y0019950D02*
X0019437D01*
X0019583Y0019860D02*
X0019417D01*
X0019625Y0019770D02*
X0019375D01*
X0017610Y0020850D02*
Y0020204D01*
X0018600Y0020850D02*
Y0020183D01*
X0019950Y0020450D02*
Y0020437D01*
X0019860Y0020540D02*
Y0020417D01*
X0019770Y0020630D02*
Y0020375D01*
X0019680Y0020720D02*
Y0020302D01*
X0018510Y0020850D02*
Y0019640D01*
X0015381Y0019500D02*
X0014169D01*
X0016840Y0020440D02*
X0016229D01*
X0015025Y0019770D02*
X0014775D01*
X0024990Y0018000D02*
Y0004450D01*
X0027950Y0017790D02*
X0011598D01*
X0009870Y0020850D02*
Y0020715D01*
X0027950Y0016440D02*
X0008059D01*
X0004290Y0020850D02*
Y0019265D01*
X0005596Y0009780D02*
X0005489D01*
X0008061Y0018330D02*
X0007973D01*
X0011111Y0018690D02*
X0009856D01*
X0027950Y0013380D02*
X0026490D01*
X0012570Y0020850D02*
Y0020715D01*
X0007850Y0018285D02*
X0007772D01*
X0021570Y0002220D02*
X0000150D01*
X0008250Y0018606D02*
Y0018464D01*
X0011850Y0017817D02*
Y0015250D01*
X0011580Y0019110D02*
Y0018752D01*
X0008003Y0018240D02*
X0007797D01*
X0008162Y0018420D02*
X0008064D01*
X0007967Y0017970D02*
X0007833D01*
X0007994Y0017880D02*
X0007806D01*
X0012660Y0019110D02*
Y0018690D01*
X0014010Y0020850D02*
Y0020715D01*
X0007800Y0017867D02*
Y0017490D01*
X0007710Y0017738D02*
Y0017490D01*
X0007350Y0017613D02*
Y0017490D01*
X0007985Y0016904D02*
X0007840Y0016759D01*
X0008178Y0017430D02*
X0007840D01*
X0008069Y0017340D02*
X0007840D01*
X0027950Y0016980D02*
X0008834D01*
X0007974Y0017160D02*
X0007840D01*
X0007966Y0016980D02*
X0007840D01*
X0007980Y0016919D02*
Y0016899D01*
X0007260Y0020850D02*
Y0019865D01*
X0007971Y0018150D02*
X0007828D01*
X0008008Y0017250D02*
X0007840D01*
X0008790Y0017846D02*
Y0017254D01*
X0008700Y0017728D02*
Y0017372D01*
X0008610Y0017663D02*
Y0017437D01*
X0008520Y0017627D02*
Y0017473D01*
X0008430Y0017611D02*
Y0017489D01*
X0008340Y0017614D02*
Y0017486D01*
X0008250Y0017636D02*
Y0017464D01*
X0008160Y0017681D02*
Y0017419D01*
X0007980Y0017919D02*
Y0017181D01*
X0010950Y0020850D02*
Y0020715D01*
X0027950Y0017430D02*
X0008622D01*
X0027950Y0017340D02*
X0008731D01*
X0027950Y0017250D02*
X0008792D01*
X0027950Y0017160D02*
X0008826D01*
X0027950Y0017070D02*
X0008840D01*
X0008070Y0017759D02*
Y0017341D01*
X0008790Y0018610D02*
Y0018254D01*
X0008700Y0018610D02*
Y0018372D01*
X0008610Y0018610D02*
Y0018437D01*
X0008520Y0018610D02*
Y0018473D01*
X0011060Y0018420D02*
X0008638D01*
X0008340Y0018610D02*
Y0018486D01*
X0011066Y0018600D02*
X0008244D01*
X0006811Y0019680D02*
X0006722D01*
X0001360Y0017790D02*
X0000150D01*
X0011131Y0018240D02*
X0008797D01*
X0008160Y0018516D02*
Y0018419D01*
X0007260Y0016360D02*
Y0015250D01*
X0007890Y0018289D02*
Y0016809D01*
X0011062Y0018150D02*
X0008828D01*
X0011031Y0018060D02*
X0008840D01*
X0011026Y0017970D02*
X0008833D01*
X0027950Y0009240D02*
X0006392D01*
X0011040Y0019747D02*
Y0019665D01*
X0007980Y0018336D02*
Y0018181D01*
X0027950Y0017880D02*
X0011949D01*
X0009870Y0020335D02*
Y0019665D01*
X0011850Y0020850D02*
Y0020715D01*
X0008430Y0020850D02*
Y0020424D01*
X0027950Y0017520D02*
X0007199D01*
X0005100Y0007631D02*
Y0007428D01*
X0001360Y0017160D02*
X0000150D01*
X0005471Y0007260D02*
X0005355D01*
X0004301Y0008430D02*
X0000150D01*
X0005280Y0009451D02*
Y0008989D01*
X0005190Y0007541D02*
Y0007397D01*
X0005545Y0008070D02*
X0005199D01*
X0005301Y0008430D02*
X0004839D01*
X0005730Y0000258D02*
Y0000150D01*
X0005550Y0006905D02*
Y0001649D01*
X0005280Y0006661D02*
Y0001325D01*
X0005550Y0007181D02*
Y0007095D01*
X0004650Y0008081D02*
Y0007267D01*
X0004645Y0007260D02*
X0004355D01*
X0004567Y0007080D02*
X0004433D01*
X0004571Y0006900D02*
X0004428D01*
X0009440Y0018780D02*
X0008840D01*
X0014640Y0019631D02*
Y0018690D01*
X0014550Y0019586D02*
Y0018690D01*
X0010230Y0019110D02*
Y0015250D01*
X0011940Y0019110D02*
Y0018690D01*
X0012570Y0019110D02*
Y0018690D01*
X0014010Y0019341D02*
Y0018690D01*
X0012930Y0020850D02*
Y0020715D01*
X0013470Y0019110D02*
Y0018690D01*
X0005550Y0010905D02*
Y0010719D01*
X0005015Y0010716D02*
X0005569Y0010162D01*
X0005370Y0010361D02*
Y0009899D01*
X0005460Y0008271D02*
Y0007809D01*
X0005812Y0011580D02*
X0005315D01*
X0012750Y0019110D02*
Y0018690D01*
X0005730Y0009628D02*
Y0009539D01*
X0013200Y0019110D02*
Y0018690D01*
X0005370Y0008361D02*
Y0007899D01*
X0005501Y0010230D02*
X0005039D01*
X0006000Y0009540D02*
Y0009460D01*
X0004740Y0008991D02*
Y0008529D01*
X0005910Y0010549D02*
Y0010451D01*
X0004135Y0010230D02*
X0000150D01*
X0005542Y0009960D02*
X0005309D01*
X0005559Y0009870D02*
X0005399D01*
X0004740Y0009991D02*
X0005569Y0009162D01*
X0004951Y0009780D02*
X0004740D01*
X0004650Y0018710D02*
Y0017074D01*
X0013200Y0018110D02*
Y0015634D01*
X0005431Y0012300D02*
X0005315D01*
X0005542Y0011040D02*
X0005315D01*
X0027950Y0016080D02*
X0005849D01*
X0005690Y0014660D02*
Y0014340D01*
X0009600Y0018666D02*
Y0015250D01*
X0009690Y0018650D02*
Y0015250D01*
X0009780Y0018660D02*
Y0015250D01*
X0013020Y0015078D02*
Y0001440D01*
X0012581Y0015360D02*
X0006286D01*
X0005727Y0014370D02*
X0005690D01*
X0005866Y0013560D02*
X0005690D01*
X0009870Y0018698D02*
Y0015250D01*
X0005773Y0011400D02*
X0005315D01*
X0005660Y0011310D02*
X0005315D01*
X0009960Y0018780D02*
Y0015250D01*
X0010050Y0019056D02*
Y0015250D01*
X0027950Y0012300D02*
X0006612D01*
X0005141Y0010590D02*
X0005015D01*
X0007133Y0017700D02*
X0007059D01*
X0004135Y0010590D02*
X0000150D01*
X0005559Y0011130D02*
X0005315D01*
X0010410Y0019110D02*
Y0015250D01*
X0010500Y0019110D02*
Y0015250D01*
X0010590Y0019110D02*
Y0015250D01*
X0010680Y0019110D02*
Y0015250D01*
X0010770Y0019110D02*
Y0015250D01*
X0012300Y0018110D02*
Y0015250D01*
X0009150Y0019285D02*
Y0015250D01*
X0005370Y0012361D02*
Y0010899D01*
X0005544Y0011940D02*
X0005315D01*
X0005565Y0011850D02*
X0005315D01*
X0005596Y0011220D02*
X0005315D01*
X0005521Y0012210D02*
X0005315D01*
X0005543Y0010950D02*
X0005319D01*
X0005562Y0010860D02*
X0005409D01*
X0005602Y0010770D02*
X0005499D01*
X0005051Y0010680D02*
X0005015D01*
X0005315Y0010954D02*
X0005838Y0010431D01*
X0005460Y0012271D02*
Y0010809D01*
X0019320Y0019698D02*
Y0019640D01*
X0014190Y0019521D02*
Y0018690D01*
X0008880Y0019285D02*
Y0015250D01*
X0005730Y0010628D02*
Y0010539D01*
X0019698Y0019680D02*
X0019302D01*
X0005679Y0011670D02*
X0005315D01*
X0005550Y0010181D02*
Y0010095D01*
X0027950Y0007080D02*
X0006453D01*
X0005730Y0007628D02*
Y0007539D01*
X0004920Y0009811D02*
Y0009349D01*
X0005561Y0007170D02*
X0005406D01*
X0013380Y0019110D02*
Y0018690D01*
X0004560Y0008171D02*
Y0000150D01*
X0005460Y0009271D02*
Y0008809D01*
X0005190Y0009541D02*
Y0009079D01*
X0005010Y0009721D02*
Y0009259D01*
X0004135Y0009330D02*
X0000150D01*
X0005550Y0008905D02*
Y0008719D01*
X0004135Y0009240D02*
X0000150D01*
X0005010Y0008721D02*
Y0008259D01*
X0004920Y0008811D02*
Y0008349D01*
X0027950Y0008340D02*
X0006310D01*
X0027950Y0010230D02*
X0006398D01*
X0004135Y0009960D02*
X0000150D01*
X0027950Y0008160D02*
X0006431D01*
X0027950Y0007440D02*
X0006134D01*
X0004135Y0008790D02*
X0000150D01*
X0016080Y0018910D02*
Y0001433D01*
X0005221Y0009510D02*
X0004759D01*
X0002119Y0018250D02*
Y0017560D01*
X0005730Y0008628D02*
Y0008539D01*
X0005550Y0009905D02*
Y0009719D01*
Y0009181D02*
Y0009095D01*
X0005100Y0008631D02*
Y0008169D01*
X0005190Y0008541D02*
Y0008079D01*
X0005010Y0010721D02*
Y0010259D01*
X0005100Y0010631D02*
Y0010169D01*
X0005190Y0010541D02*
Y0010079D01*
X0005460Y0010271D02*
Y0009809D01*
X0005608Y0011760D02*
X0005315D01*
X0021390Y0018910D02*
Y0002040D01*
X0017070Y0020850D02*
Y0019640D01*
X0021620Y0018780D02*
X0015924D01*
X0021530Y0018870D02*
X0016014D01*
X0017340Y0020850D02*
Y0019640D01*
X0021800Y0018600D02*
X0015744D01*
X0017520Y0020850D02*
Y0019640D01*
X0017610Y0019796D02*
Y0019640D01*
X0018330Y0019709D02*
Y0019640D01*
X0018420Y0019869D02*
Y0019640D01*
X0006180Y0011577D02*
Y0011449D01*
X0025292Y0013650D02*
X0006298D01*
X0005741Y0013380D02*
X0005690D01*
X0006726Y0016530D02*
X0005965D01*
X0008610Y0020850D02*
Y0020604D01*
X0009240Y0020850D02*
Y0020715D01*
X0006451Y0019320D02*
X0006402D01*
X0006900Y0020850D02*
Y0019769D01*
X0004200Y0020850D02*
Y0019265D01*
X0003930Y0020850D02*
Y0019265D01*
X0007956Y0019950D02*
X0006788D01*
X0015990Y0020850D02*
Y0020676D01*
X0021980Y0018420D02*
X0015564D01*
X0019590Y0000240D02*
X0006216D01*
X0002310Y0020850D02*
Y0019261D01*
X0005640Y0019297D02*
Y0019265D01*
X0005550Y0019351D02*
Y0019265D01*
X0002670Y0020850D02*
Y0019265D01*
X0005460Y0019423D02*
Y0019265D01*
X0002580Y0020850D02*
Y0019265D01*
X0005190Y0020850D02*
Y0019265D01*
X0005100Y0020850D02*
Y0019265D01*
X0005010Y0020850D02*
Y0019265D01*
X0002040Y0020850D02*
Y0019034D01*
X0004830Y0020850D02*
Y0019265D01*
X0004740Y0020850D02*
Y0019265D01*
X0003840Y0020850D02*
Y0019265D01*
X0003750Y0020850D02*
Y0019265D01*
X0003660Y0020850D02*
Y0019265D01*
X0003570Y0020850D02*
Y0019265D01*
X0003480Y0020850D02*
Y0019265D01*
X0003390Y0020850D02*
Y0019265D01*
X0003300Y0020850D02*
Y0019265D01*
X0003210Y0020850D02*
Y0019265D01*
X0003120Y0020850D02*
Y0019265D01*
X0013920Y0019251D02*
Y0018690D01*
X0008496Y0020490D02*
X0006620D01*
X0004135Y0016046D02*
Y0008675D01*
X0001966Y0018960D02*
X0000150D01*
X0008586Y0020580D02*
X0006536D01*
X0012030Y0020850D02*
Y0020715D01*
X0008840Y0019285D02*
Y0018610D01*
X0006861Y0018780D02*
X0006724D01*
X0006501Y0018420D02*
X0002289D01*
X0004650Y0020850D02*
Y0019265D01*
X0005460Y0018710D02*
Y0017555D01*
X0006235Y0017610D02*
X0006071D01*
X0006961Y0019017D02*
X0006711Y0018768D01*
X0006235Y0017700D02*
X0006009D01*
X0027950Y0016890D02*
X0008810D01*
X0013700Y0019110D02*
X0010104D01*
X0008700Y0020850D02*
Y0020687D01*
X0011850Y0019110D02*
Y0018690D01*
X0011760Y0019110D02*
Y0018690D01*
X0002040Y0016485D02*
Y0000150D01*
X0005212Y0019950D02*
X0000150D01*
X0004931Y0007800D02*
X0000150D01*
X0011400Y0020850D02*
Y0020715D01*
X0011115Y0019665D02*
X0010685D01*
X0009060Y0020850D02*
Y0020715D01*
X0010115Y0019665D02*
X0009685D01*
X0006450Y0018710D02*
Y0018369D01*
X0012930Y0019110D02*
Y0018690D01*
X0008677Y0020670D02*
X0006419D01*
X0015111Y0019230D02*
X0013899D01*
X0011490Y0019110D02*
Y0018804D01*
X0013830Y0019161D02*
Y0018690D01*
X0016170Y0020850D02*
Y0020499D01*
X0011050Y0018510D02*
X0008154D01*
X0006180Y0018710D02*
Y0015423D01*
X0010320Y0014750D02*
Y0000150D01*
X0010050Y0019733D02*
Y0019665D01*
X0009420Y0019285D02*
Y0019140D01*
X0010115Y0020335D02*
X0009685D01*
X0027950Y0008070D02*
X0006455D01*
X0009384Y0019050D02*
X0008840D01*
X0006720Y0019675D02*
Y0019589D01*
X0006000Y0008540D02*
Y0008460D01*
X0010140Y0019110D02*
Y0015250D01*
X0009375Y0018960D02*
X0008840D01*
X0005121Y0008610D02*
X0004659D01*
X0005241Y0020220D02*
X0000150D01*
X0013830Y0000594D02*
Y0000150D01*
X0013740Y0000645D02*
Y0000150D01*
X0003660Y0016521D02*
Y0007279D01*
X0013740Y0019114D02*
Y0018690D01*
X0012390Y0018110D02*
Y0015250D01*
X0009600Y0020850D02*
Y0020715D01*
X0013650Y0018110D02*
Y0001267D01*
X0012654Y0015450D02*
X0006095D01*
X0013005Y0015076D02*
X0012753Y0014825D01*
X0004135Y0015720D02*
X0000150D01*
X0027950Y0015630D02*
X0013205D01*
X0027950Y0015540D02*
X0013268D01*
X0027950Y0015090D02*
X0013073D01*
X0015000Y0019817D02*
Y0019175D01*
X0015201Y0019320D02*
X0013989D01*
X0005550Y0012181D02*
Y0012095D01*
X0014820Y0020335D02*
Y0020131D01*
X0014910Y0020850D02*
Y0020715D01*
X0027950Y0017700D02*
X0011475D01*
X0015180Y0018110D02*
Y0001401D01*
X0006000Y0017240D02*
Y0015460D01*
X0004200Y0018710D02*
Y0016519D01*
X0006090Y0018710D02*
Y0017555D01*
X0006000Y0018710D02*
Y0017709D01*
X0005910Y0018710D02*
Y0017771D01*
X0005453Y0017520D02*
X0002164D01*
X0006278Y0016980D02*
X0005965D01*
X0006456Y0016800D02*
X0005965D01*
X0005909Y0016141D02*
X0005690Y0015921D01*
X0006546Y0016710D02*
X0005965D01*
X0005640Y0018710D02*
Y0017771D01*
X0002220Y0017151D02*
Y0016865D01*
X0002056Y0019050D02*
X0000150D01*
X0003300Y0017160D02*
X0002224D01*
X0005280Y0020850D02*
Y0020325D01*
X0005550Y0017240D02*
Y0016969D01*
X0004931Y0017340D02*
X0002251D01*
X0004761Y0008970D02*
X0004515D01*
X0004862Y0017250D02*
X0002251D01*
X0003210Y0016845D02*
Y0007440D01*
X0004740Y0018710D02*
Y0017114D01*
X0003840Y0018710D02*
Y0017005D01*
X0003750Y0018710D02*
Y0017159D01*
X0003660Y0018710D02*
Y0017221D01*
X0003570Y0018710D02*
Y0017247D01*
X0003480Y0018710D02*
Y0017247D01*
X0005010Y0018710D02*
Y0017393D01*
X0012471Y0015250D02*
X0006386D01*
X0006366Y0016890D02*
X0005965D01*
X0003390Y0018710D02*
Y0017221D01*
X0003210Y0018710D02*
Y0017005D01*
X0002670Y0018710D02*
Y0016927D01*
X0003120Y0018710D02*
Y0016888D01*
X0003205Y0016980D02*
X0002987D01*
X0003390Y0016629D02*
Y0007440D01*
X0003030Y0018710D02*
Y0016961D01*
X0004830Y0018710D02*
Y0017157D01*
X0002611Y0016485D02*
X0001950D01*
X0006237Y0017070D02*
X0005965D01*
X0006360Y0018710D02*
Y0018279D01*
X0004500Y0016800D02*
X0003919D01*
X0004020Y0020850D02*
Y0019265D01*
X0004011Y0016170D02*
X0000150D01*
X0005550Y0018710D02*
Y0017709D01*
X0002580Y0006560D02*
Y0000150D01*
X0005784Y0020760D02*
X0000150D01*
X0005820Y0018710D02*
Y0017797D01*
X0005965Y0017211D02*
Y0016275D01*
X0027950Y0015990D02*
X0005759D01*
X0014100Y0019431D02*
Y0018690D01*
X0002580Y0018710D02*
Y0016865D01*
X0002850Y0018710D02*
Y0016999D01*
X0011130Y0017761D02*
Y0015250D01*
X0012210Y0018110D02*
Y0015250D01*
X0011940Y0017871D02*
Y0015250D01*
X0012840Y0019110D02*
Y0018690D01*
X0013020Y0018110D02*
Y0015722D01*
X0007530Y0020850D02*
Y0019865D01*
X0011130Y0018286D02*
Y0018239D01*
X0015175Y0018110D02*
X0012179D01*
X0013020Y0019110D02*
Y0018690D01*
X0014717D02*
X0011639D01*
X0011400Y0019110D02*
Y0018824D01*
X0015360Y0018216D02*
Y0001253D01*
X0012120Y0018051D02*
Y0015250D01*
X0011040Y0019110D02*
Y0018098D01*
X0027950Y0010590D02*
X0006209D01*
X0005550Y0007905D02*
Y0007719D01*
X0006450Y0007905D02*
Y0007095D01*
X0006360Y0007714D02*
Y0007286D01*
X0006270Y0007628D02*
Y0007372D01*
X0006180Y0007577D02*
Y0007423D01*
X0006090Y0007549D02*
Y0007451D01*
X0004380Y0008351D02*
Y0007222D01*
X0005727Y0006630D02*
X0005238D01*
X0004200Y0008531D02*
Y0007392D01*
X0005820Y0007577D02*
Y0007449D01*
X0005910Y0007549D02*
Y0007451D01*
X0004481Y0008250D02*
X0000150D01*
X0027950Y0007350D02*
X0006298D01*
X0004571Y0008160D02*
X0000150D01*
X0005547Y0007080D02*
X0005433D01*
X0004191Y0008541D02*
X0005569Y0007162D01*
X0004135Y0009510D02*
X0000150D01*
X0005640Y0008714D02*
Y0008629D01*
X0027950Y0007260D02*
X0006379D01*
X0006450Y0008905D02*
Y0008095D01*
X0006360Y0008714D02*
Y0008286D01*
X0006270Y0008628D02*
Y0008372D01*
X0006180Y0008577D02*
Y0008423D01*
X0006090Y0008549D02*
Y0008451D01*
X0004920Y0007811D02*
Y0007433D01*
X0005910Y0008549D02*
Y0008451D01*
X0004135Y0009150D02*
X0000150D01*
X0004661Y0008070D02*
X0000150D01*
X0004941Y0008790D02*
X0004515D01*
X0002560Y0007080D02*
X0000150D01*
X0027950Y0008790D02*
X0006409D01*
X0027950Y0008610D02*
X0006244D01*
X0027950Y0007980D02*
X0006460D01*
X0027950Y0007890D02*
X0006447D01*
X0027950Y0007800D02*
X0006414D01*
X0005640Y0009714D02*
Y0009629D01*
X0005401Y0009330D02*
X0004939D01*
X0006450Y0009905D02*
Y0009095D01*
X0006360Y0009714D02*
Y0009286D01*
X0006270Y0009628D02*
Y0009372D01*
X0006180Y0009577D02*
Y0009423D01*
X0006090Y0009549D02*
Y0009451D01*
X0005550Y0008181D02*
Y0008095D01*
X0004650Y0009081D02*
Y0008619D01*
X0027950Y0008250D02*
X0006386D01*
X0027950Y0009420D02*
X0006188D01*
X0005211Y0008520D02*
X0004749D01*
X0004146Y0008610D02*
X0000150D01*
X0004851Y0008880D02*
X0004515D01*
X0004751Y0007980D02*
X0000150D01*
X0004135Y0008700D02*
X0000150D01*
X0027950Y0008880D02*
X0006444D01*
X0004841Y0007890D02*
X0000150D01*
X0027950Y0009690D02*
X0006340D01*
X0005311Y0009420D02*
X0004849D01*
X0006450Y0010905D02*
Y0010095D01*
X0006360Y0010714D02*
Y0010286D01*
X0006270Y0010628D02*
Y0010372D01*
X0006180Y0010577D02*
Y0010423D01*
X0006090Y0010549D02*
Y0010451D01*
X0005111Y0007620D02*
X0000150D01*
X0005543Y0010050D02*
X0005219D01*
X0027950Y0010410D02*
X0006209D01*
X0005015Y0010254D02*
X0005838Y0009431D01*
X0004135Y0009780D02*
X0000150D01*
X0027950Y0010140D02*
X0006438D01*
X0004211Y0008520D02*
X0000150D01*
X0004135Y0008970D02*
X0000150D01*
X0027950Y0009870D02*
X0006441D01*
X0004135Y0008880D02*
X0000150D01*
X0005190Y0006603D02*
Y0000150D01*
X0006540Y0011271D02*
Y0001577D01*
X0005315Y0012416D02*
X0005569Y0012162D01*
X0006221Y0011490D02*
X0005315D01*
X0005556Y0012120D02*
X0005315D01*
X0006584Y0011316D02*
X0006431Y0011162D01*
X0006090Y0011549D02*
Y0011451D01*
X0006000Y0011540D02*
Y0011460D01*
X0005640Y0011714D02*
Y0011286D01*
X0004135Y0013740D02*
X0000150D01*
X0006260Y0011529D02*
X0006162Y0011431D01*
X0006771Y0018690D02*
X0002559D01*
X0006260Y0011620D02*
Y0011529D01*
X0027950Y0011220D02*
X0006489D01*
X0005640Y0010714D02*
Y0010629D01*
X0004135Y0010770D02*
X0000150D01*
X0027950Y0010950D02*
X0006457D01*
X0004135Y0010680D02*
X0000150D01*
G01X0006000Y0007540D02*
G03X0006460Y0008000I0000000J0000460D01*
G03X0006000Y0008460I0000460J0000000D01*
G01X0005540Y0009000D02*
G03X0006000Y0008540I0000460J0000000D01*
G03X0006460Y0009000I0000000J0000460D01*
G03X0006000Y0009460I0000460J0000000D01*
G01X0005540Y0010000D02*
G03X0006000Y0009540I0000460J0000000D01*
G03X0006460Y0010000I0000000J0000460D01*
G03X0006000Y0010460I0000460J0000000D01*
G01X0005540Y0011000D02*
G03X0006000Y0010540I0000460J0000000D01*
G03X0006460Y0011000I0000000J0000460D01*
G01X0006000Y0011460D02*
G03X0005540Y0011000I0000000J0000460D01*
Y0012000D02*
G03X0006000Y0011540I0000460J0000000D01*
G01X0006460Y0013000D02*
G03X0006000Y0013460I0000460J0000000D01*
Y0013540D02*
G03X0006460Y0014000I0000000J0000460D01*
G03X0006000Y0014460I0000460J0000000D01*
Y0013460D02*
G03X0005690Y0013340I0000000J0000460D01*
Y0013660D02*
G03X0006000Y0013540I0000310J0000340D01*
G01X0015400Y0019560D02*
G03X0015443Y0019562I0000000J0000440D01*
G01X0006000Y0014460D02*
G03X0005690Y0014340I0000000J0000460D01*
G01X0017560Y0001000D02*
G03X0018000Y0000560I0000440J0000000D01*
G03X0018440Y0001000I0000000J0000440D01*
G03X0018000Y0001440I0000440J0000000D01*
G03X0017560Y0001000I0000000J0000440D01*
G01X0016560D02*
G03X0017000Y0000560I0000440J0000000D01*
G03X0017440Y0001000I0000000J0000440D01*
G03X0017000Y0001440I0000440J0000000D01*
G03X0016560Y0001000I0000000J0000440D01*
G01X0015560D02*
G03X0016000Y0000560I0000440J0000000D01*
G03X0016440Y0001000I0000000J0000440D01*
G03X0016000Y0001440I0000440J0000000D01*
G03X0015560Y0001000I0000000J0000440D01*
G01X0014560D02*
G03X0015000Y0000560I0000440J0000000D01*
G03X0015440Y0001000I0000000J0000440D01*
G03X0015000Y0001440I0000440J0000000D01*
G03X0014560Y0001000I0000000J0000440D01*
G01X0013560D02*
G03X0014000Y0000560I0000440J0000000D01*
G03X0014440Y0001000I0000000J0000440D01*
G03X0014000Y0001440I0000440J0000000D01*
G03X0013560Y0001000I0000000J0000440D01*
G01X0009602Y0019285D02*
G03X0009375Y0018975I0000098J0000310D01*
G01X0009685Y0019665D02*
G03X0009840Y0020000I0000285J0000335D01*
G03X0009685Y0020335I0000440J0000000D01*
G01X0009960Y0020000D02*
G03X0010115Y0019665I0000440J0000000D01*
G01X0010685D02*
G03X0010840Y0020000I0000285J0000335D01*
G03X0010685Y0020335I0000440J0000000D01*
G01X0010115D02*
G03X0009960Y0020000I0000285J0000335D01*
G01X0011115Y0020335D02*
G03X0010960Y0020000I0000285J0000335D01*
G01X0014400Y0019560D02*
G03X0014840Y0020000I0000000J0000440D01*
G01X0014960D02*
G03X0015400Y0019560I0000440J0000000D01*
G01X0014840Y0020000D02*
G03X0014685Y0020335I0000440J0000000D01*
G01X0018440Y0020000D02*
G03X0018000Y0020440I0000440J0000000D01*
G03X0017560Y0020000I0000000J0000440D01*
G03X0017747Y0019640I0000440J0000000D01*
G01X0018253D02*
G03X0018440Y0020000I0000253J0000360D01*
G01X0019440D02*
G03X0019000Y0020440I0000440J0000000D01*
G03X0018560Y0020000I0000000J0000440D01*
G03X0018747Y0019640I0000440J0000000D01*
G01X0019253D02*
G03X0019440Y0020000I0000253J0000360D01*
G01X0019560D02*
G03X0019747Y0019640I0000440J0000000D01*
G01X0019962Y0020438D02*
G03X0019560Y0020000I0000038J0000438D01*
G01X0010960D02*
G03X0011115Y0019665I0000440J0000000D01*
G01X0006575Y0018710D02*
G03X0006709Y0018766I0000000J0000190D01*
G01X0007400Y0017610D02*
G03X0007840Y0018050I0000000J0000440D01*
G01X0008400Y0016610D02*
G03X0008840Y0017050I0000000J0000440D01*
G03X0008400Y0017490I0000440J0000000D01*
G03X0007960Y0017050I0000000J0000440D01*
Y0018050D02*
G03X0008400Y0017610I0000440J0000000D01*
G03X0008840Y0018050I0000000J0000440D01*
G03X0008400Y0018490I0000440J0000000D01*
G03X0007960Y0018050I0000000J0000440D01*
G01X0004560Y0007000D02*
G03X0005000Y0006560I0000440J0000000D01*
G03X0005440Y0007000I0000000J0000440D01*
G03X0005000Y0007440I0000440J0000000D01*
G03X0004560Y0007000I0000000J0000440D01*
G01X0003560D02*
G03X0004000Y0006560I0000440J0000000D01*
G03X0004440Y0007000I0000000J0000440D01*
G03X0004000Y0007440I0000440J0000000D01*
G03X0003560Y0007000I0000000J0000440D01*
G01X0005210Y0001000D02*
G03X0006000Y0000210I0000790J0000000D01*
G03X0006790Y0001000I0000000J0000790D01*
G03X0006000Y0001790I0000790J0000000D01*
G03X0005210Y0001000I0000000J0000790D01*
G01X0006790Y0020000D02*
G03X0006000Y0020790I0000790J0000000D01*
G03X0005210Y0020000I0000000J0000790D01*
G01X0025210Y0014000D02*
G03X0026000Y0013210I0000790J0000000D01*
G03X0026790Y0014000I0000000J0000790D01*
G03X0026000Y0014790I0000790J0000000D01*
G03X0025210Y0014000I0000000J0000790D01*
G01X0012975Y0015725D02*
G03X0012651Y0015430I0000000J0000325D01*
G01X0002611Y0016485D02*
G03X0002875Y0016350I0000264J0000190D01*
G01X0006841Y0016416D02*
G03X0006975Y0016360I0000134J0000134D01*
G01X0011155Y0018260D02*
G03X0011025Y0018000I0000195J0000260D01*
G01X0005569Y0010162D02*
G03X0005540Y0010000I0000431J0000162D01*
G01X0007075Y0019865D02*
G03X0006941Y0019809I0000000J0000190D01*
G01X0005210Y0020000D02*
G03X0005710Y0019265I0000790J0000000D01*
G01X0003846Y0016873D02*
G03X0003850Y0016925I0000321J0000052D01*
G01X0003525Y0016600D02*
G03X0003577Y0016604I0000000J0000325D01*
G01X0005569Y0007162D02*
G03X0005540Y0007000I0000431J0000162D01*
G01X0004135Y0008675D02*
G03X0004191Y0008541I0000190J0000000D01*
G01X0004500Y0016800D02*
G03X0004504Y0016749I0000325J0000000D01*
G01X0001360Y0017075D02*
G03X0001416Y0016941I0000190J0000000D01*
G01X0007850Y0018285D02*
G03X0007984Y0018341I0000000J0000190D01*
G01X0002254Y0017296D02*
G03X0002119Y0017560I0000325J0000000D01*
G01X0007039Y0017680D02*
G03X0007090Y0017737I0000214J0000245D01*
G01X0007850Y0018285D02*
G03X0007984Y0018341I0000000J0000190D01*
G01X0007840Y0018050D02*
G03X0007772Y0018285I0000440J0000000D01*
G01X0015175Y0018110D02*
G03X0015309Y0018166I0000000J0000190D01*
G01X0011800Y0017810D02*
G03X0011934Y0017866I0000000J0000190D01*
G01X0014254Y0019585D02*
G03X0014400Y0019560I0000146J0000415D01*
G01X0005471Y0017048D02*
G03X0005475Y0017100I0000321J0000052D01*
G01X0012575Y0014750D02*
G03X0012752Y0014823I0000000J0000250D01*
G01X0006640Y0012200D02*
G03X0006584Y0012334I0000190J0000000D01*
Y0011316D02*
G03X0006640Y0011450I0000134J0000134D01*
Y0012200D02*
G03X0006584Y0012334I0000190J0000000D01*
G01X0006000Y0009460D02*
G03X0005838Y0009431I0000000J0000460D01*
G01X0005450Y0017475D02*
G03X0005585Y0017211I0000325J0000000D01*
G01X0005909Y0016141D02*
G03X0005965Y0016275I0000134J0000134D01*
Y0017211D02*
G03X0006100Y0017475I0000190J0000264D01*
G01X0011800Y0017810D02*
G03X0011934Y0017866I0000000J0000190D01*
G01X0005569Y0012162D02*
G03X0005540Y0012000I0000431J0000162D01*
G01X0008800Y0020715D02*
G03X0008666Y0020659I0000000J0000190D01*
G01X0016009D02*
G03X0015875Y0020715I0000134J0000134D01*
G01X0007075Y0019865D02*
G03X0006941Y0019809I0000000J0000190D01*
G01X0002350Y0019265D02*
G03X0002216Y0019209I0000000J0000190D01*
G01X0001360Y0017075D02*
G03X0001416Y0016941I0000190J0000000D01*
Y0018409D02*
G03X0001360Y0018275I0000134J0000134D01*
G01X0001816Y0016541D02*
G03X0001950Y0016485I0000134J0000134D01*
G01X0001816Y0016541D02*
G03X0001950Y0016485I0000134J0000134D01*
G01X0002350Y0019265D02*
G03X0002216Y0019209I0000000J0000190D01*
G01X0006000Y0008460D02*
G03X0005838Y0008431I0000000J0000460D01*
G01X0006291Y0018209D02*
G03X0006235Y0018075I0000134J0000134D01*
G01X0002875Y0017000D02*
G03X0002611Y0016865I0000000J0000325D01*
G01X0004135Y0008675D02*
G03X0004191Y0008541I0000190J0000000D01*
G01X0006575Y0018710D02*
G03X0006709Y0018766I0000000J0000190D01*
G01X0006235Y0017100D02*
G03X0006291Y0016966I0000190J0000000D01*
Y0018209D02*
G03X0006235Y0018075I0000134J0000134D01*
G01X0007900Y0016360D02*
G03X0008034Y0016416I0000000J0000190D01*
G01X0006841D02*
G03X0006975Y0016360I0000134J0000134D01*
G01X0006235Y0017100D02*
G03X0006291Y0016966I0000190J0000000D01*
G01X0006000Y0007460D02*
G03X0005838Y0007431I0000000J0000460D01*
G01X0013700Y0019110D02*
G03X0013834Y0019166I0000000J0000190D01*
G01X0008800Y0020715D02*
G03X0008666Y0020659I0000000J0000190D01*
G01X0009375Y0018975D02*
G03X0009700Y0018650I0000325J0000000D01*
G03X0010025Y0018975I0000000J0000325D01*
G01X0012575Y0014750D02*
G03X0012752Y0014823I0000000J0000250D01*
G01X0013300Y0015400D02*
G03X0012975Y0015725I0000325J0000000D01*
G01X0015000Y0019175D02*
G03X0014675Y0018850I0000000J0000325D01*
G01X0006100Y0017475D02*
G03X0005775Y0017800I0000325J0000000D01*
G03X0005450Y0017475I0000000J0000325D01*
G01X0005475Y0017100D02*
G03X0005150Y0017425I0000325J0000000D01*
G01X0004825Y0017125D02*
G03X0004500Y0016800I0000000J0000325D01*
G01X0003200Y0016925D02*
G03X0003525Y0016600I0000325J0000000D01*
G01X0003850Y0016925D02*
G03X0003525Y0017250I0000325J0000000D01*
G03X0003200Y0016925I0000000J0000325D01*
G01X0002875Y0016350D02*
G03X0003200Y0016675I0000000J0000325D01*
G03X0002875Y0017000I0000325J0000000D01*
G01X0001929Y0016971D02*
G03X0002254Y0017296I0000000J0000325D01*
G01X0011025Y0018000D02*
G03X0011350Y0017675I0000325J0000000D01*
G01X0011050Y0018500D02*
G03X0011155Y0018260I0000325J0000000D01*
G01X0011375Y0018825D02*
G03X0011050Y0018500I0000000J0000325D01*
G01X0005540Y0007000D02*
G03X0006000Y0006540I0000460J0000000D01*
G03X0006460Y0007000I0000000J0000460D01*
G03X0006000Y0007460I0000460J0000000D01*
G01X0005540Y0008000D02*
G03X0006000Y0007540I0000460J0000000D01*
G01X0006279Y0012634D02*
G03X0006460Y0013000I0000279J0000366D01*
G01X0006386Y0015250D02*
G03X0006000Y0015460I0000386J0000250D01*
Y0011540D02*
G03X0006260Y0011620I0000000J0000460D01*
G01X0006309Y0012609D02*
G03X0006279Y0012634I0000134J0000134D01*
G01X0006309Y0012609D02*
G03X0006279Y0012634I0000134J0000134D01*
G01X0010025Y0018975D02*
G03X0010021Y0019027I0000325J0000000D01*
G01X0006000Y0015460D02*
G03X0005690Y0015340I0000000J0000460D01*
G01X0006584Y0011316D02*
G03X0006640Y0011450I0000134J0000134D01*
G01X0005909Y0016141D02*
G03X0005965Y0016275I0000134J0000134D01*
G01X0005690Y0014660D02*
G03X0006000Y0014540I0000310J0000340D01*
G03X0006386Y0014750I0000000J0000460D01*
G01X0016009Y0020659D02*
G03X0015875Y0020715I0000134J0000134D01*
G01X0015175Y0018110D02*
G03X0015309Y0018166I0000000J0000190D01*
G01X0013005Y0015076D02*
G03X0013300Y0015400I0000030J0000324D01*
G01X0005569Y0009162D02*
G03X0005540Y0009000I0000431J0000162D01*
G01X0004504Y0016749D02*
G03X0004211Y0016508I0000021J0000324D01*
G01X0015115Y0020335D02*
G03X0014960Y0020000I0000285J0000335D01*
G01X0008254Y0016635D02*
G03X0008400Y0016610I0000146J0000415D01*
G01X0007090Y0017737D02*
G03X0007400Y0017609I0000310J0000313D01*
G01X0006000Y0010460D02*
G03X0005838Y0010431I0000000J0000460D01*
G01X0011350Y0017675D02*
G03X0011614Y0017810I0000000J0000325D01*
G01X0015052Y0019171D02*
G03X0015000Y0019175I0000052J0000321D01*
G01X0014675Y0018850D02*
G03X0014717Y0018690I0000325J0000000D01*
G01X0011639D02*
G03X0011375Y0018825I0000264J0000190D01*
G01X0007900Y0016360D02*
G03X0008034Y0016416I0000000J0000190D01*
G01X0006460Y0011000D02*
G03X0006431Y0011162I0000460J0000000D01*
G01X0006961Y0019017D02*
G03X0006985Y0018904I0000439J0000033D01*
G01X0013700Y0019110D02*
G03X0013834Y0019166I0000000J0000190D01*
G01X0007960Y0017050D02*
G03X0007985Y0016904I0000440J0000000D01*
G01X0001416Y0018409D02*
G03X0001360Y0018275I0000134J0000134D01*
G01X0006162Y0011431D02*
G03X0006000Y0011460I0000162J0000431D01*
G01X0006290Y0019265D02*
G03X0006790Y0020000I0000290J0000735D01*
G01X0005150Y0017425D02*
G03X0004829Y0017125I0000000J0000325D01*
G01X0005569Y0008162D02*
G03X0005540Y0008000I0000431J0000162D01*
G54D32*
G01X0008400Y0019050D02*
Y0019025D01*
X0007850Y0018475D01*
X0007125D01*
X0006825Y0018175D01*
Y0017925D01*
X0015000Y0018850D02*
X0015600Y0019450D01*
X0021450D01*
X0022000Y0020000D01*
X0025000D02*
X0024100Y0019100D01*
X0015975D01*
X0015175Y0018300D01*
X0012100D01*
X0011800Y0018000D01*
X0011350D01*
X0011375Y0018500D02*
X0015075D01*
X0015850Y0019275D01*
X0023275D01*
X0024000Y0020000D01*
X0006000Y0008000D02*
X0004550Y0009450D01*
Y0016400D01*
X0004525Y0016425D01*
X0006000Y0011000D02*
X0006450Y0011450D01*
Y0012200D01*
X0006175Y0012475D01*
X0005800D01*
X0005500Y0012775D01*
Y0016000D01*
X0005775Y0016275D01*
Y0017475D01*
X0005150Y0017100D02*
X0005500Y0016750D01*
Y0016300D01*
X0005300Y0016100D01*
Y0012700D01*
X0006000Y0012000D01*
X0016400Y0020000D02*
X0015875Y0020525D01*
X0008800D01*
X0007950Y0019675D01*
X0007075D01*
X0006475Y0019075D01*
X0002350D01*
X0001550Y0018275D01*
Y0017075D01*
X0001950Y0016675D01*
X0002875D01*
X0006825Y0017925D02*
Y0017625D01*
X0007400Y0017050D01*
X0004825Y0016800D02*
Y0010175D01*
X0006000Y0009000D01*
X0005125Y0016425D02*
Y0010875D01*
X0006000Y0010000D01*
Y0007000D02*
X0004325Y0008675D01*
Y0016125D01*
X0003525Y0016925D01*
X0012400Y0020000D02*
X0011875Y0019475D01*
X0007150D01*
X0006575Y0018900D01*
X0002500D01*
X0001929Y0018329D01*
Y0017296D01*
X0007400Y0019050D02*
X0006425Y0018075D01*
Y0017100D01*
X0006975Y0016550D01*
X0007900D01*
X0008400Y0017050D01*
X0009700Y0018975D02*
X0010025Y0019300D01*
X0013700D01*
X0014400Y0020000D01*
G54D35*
G01X0012975Y0015400D02*
X0012575Y0015000D01*
X0006000D01*
G54D10*
Y0001000D03*
Y0020000D03*
X0026000Y0003000D03*
Y0014000D03*
G54D18*
X0014000Y0001000D03*
X0015000D03*
X0016000D03*
X0017000D03*
X0018000D03*
X0015400Y0020000D03*
X0014400D03*
X0013400D03*
X0012400D03*
X0011400D03*
X0010400D03*
X0009400D03*
X0021000Y0001000D03*
X0022000D03*
X0023000D03*
X0024000D03*
X0025000D03*
X0024000Y0020000D03*
X0023000D03*
X0022000D03*
X0021000D03*
X0020000D03*
X0019000D03*
X0018000D03*
X0007400Y0018050D03*
Y0019050D03*
X0008400Y0018050D03*
Y0017050D03*
X0004000Y0007000D03*
X0005000D03*
G54D19*
X0013000Y0001000D03*
X0016400Y0020000D03*
X0020000Y0001000D03*
X0025000Y0020000D03*
X0007400Y0017050D03*
X0008400Y0019050D03*
X0003000Y0007000D03*
G54D22*
X0006000D03*
Y0008000D03*
Y0009000D03*
Y0010000D03*
Y0011000D03*
Y0012000D03*
Y0013000D03*
Y0014000D03*
Y0015000D03*
G54D28*
X0006550Y0015450D03*
X0006000Y0018200D03*
X0015800Y0017925D03*
X0004275Y0005500D03*
X0003800Y0004575D03*
X0003250Y0001075D03*
X0002275Y0001050D03*
X0002775Y0008100D03*
X0006825Y0017925D03*
X0009700Y0018975D03*
X0027150Y0008150D03*
X0027825Y0007325D03*
X0003250Y0018575D03*
X0005375Y0018550D03*
X0019175Y0007700D03*
X0004750Y0020100D03*
X0003750D03*
X0002750D03*
X0024825Y0017725D03*
X0023825D03*
X0022825D03*
X0021750Y0018100D03*
X0018750D03*
X0017750D03*
X0016750D03*
X0000750D03*
X0025250Y0017100D03*
X0024250D03*
X0023250D03*
X0022250D03*
X0019250D03*
X0016250D03*
X0025750Y0016100D03*
X0024750D03*
X0023750D03*
X0022750D03*
X0021750D03*
X0018750D03*
X0017750D03*
X0016750D03*
X0015750D03*
X0014850Y0017900D03*
X0010750Y0016100D03*
X0001750D03*
X0000750D03*
X0025250Y0015100D03*
X0024250D03*
X0023250D03*
X0022250D03*
X0021250D03*
X0020250D03*
X0019250D03*
X0018275Y0015275D03*
X0003250Y0015100D03*
X0002250D03*
X0001250D03*
X0024750Y0014100D03*
X0023750D03*
X0022750D03*
X0021750D03*
X0020750D03*
X0019750D03*
X0018750D03*
X0007750D03*
X0002750D03*
X0001750D03*
X0000750D03*
X0025250Y0013100D03*
X0024250D03*
X0023250D03*
X0022250D03*
X0021250D03*
X0020250D03*
X0019250D03*
X0018250D03*
X0025650Y0017725D03*
X0026125Y0017075D03*
X0026625Y0010100D03*
X0015250Y0017075D03*
X0014250D03*
X0007425Y0020050D03*
X0008250Y0013100D03*
X0007250D03*
X0003250D03*
X0002250D03*
X0001250D03*
X0025750Y0012100D03*
X0024750D03*
X0023750D03*
X0022750D03*
X0021750D03*
X0020750D03*
X0019750D03*
X0018750D03*
X0017875D03*
X0026625Y0016075D03*
X0027800Y0008150D03*
X0026125Y0009100D03*
X0014750Y0016075D03*
X0013700Y0016050D03*
X0013200Y0017625D03*
X0018825Y0002050D03*
X0008600Y0012100D03*
X0007750D03*
X0002775D03*
X0001750D03*
X0000750D03*
X0025250Y0011100D03*
X0024250D03*
X0023250D03*
X0022250D03*
X0021250D03*
X0020250D03*
X0019250D03*
X0018250D03*
X0026625Y0017725D03*
X0026125Y0015075D03*
X0026625Y0008100D03*
X0017200Y0015300D03*
X0016275Y0015325D03*
X0012400Y0016825D03*
X0011150Y0016800D03*
X0017875Y0002050D03*
X0008250Y0011100D03*
X0003250D03*
X0002250D03*
X0001250D03*
X0025750Y0010100D03*
X0024750D03*
X0023750D03*
X0022750D03*
X0021750D03*
X0020750D03*
X0019750D03*
X0018750D03*
X0017900D03*
X0026575Y0012075D03*
X0027125Y0007325D03*
X0026125Y0007100D03*
X0015175Y0015325D03*
X0014175D03*
X0014400Y0018825D03*
X0008125Y0006100D03*
X0008275Y0007175D03*
X0008600Y0010125D03*
X0007800Y0010100D03*
X0002750D03*
X0001750D03*
X0000750D03*
X0025250Y0009100D03*
X0024250D03*
X0021250D03*
X0020250D03*
X0019250D03*
X0026125Y0011075D03*
Y0013075D03*
X0015275Y0003125D03*
X0014800Y0004000D03*
X0013650Y0002075D03*
X0012650D03*
X0004700Y0003825D03*
X0005775Y0004600D03*
X0004775D03*
X0008250Y0009100D03*
X0003250D03*
X0001275Y0009125D03*
X0025750Y0008100D03*
X0024750D03*
X0023750D03*
X0021825Y0008250D03*
X0020825D03*
X0020000Y0007100D03*
X0019200D03*
X0012250Y0002950D03*
X0011250D03*
X0010250D03*
X0009250D03*
X0008250D03*
X0007800Y0008100D03*
X0001750D03*
X0000750D03*
X0025250Y0007100D03*
X0024250D03*
X0022125Y0006750D03*
X0021325Y0007250D03*
X0020700Y0006100D03*
X0019700D03*
X0007225Y0002950D03*
X0006225D03*
X0005225D03*
X0006725Y0003800D03*
X0005725D03*
X0002300Y0009100D03*
X0018750Y0006100D03*
X0025250Y0005100D03*
X0024250D03*
X0023250D03*
X0022250D03*
X0021250D03*
X0020250D03*
X0019250D03*
X0018250D03*
X0017250D03*
X0016250D03*
X0015250D03*
X0014250D03*
X0013250D03*
X0022750Y0004100D03*
X0021750D03*
X0020750D03*
X0019750D03*
X0018750D03*
X0017750D03*
X0016750D03*
X0015750D03*
X0003775Y0003825D03*
X0002775D03*
X0001775D03*
X0000775D03*
X0022075Y0003100D03*
X0021250D03*
X0020250D03*
X0017250D03*
X0016250D03*
X0004250D03*
X0002250Y0002975D03*
X0020750Y0002100D03*
X0019750D03*
X0016750D03*
X0015750D03*
X0011750D03*
X0010750D03*
X0009750D03*
X0008750D03*
X0007750D03*
X0006750D03*
X0005750D03*
X0004750D03*
X0003750D03*
X0002675D03*
X0001750D03*
X0000925Y0001025D03*
X0019250Y0001100D03*
X0012250D03*
X0011250D03*
X0010250D03*
X0009250D03*
X0008250D03*
X0007250D03*
X0012975Y0015400D03*
X0015000Y0018850D03*
X0005775Y0017475D03*
X0005125Y0016425D03*
X0005150Y0017100D03*
X0004825Y0016800D03*
X0004525Y0016425D03*
X0003525Y0016925D03*
X0002875Y0016675D03*
X0001929Y0017296D03*
X0011350Y0018000D03*
X0011375Y0018500D03*
M02*
