*
G04 Mass Parameters ***
*
G04 Image ***
*
%INC:\SVN\HWTREE\PROJECT\NANO_SHIELD\NANO_SHIELD_RX2.SSB*%
%ICAS*%
%MOIN*%
%IPPOS*%
%ASAXBY*%
G74*%FSLAN2X34Y34*%
*
G04 Aperture Definitions ***
*
%ADD10C,0.1280*%
%ADD11C,0.0400*%
%ADD12R,0.0394X0.0394*%
%ADD13R,0.0236X0.0354*%
%ADD14R,0.0354X0.0236*%
%ADD15R,0.0390X0.0320*%
%ADD16R,0.0390X0.0390*%
%ADD17R,0.0410X0.0870*%
%ADD18C,0.0580*%
%ADD19R,0.0580X0.0580*%
%ADD20R,0.0300X0.0150*%
%ADD21R,0.0150X0.0300*%
%ADD22C,0.0620*%
%ADD23R,0.1850X0.1350*%
%ADD24O,0.0334X0.0931*%
%ADD25O,0.0931X0.0334*%
%ADD26O,0.0470X0.0140*%
%ADD27R,0.0470X0.0140*%
%ADD28C,0.0350*%
%ADD29C,0.0010*%
%ADD30C,0.0100*%
%ADD31C,0.0150*%
%ADD32C,0.0080*%
%ADD33C,0.0500*%
%ADD34C,0.0170*%
%ADD35C,0.0200*%
%ADD36R,0.1200X0.1200*%
%ADD37R,0.0472X0.0472*%
%ADD38R,0.0275X0.0393*%
%ADD39R,0.0393X0.0275*%
%ADD40R,0.0450X0.0380*%
%ADD41R,0.0450X0.0450*%
%ADD42R,0.0410X0.0750*%
%ADD43R,0.0330X0.0220*%
%ADD44R,0.0220X0.0330*%
%ADD45C,0.0640*%
%ADD46R,0.0640X0.0640*%
%ADD47C,0.0670*%
%ADD48R,0.1900X0.1400*%
%ADD49O,0.0394X0.0990*%
%ADD50O,0.0990X0.0394*%
%ADD51O,0.0510X0.0190*%
%ADD52R,0.0510X0.0190*%
%ADD53C,0.0157*%
%ADD54C,0.0079*%
%ADD55C,0.0051*%
%ADD56C,0.0050*%
%ADD57C,0.0060*%
*
G04 Plot Data ***
*
G54D56*
G01X0005920Y0014521D02*
X0006098D01*
X0005920Y0014699D01*
Y0014743D01*
X0005942Y0014788D01*
X0006076D01*
X0006098Y0014743D01*
X0006398Y0014654D02*
X0006264D01*
X0006220Y0014699D01*
Y0014743D01*
X0006264Y0014788D01*
X0006398D01*
Y0014521D01*
X0006609D02*
Y0014788D01*
X0006520D02*
X0006698D01*
X0006053Y0009521D02*
X0005920Y0009788D01*
X0006098D01*
X0006398Y0009654D02*
X0006264D01*
X0006220Y0009699D01*
Y0009743D01*
X0006264Y0009788D01*
X0006398D01*
Y0009521D01*
X0006609D02*
Y0009788D01*
X0006520D02*
X0006698D01*
X0005942Y0008654D02*
X0005920Y0008699D01*
Y0008743D01*
X0005942Y0008788D01*
X0006076D01*
X0006098Y0008743D01*
Y0008699D01*
X0006076Y0008654D01*
X0005942D01*
X0005920Y0008610D01*
Y0008566D01*
X0005942Y0008521D01*
X0006076D01*
X0006098Y0008566D01*
Y0008610D01*
X0006076Y0008654D01*
X0006398D02*
X0006264D01*
X0006220Y0008699D01*
Y0008743D01*
X0006264Y0008788D01*
X0006398D01*
Y0008521D01*
X0006609D02*
Y0008788D01*
X0006520D02*
X0006698D01*
X0005964Y0015521D02*
X0006053D01*
X0006009D02*
Y0015788D01*
X0006053Y0015743D01*
X0006398Y0015654D02*
X0006264D01*
X0006220Y0015699D01*
Y0015743D01*
X0006264Y0015788D01*
X0006398D01*
Y0015521D01*
X0006609D02*
Y0015788D01*
X0006520D02*
X0006698D01*
X0005942Y0007654D02*
X0006076D01*
X0006098Y0007699D01*
Y0007743D01*
X0006076Y0007788D01*
X0005942D01*
X0005920Y0007743D01*
Y0007699D01*
X0006009Y0007521D01*
X0006398Y0007654D02*
X0006264D01*
X0006220Y0007699D01*
Y0007743D01*
X0006264Y0007788D01*
X0006398D01*
Y0007521D01*
X0006609D02*
Y0007788D01*
X0006520D02*
X0006698D01*
X0006076Y0010654D02*
X0005942D01*
X0005920Y0010610D01*
Y0010566D01*
X0005942Y0010521D01*
X0006076D01*
X0006098Y0010566D01*
Y0010610D01*
X0006009Y0010788D01*
X0006398Y0010654D02*
X0006264D01*
X0006220Y0010699D01*
Y0010743D01*
X0006264Y0010788D01*
X0006398D01*
Y0010521D01*
X0006609D02*
Y0010788D01*
X0006520D02*
X0006698D01*
X0006098Y0013566D02*
X0006053Y0013521D01*
X0005964D01*
X0005920Y0013566D01*
Y0013610D01*
X0006009Y0013699D01*
X0005920Y0013788D01*
X0006098D01*
X0006398Y0013654D02*
X0006264D01*
X0006220Y0013699D01*
Y0013743D01*
X0006264Y0013788D01*
X0006398D01*
Y0013521D01*
X0006609D02*
Y0013788D01*
X0006520D02*
X0006698D01*
X0006098Y0011566D02*
X0006076Y0011521D01*
X0005942D01*
X0005920Y0011566D01*
Y0011654D01*
X0005964Y0011699D01*
X0006098D01*
Y0011788D01*
X0005920D01*
X0006398Y0011654D02*
X0006264D01*
X0006220Y0011699D01*
Y0011743D01*
X0006264Y0011788D01*
X0006398D01*
Y0011521D01*
X0006609D02*
Y0011788D01*
X0006520D02*
X0006698D01*
X0005920Y0012610D02*
X0006098D01*
X0006009Y0012788D01*
X0005964D01*
Y0012521D01*
X0006398Y0012654D02*
X0006264D01*
X0006220Y0012699D01*
Y0012743D01*
X0006264Y0012788D01*
X0006398D01*
Y0012521D01*
X0006609D02*
Y0012788D01*
X0006520D02*
X0006698D01*
G54D57*
G01X0003525Y0010073D02*
X0003553Y0010128D01*
X0003720D01*
X0003748Y0010073D01*
Y0010017D01*
X0003720Y0009962D01*
X0003553D01*
X0003525Y0009906D01*
Y0009851D01*
X0003553Y0009795D01*
X0003720D01*
X0003748Y0009851D01*
X0003895Y0010128D02*
Y0009851D01*
X0003923Y0009795D01*
X0004090D01*
X0004118Y0009851D01*
Y0010128D01*
X0004460Y0009795D02*
Y0010128D01*
X0004488Y0009795D02*
X0004321D01*
X0004265Y0009851D01*
Y0009906D01*
X0004293Y0009962D01*
X0004460D02*
X0004293D01*
X0004265Y0010017D01*
Y0010073D01*
X0004321Y0010128D01*
X0004488D01*
X0004635Y0009684D02*
X0004858D01*
X0005005Y0010128D02*
Y0010017D01*
X0005117Y0009795D01*
X0005228Y0010017D01*
Y0010128D01*
X0003525Y0014073D02*
X0003553Y0014128D01*
X0003720D01*
X0003748Y0014073D01*
Y0014017D01*
X0003720Y0013962D01*
X0003553D01*
X0003525Y0013906D01*
Y0013851D01*
X0003553Y0013795D01*
X0003720D01*
X0003748Y0013851D01*
X0003895Y0014128D02*
Y0013851D01*
X0003923Y0013795D01*
X0004090D01*
X0004118Y0013851D01*
Y0014128D01*
X0004460Y0013795D02*
Y0014128D01*
X0004488Y0013795D02*
X0004321D01*
X0004265Y0013851D01*
Y0013906D01*
X0004293Y0013962D01*
X0004460D02*
X0004293D01*
X0004265Y0014017D01*
Y0014073D01*
X0004321Y0014128D01*
X0004488D01*
X0004635Y0013684D02*
X0004858D01*
X0005005Y0014128D02*
Y0014017D01*
X0005117Y0013795D01*
X0005228Y0014017D01*
Y0014128D01*
X0003525Y0009073D02*
X0003553Y0009128D01*
X0003720D01*
X0003748Y0009073D01*
Y0009017D01*
X0003720Y0008962D01*
X0003553D01*
X0003525Y0008906D01*
Y0008851D01*
X0003553Y0008795D01*
X0003720D01*
X0003748Y0008851D01*
X0003895Y0009128D02*
Y0008851D01*
X0003923Y0008795D01*
X0004090D01*
X0004118Y0008851D01*
Y0009128D01*
X0004460Y0008795D02*
Y0009128D01*
X0004488Y0008795D02*
X0004321D01*
X0004265Y0008851D01*
Y0008906D01*
X0004293Y0008962D01*
X0004460D02*
X0004293D01*
X0004265Y0009017D01*
Y0009073D01*
X0004321Y0009128D01*
X0004488D01*
X0004635Y0008684D02*
X0004858D01*
X0005005Y0009128D02*
Y0009017D01*
X0005117Y0008795D01*
X0005228Y0009017D01*
Y0009128D01*
X0003525Y0008073D02*
X0003553Y0008128D01*
X0003720D01*
X0003748Y0008073D01*
Y0008017D01*
X0003720Y0007962D01*
X0003553D01*
X0003525Y0007906D01*
Y0007851D01*
X0003553Y0007795D01*
X0003720D01*
X0003748Y0007851D01*
X0003895Y0008128D02*
Y0007851D01*
X0003923Y0007795D01*
X0004090D01*
X0004118Y0007851D01*
Y0008128D01*
X0004460Y0007795D02*
Y0008128D01*
X0004488Y0007795D02*
X0004321D01*
X0004265Y0007851D01*
Y0007906D01*
X0004293Y0007962D01*
X0004460D02*
X0004293D01*
X0004265Y0008017D01*
Y0008073D01*
X0004321Y0008128D01*
X0004488D01*
X0004635Y0007684D02*
X0004858D01*
X0005005Y0008128D02*
Y0008017D01*
X0005117Y0007795D01*
X0005228Y0008017D01*
Y0008128D01*
X0003525Y0015073D02*
X0003553Y0015128D01*
X0003720D01*
X0003748Y0015073D01*
Y0015017D01*
X0003720Y0014962D01*
X0003553D01*
X0003525Y0014906D01*
Y0014851D01*
X0003553Y0014795D01*
X0003720D01*
X0003748Y0014851D01*
X0003895Y0015128D02*
Y0014851D01*
X0003923Y0014795D01*
X0004090D01*
X0004118Y0014851D01*
Y0015128D01*
X0004460Y0014795D02*
Y0015128D01*
X0004488Y0014795D02*
X0004321D01*
X0004265Y0014851D01*
Y0014906D01*
X0004293Y0014962D01*
X0004460D02*
X0004293D01*
X0004265Y0015017D01*
Y0015073D01*
X0004321Y0015128D01*
X0004488D01*
X0004635Y0014684D02*
X0004858D01*
X0005005Y0015128D02*
Y0015017D01*
X0005117Y0014795D01*
X0005228Y0015017D01*
Y0015128D01*
X0003525Y0007073D02*
X0003553Y0007128D01*
X0003720D01*
X0003748Y0007073D01*
Y0007017D01*
X0003720Y0006962D01*
X0003553D01*
X0003525Y0006906D01*
Y0006851D01*
X0003553Y0006795D01*
X0003720D01*
X0003748Y0006851D01*
X0003895Y0007128D02*
Y0006851D01*
X0003923Y0006795D01*
X0004090D01*
X0004118Y0006851D01*
Y0007128D01*
X0004460Y0006795D02*
Y0007128D01*
X0004488Y0006795D02*
X0004321D01*
X0004265Y0006851D01*
Y0006906D01*
X0004293Y0006962D01*
X0004460D02*
X0004293D01*
X0004265Y0007017D01*
Y0007073D01*
X0004321Y0007128D01*
X0004488D01*
X0004635Y0006684D02*
X0004858D01*
X0005005Y0007128D02*
Y0007017D01*
X0005117Y0006795D01*
X0005228Y0007017D01*
Y0007128D01*
X0003525Y0013073D02*
X0003553Y0013128D01*
X0003720D01*
X0003748Y0013073D01*
Y0013017D01*
X0003720Y0012962D01*
X0003553D01*
X0003525Y0012906D01*
Y0012851D01*
X0003553Y0012795D01*
X0003720D01*
X0003748Y0012851D01*
X0003895Y0013128D02*
Y0012851D01*
X0003923Y0012795D01*
X0004090D01*
X0004118Y0012851D01*
Y0013128D01*
X0004460Y0012795D02*
Y0013128D01*
X0004488Y0012795D02*
X0004321D01*
X0004265Y0012851D01*
Y0012906D01*
X0004293Y0012962D01*
X0004460D02*
X0004293D01*
X0004265Y0013017D01*
Y0013073D01*
X0004321Y0013128D01*
X0004488D01*
X0004635Y0012684D02*
X0004858D01*
X0005005Y0013128D02*
Y0013017D01*
X0005117Y0012795D01*
X0005228Y0013017D01*
Y0013128D01*
X0003525Y0011073D02*
X0003553Y0011128D01*
X0003720D01*
X0003748Y0011073D01*
Y0011017D01*
X0003720Y0010962D01*
X0003553D01*
X0003525Y0010906D01*
Y0010851D01*
X0003553Y0010795D01*
X0003720D01*
X0003748Y0010851D01*
X0003895Y0011128D02*
Y0010851D01*
X0003923Y0010795D01*
X0004090D01*
X0004118Y0010851D01*
Y0011128D01*
X0004460Y0010795D02*
Y0011128D01*
X0004488Y0010795D02*
X0004321D01*
X0004265Y0010851D01*
Y0010906D01*
X0004293Y0010962D01*
X0004460D02*
X0004293D01*
X0004265Y0011017D01*
Y0011073D01*
X0004321Y0011128D01*
X0004488D01*
X0004635Y0010684D02*
X0004858D01*
X0005005Y0011128D02*
Y0011017D01*
X0005117Y0010795D01*
X0005228Y0011017D01*
Y0011128D01*
X0003525Y0012073D02*
X0003553Y0012128D01*
X0003720D01*
X0003748Y0012073D01*
Y0012017D01*
X0003720Y0011962D01*
X0003553D01*
X0003525Y0011906D01*
Y0011851D01*
X0003553Y0011795D01*
X0003720D01*
X0003748Y0011851D01*
X0003895Y0012128D02*
Y0011851D01*
X0003923Y0011795D01*
X0004090D01*
X0004118Y0011851D01*
Y0012128D01*
X0004460Y0011795D02*
Y0012128D01*
X0004488Y0011795D02*
X0004321D01*
X0004265Y0011851D01*
Y0011906D01*
X0004293Y0011962D01*
X0004460D02*
X0004293D01*
X0004265Y0012017D01*
Y0012073D01*
X0004321Y0012128D01*
X0004488D01*
X0004635Y0011684D02*
X0004858D01*
X0005005Y0012128D02*
Y0012017D01*
X0005117Y0011795D01*
X0005228Y0012017D01*
Y0012128D01*
M02*
