*
G04 Mass Parameters ***
*
G04 Image ***
*
%INC:\SVN\HWTREE\PROJECT\NANO_SHIELD\NANO_SHIELD_RX2.DRD*%
%ICAS*%
%MOIN*%
%IPPOS*%
%ASAXBY*%
G74*%FSLAN2X34Y34*%
*
G04 Aperture Definitions ***
*
%ADD10C,0.1280*%
%ADD11C,0.0400*%
%ADD12R,0.0394X0.0394*%
%ADD13R,0.0236X0.0354*%
%ADD14R,0.0354X0.0236*%
%ADD15R,0.0390X0.0320*%
%ADD16R,0.0390X0.0390*%
%ADD17R,0.0410X0.0870*%
%ADD18C,0.0580*%
%ADD19R,0.0580X0.0580*%
%ADD20R,0.0300X0.0150*%
%ADD21R,0.0150X0.0300*%
%ADD22C,0.0620*%
%ADD23R,0.1850X0.1350*%
%ADD24O,0.0334X0.0931*%
%ADD25O,0.0931X0.0334*%
%ADD26O,0.0470X0.0140*%
%ADD27R,0.0470X0.0140*%
%ADD28C,0.0350*%
%ADD29C,0.0010*%
%ADD30C,0.0100*%
%ADD31C,0.0150*%
%ADD32C,0.0080*%
%ADD33C,0.0500*%
%ADD34C,0.0170*%
%ADD35C,0.0200*%
%ADD36R,0.1200X0.1200*%
%ADD37R,0.0472X0.0472*%
%ADD38R,0.0275X0.0393*%
%ADD39R,0.0393X0.0275*%
%ADD40R,0.0450X0.0380*%
%ADD41R,0.0450X0.0450*%
%ADD42R,0.0410X0.0750*%
%ADD43R,0.0330X0.0220*%
%ADD44R,0.0220X0.0330*%
%ADD45C,0.0640*%
%ADD46R,0.0640X0.0640*%
%ADD47C,0.0670*%
%ADD48R,0.1900X0.1400*%
%ADD49O,0.0394X0.0990*%
%ADD50O,0.0990X0.0394*%
%ADD51O,0.0510X0.0190*%
%ADD52R,0.0510X0.0190*%
%ADD53C,0.0157*%
%ADD54C,0.0079*%
%ADD55C,0.0051*%
%ADD56C,0.0050*%
%ADD57C,0.0060*%
%ADD58C,0.0039*%
%ADD59C,0.0020*%
%ADD60C,0.0098*%
%ADD61C,0.0059*%
*
G04 Plot Data ***
*
G54D29*
G01X0028056Y0018179D02*
Y0004400D01*
X0000000Y0000000D02*
X0026050D01*
Y0001050D01*
X0027000Y0002000D01*
Y0004350D01*
X0033600D01*
Y0018200D01*
X0026000D01*
Y0020400D01*
X0025400Y0021000D01*
X0000000D01*
Y0000000D01*
X0026050D01*
Y0001050D01*
X0027000Y0002000D01*
Y0014900D01*
X0026000Y0015900D01*
Y0020400D01*
X0025400Y0021000D01*
X0000000D01*
Y0000000D01*
G54D30*
G01X0019931Y-0013250D02*
X0019681D01*
X0019806D02*
Y-0012500D01*
X0019681Y-0012625D01*
X0019294Y-0013250D02*
X0019044D01*
X0019169D02*
Y-0012500D01*
X0019044Y-0012625D01*
X0018156Y-0013125D02*
X0018281Y-0013250D01*
X0018531D01*
X0018656Y-0013125D01*
Y-0013000D01*
X0018406Y-0012750D01*
X0018656Y-0012500D01*
X0018156D01*
X0010134Y-0013250D02*
X0009697D01*
Y-0012500D01*
X0009434Y-0013000D02*
X0008934D01*
X0009434Y-0013250D02*
Y-0012875D01*
X0009247Y-0012500D01*
X0009122D01*
X0008934Y-0012875D01*
Y-0013250D01*
X0008422D02*
Y-0012500D01*
X0008672D02*
X0008172D01*
X0007472Y-0013250D02*
X0007409Y-0013125D01*
Y-0012625D01*
X0007472Y-0012500D01*
X0007847D01*
X0007909Y-0012625D01*
Y-0013125D01*
X0007847Y-0013250D01*
X0007472D01*
X0006897D02*
Y-0012500D01*
X0007147D02*
X0006647D01*
X0026273Y-0011854D02*
Y-0011354D01*
X0026231Y-0011854D02*
X0026481D01*
X0026565Y-0011687D01*
Y-0011521D01*
X0026481Y-0011354D01*
X0026231D01*
X0025906Y-0011604D02*
X0025656D01*
X0025990Y-0011854D02*
X0025656D01*
Y-0011354D01*
X0025990D01*
X0025248Y-0011854D02*
Y-0011354D01*
X0025415D02*
X0025081D01*
X0024840Y-0011687D02*
X0024506D01*
X0024840Y-0011854D02*
Y-0011604D01*
X0024715Y-0011354D01*
X0024631D01*
X0024506Y-0011604D01*
Y-0011854D01*
X0024265D02*
X0023973D01*
Y-0011354D01*
X0023398Y-0011604D02*
X0023648D01*
X0023731Y-0011521D01*
Y-0011437D01*
X0023648Y-0011354D01*
X0023398D01*
Y-0011854D01*
X0023156Y-0011604D02*
X0022823D01*
X0022581Y-0011354D02*
Y-0011854D01*
X0022498Y-0011771D01*
X0022331Y-0011437D01*
X0022248Y-0011354D01*
Y-0011854D01*
X0021715D02*
X0021673Y-0011771D01*
Y-0011437D01*
X0021715Y-0011354D01*
X0021965D01*
X0022006Y-0011437D01*
Y-0011771D01*
X0021965Y-0011854D01*
X0021715D01*
X0021431Y-0011354D02*
Y-0011854D01*
X0021348Y-0011771D01*
X0021181Y-0011437D01*
X0021098Y-0011354D01*
Y-0011854D01*
X0019931Y-0011687D02*
X0019598D01*
X0019765Y-0011354D01*
X0019848D01*
Y-0011854D01*
X0009127Y-0011604D02*
X0009169Y-0011521D01*
Y-0011437D01*
X0009127Y-0011354D01*
X0008877D01*
X0008835Y-0011437D01*
Y-0011521D01*
X0008877Y-0011604D01*
X0009127D01*
X0009169Y-0011687D01*
Y-0011771D01*
X0009127Y-0011854D01*
X0008877D01*
X0008835Y-0011771D01*
Y-0011687D01*
X0008877Y-0011604D01*
X0008594Y-0011854D02*
X0008260D01*
X0008594Y-0011521D01*
Y-0011437D01*
X0008552Y-0011354D01*
X0008302D01*
X0008260Y-0011437D01*
X0008019Y-0011854D02*
X0007852D01*
X0007935D02*
Y-0011354D01*
X0007852Y-0011437D01*
X0007444Y-0011854D02*
X0007527D01*
Y-0011771D01*
X0007444D01*
Y-0011854D01*
X0006910D02*
X0006827Y-0011771D01*
X0006785Y-0011687D01*
Y-0011521D01*
X0006827Y-0011437D01*
X0006910Y-0011354D01*
X0006994D01*
X0007077Y-0011437D01*
X0007119Y-0011521D01*
Y-0011687D01*
X0007077Y-0011771D01*
X0006994Y-0011854D01*
X0006910D01*
X0019598Y-0010646D02*
X0019640Y-0010729D01*
X0019890D01*
X0019931Y-0010646D01*
Y-0010479D01*
X0019848Y-0010396D01*
X0019598D01*
Y-0010229D01*
X0019931D01*
X0019356Y-0010729D02*
X0019023D01*
X0019356Y-0010396D01*
Y-0010312D01*
X0019315Y-0010229D01*
X0019065D01*
X0019023Y-0010312D01*
X0009127Y-0010479D02*
X0009169Y-0010396D01*
Y-0010312D01*
X0009127Y-0010229D01*
X0008877D01*
X0008835Y-0010312D01*
Y-0010396D01*
X0008877Y-0010479D01*
X0009127D01*
X0009169Y-0010562D01*
Y-0010646D01*
X0009127Y-0010729D01*
X0008877D01*
X0008835Y-0010646D01*
Y-0010562D01*
X0008877Y-0010479D01*
X0008260Y-0010646D02*
X0008344Y-0010729D01*
X0008510D01*
X0008594Y-0010646D01*
Y-0010562D01*
X0008427Y-0010396D01*
X0008594Y-0010229D01*
X0008260D01*
X0007810Y-0010729D02*
X0007727Y-0010646D01*
X0007685Y-0010562D01*
Y-0010396D01*
X0007727Y-0010312D01*
X0007810Y-0010229D01*
X0007894D01*
X0007977Y-0010312D01*
X0008019Y-0010396D01*
Y-0010562D01*
X0007977Y-0010646D01*
X0007894Y-0010729D01*
X0007810D01*
X0007360D02*
X0007444D01*
Y-0010646D01*
X0007360D01*
Y-0010729D01*
X0006827D02*
X0006744Y-0010646D01*
X0006702Y-0010562D01*
Y-0010396D01*
X0006744Y-0010312D01*
X0006827Y-0010229D01*
X0006910D01*
X0006994Y-0010312D01*
X0007035Y-0010396D01*
Y-0010562D01*
X0006994Y-0010646D01*
X0006910Y-0010729D01*
X0006827D01*
X0019931Y-0009604D02*
X0019765D01*
X0019848D02*
Y-0009104D01*
X0019765Y-0009187D01*
X0019440Y-0009604D02*
X0019106D01*
X0019440Y-0009271D01*
Y-0009187D01*
X0019398Y-0009104D01*
X0019148D01*
X0019106Y-0009187D01*
X0008919Y-0009604D02*
X0009169Y-0009104D01*
X0008835D01*
X0008260Y-0009521D02*
X0008344Y-0009604D01*
X0008510D01*
X0008594Y-0009521D01*
Y-0009437D01*
X0008427Y-0009271D01*
X0008594Y-0009104D01*
X0008260D01*
X0007810Y-0009604D02*
X0007727Y-0009521D01*
X0007685Y-0009437D01*
Y-0009271D01*
X0007727Y-0009187D01*
X0007810Y-0009104D01*
X0007894D01*
X0007977Y-0009187D01*
X0008019Y-0009271D01*
Y-0009437D01*
X0007977Y-0009521D01*
X0007894Y-0009604D01*
X0007810D01*
X0007360D02*
X0007444D01*
Y-0009521D01*
X0007360D01*
Y-0009604D01*
X0006827D02*
X0006744Y-0009521D01*
X0006702Y-0009437D01*
Y-0009271D01*
X0006744Y-0009187D01*
X0006827Y-0009104D01*
X0006910D01*
X0006994Y-0009187D01*
X0007035Y-0009271D01*
Y-0009437D01*
X0006994Y-0009521D01*
X0006910Y-0009604D01*
X0006827D01*
X0019931Y-0008479D02*
X0019765D01*
X0019848D02*
Y-0007979D01*
X0019765Y-0008062D01*
X0019148Y-0008229D02*
X0019398D01*
X0019440Y-0008312D01*
Y-0008396D01*
X0019398Y-0008479D01*
X0019148D01*
X0019106Y-0008396D01*
Y-0008312D01*
X0019273Y-0007979D01*
X0018865Y-0008479D02*
X0018531D01*
X0018865Y-0008146D01*
Y-0008062D01*
X0018823Y-0007979D01*
X0018573D01*
X0018531Y-0008062D01*
X0008960Y-0008479D02*
X0008877Y-0008396D01*
X0008835Y-0008312D01*
Y-0008146D01*
X0008877Y-0008062D01*
X0008960Y-0007979D01*
X0009044D01*
X0009127Y-0008062D01*
X0009169Y-0008146D01*
Y-0008312D01*
X0009127Y-0008396D01*
X0009044Y-0008479D01*
X0008960D01*
X0008594D02*
X0008260D01*
X0008594Y-0008146D01*
Y-0008062D01*
X0008552Y-0007979D01*
X0008302D01*
X0008260Y-0008062D01*
X0007810Y-0008479D02*
X0007727Y-0008396D01*
X0007685Y-0008312D01*
Y-0008146D01*
X0007727Y-0008062D01*
X0007810Y-0007979D01*
X0007894D01*
X0007977Y-0008062D01*
X0008019Y-0008146D01*
Y-0008312D01*
X0007977Y-0008396D01*
X0007894Y-0008479D01*
X0007810D01*
X0007360D02*
X0007444D01*
Y-0008396D01*
X0007360D01*
Y-0008479D01*
X0006827D02*
X0006744Y-0008396D01*
X0006702Y-0008312D01*
Y-0008146D01*
X0006744Y-0008062D01*
X0006827Y-0007979D01*
X0006910D01*
X0006994Y-0008062D01*
X0007035Y-0008146D01*
Y-0008312D01*
X0006994Y-0008396D01*
X0006910Y-0008479D01*
X0006827D01*
X0026559Y-0006875D02*
X0026184D01*
X0026684Y-0007250D02*
X0026184D01*
Y-0006500D01*
X0026684D01*
X0025672Y-0007250D02*
Y-0006500D01*
X0025922D02*
X0025422D01*
X0024722Y-0007250D02*
X0024659Y-0007125D01*
Y-0006625D01*
X0024722Y-0006500D01*
X0025097D01*
X0025159Y-0006625D01*
Y-0007125D01*
X0025097Y-0007250D01*
X0024722D01*
X0024397Y-0006500D02*
Y-0007250D01*
X0024272Y-0007125D01*
X0024022Y-0006625D01*
X0023897Y-0006500D01*
Y-0007250D01*
X0019294D02*
Y-0006875D01*
X0019544Y-0006500D02*
X0019356Y-0006875D01*
X0019231D01*
X0019044Y-0006500D01*
X0018531Y-0007250D02*
Y-0006500D01*
X0018781D02*
X0018281D01*
X0017769Y-0007000D02*
X0018019Y-0007250D01*
X0017519Y-0007125D02*
X0017581Y-0007250D01*
X0017831D01*
X0017894Y-0007125D01*
X0018019Y-0007000D01*
Y-0006625D01*
X0017956Y-0006500D01*
X0017581D01*
X0017519Y-0006625D01*
Y-0007125D01*
X0014131Y-0007250D02*
X0013694D01*
Y-0006500D01*
X0012994Y-0007250D02*
X0012931Y-0007125D01*
Y-0006625D01*
X0012994Y-0006500D01*
X0013369D01*
X0013431Y-0006625D01*
Y-0007125D01*
X0013369Y-0007250D01*
X0012994D01*
X0012419D02*
Y-0006500D01*
X0012669D02*
X0012169D01*
X0007941Y-0007250D02*
Y-0006500D01*
X0007816Y-0006625D01*
X0007691Y-0006875D01*
X0007566Y-0006625D01*
X0007441Y-0006500D01*
Y-0007250D01*
X0007178Y-0007000D02*
X0006678D01*
X0007178Y-0007250D02*
Y-0006875D01*
X0006991Y-0006500D01*
X0006866D01*
X0006678Y-0006875D01*
Y-0007250D01*
X0006416D02*
X0006166D01*
X0006291D02*
Y-0006500D01*
X0006416D02*
X0006166D01*
X0005341Y-0007250D02*
Y-0006500D01*
X0005278Y-0007250D02*
X0005653D01*
X0005778Y-0007000D01*
Y-0006750D01*
X0005653Y-0006500D01*
X0005278D01*
X0002862Y-0007250D02*
Y-0006500D01*
X0002737Y-0006625D01*
X0002612Y-0006875D01*
X0002487Y-0006625D01*
X0002362Y-0006500D01*
Y-0007250D01*
X0001850D02*
Y-0006875D01*
X0002100Y-0006500D02*
X0001912Y-0006875D01*
X0001787D01*
X0001600Y-0006500D01*
X0001337Y-0006625D02*
X0001275Y-0006500D01*
X0000900D01*
X0000837Y-0006625D01*
Y-0006750D01*
X0000900Y-0006875D01*
X0001275D01*
X0001337Y-0007000D01*
Y-0007125D01*
X0001275Y-0007250D01*
X0000900D01*
X0000837Y-0007125D01*
X0018978Y-0005750D02*
Y-0005000D01*
X0019228D02*
X0018728D01*
X0018278Y-0005375D02*
X0018466Y-0005750D01*
X0017966Y-0005375D02*
X0018341D01*
X0018466Y-0005250D01*
Y-0005125D01*
X0018341Y-0005000D01*
X0017966D01*
Y-0005750D01*
X0017703Y-0005500D02*
X0017203D01*
X0017703Y-0005750D02*
Y-0005375D01*
X0017516Y-0005000D01*
X0017391D01*
X0017203Y-0005375D01*
Y-0005750D01*
X0016941Y-0005375D02*
X0016441D01*
X0016941Y-0005750D02*
Y-0005000D01*
X0016441Y-0005750D02*
Y-0005000D01*
X0016178Y-0005625D02*
X0016116Y-0005750D01*
X0015741D01*
X0015678Y-0005625D01*
Y-0005125D01*
X0015741Y-0005000D01*
X0016116D01*
X0016178Y-0005125D01*
X0014372Y-0005750D02*
X0013934D01*
Y-0005000D01*
X0013672Y-0005750D02*
X0013234D01*
Y-0005000D01*
X0012972Y-0005750D02*
X0012722D01*
X0012847D02*
Y-0005000D01*
X0012972D02*
X0012722D01*
X0012147Y-0005375D02*
X0012334Y-0005750D01*
X0011834Y-0005375D02*
X0012209D01*
X0012334Y-0005250D01*
Y-0005125D01*
X0012209Y-0005000D01*
X0011834D01*
Y-0005750D01*
X0011134D02*
Y-0005000D01*
X0011072Y-0005750D02*
X0011447D01*
X0011572Y-0005500D01*
Y-0005250D01*
X0011447Y-0005000D01*
X0011072D01*
X-0001268Y0011321D02*
X-0001352Y0011237D01*
X-0001435Y0011196D01*
X-0001602D01*
X-0001685Y0011237D01*
X-0001768Y0011321D01*
Y0011404D01*
X-0001685Y0011487D01*
X-0001602Y0011529D01*
X-0001435D01*
X-0001352Y0011487D01*
X-0001268Y0011404D01*
Y0011321D01*
Y0010746D02*
X-0001352Y0010662D01*
X-0001435Y0010621D01*
X-0001602D01*
X-0001685Y0010662D01*
X-0001768Y0010746D01*
Y0010829D01*
X-0001685Y0010912D01*
X-0001602Y0010954D01*
X-0001435D01*
X-0001352Y0010912D01*
X-0001268Y0010829D01*
Y0010746D01*
Y0010379D02*
Y0010212D01*
Y0010296D02*
X-0001768D01*
X-0001685Y0010212D01*
X-0001268Y0009887D02*
Y0009554D01*
X-0001602Y0009887D01*
X-0001685D01*
X-0001768Y0009846D01*
Y0009596D01*
X-0001685Y0009554D01*
X0017662Y-0002402D02*
X0017579Y-0002318D01*
X0017537Y-0002235D01*
Y-0002068D01*
X0017579Y-0001985D01*
X0017662Y-0001902D01*
X0017746D01*
X0017829Y-0001985D01*
X0017871Y-0002068D01*
Y-0002235D01*
X0017829Y-0002318D01*
X0017746Y-0002402D01*
X0017662D01*
X0017004Y-0002152D02*
X0017254D01*
X0017296Y-0002235D01*
Y-0002318D01*
X0017254Y-0002402D01*
X0017004D01*
X0016962Y-0002318D01*
Y-0002235D01*
X0017129Y-0001902D01*
X0016387Y-0002318D02*
X0016471Y-0002402D01*
X0016637D01*
X0016721Y-0002318D01*
Y-0002235D01*
X0016554Y-0002068D01*
X0016721Y-0001902D01*
X0016387D01*
X0015812Y-0002318D02*
X0015896Y-0002402D01*
X0016062D01*
X0016146Y-0002318D01*
Y-0002235D01*
X0015979Y-0002068D01*
X0016146Y-0001902D01*
X0015812D01*
X0002006Y-0011687D02*
X0001631D01*
X0001819Y-0011500D02*
Y-0011875D01*
Y-0010375D02*
X0001631Y-0010562D01*
X0002006D02*
X0001819Y-0010375D01*
Y-0010750D02*
X0002006Y-0010562D01*
X0001631D02*
X0001819Y-0010750D01*
X0002006Y-0009250D02*
X0001631Y-0009625D01*
X0002006D02*
X0001631Y-0009250D01*
Y-0008125D02*
Y-0008500D01*
X0002006Y-0008125D02*
X0001631D01*
X0002006Y-0008500D02*
Y-0008125D01*
X0001631Y-0008500D02*
X0002006D01*
Y-0008312D02*
X0001631D01*
X0001819Y-0008125D02*
Y-0008500D01*
X0029887Y-0013800D02*
X0000350D01*
X0029837Y-0013750D02*
X0000400D01*
X0029837Y-0012250D02*
X0000400D01*
X0029837Y-0011125D02*
X0000400D01*
X0029837Y-0010000D02*
X0000400D01*
X0029837Y-0008875D02*
X0000400D01*
X0029837Y-0007750D02*
X0000400D01*
X0029837Y-0007700D02*
X0000400D01*
X0029837Y-0006250D02*
X0000400D01*
X0029837Y-0006200D02*
X0000400D01*
X0029837Y-0004750D02*
X0000400D01*
X0029887Y-0004700D02*
X0000350D01*
X0029887Y-0013750D02*
Y-0004750D01*
X0029837Y-0013750D02*
Y-0004750D01*
X0020681Y-0013750D02*
Y-0006250D01*
X0016319Y-0013750D02*
Y-0006250D01*
X0009919Y-0012250D02*
Y-0006250D01*
X0003287Y-0012250D02*
Y-0006250D01*
X0003237Y-0012250D02*
Y-0006250D01*
X0000350Y-0013750D02*
Y-0004750D01*
X0000400Y-0013750D02*
Y-0004750D01*
X-0000435Y0021000D02*
X-0002685D01*
X-0001560Y0012050D02*
Y0021000D01*
X-0001747Y0020437D02*
X-0001560Y0021000D01*
X-0001372Y0020437D01*
X-0000435Y0000000D02*
X-0002685D01*
X-0001560Y0008950D02*
Y0000000D01*
X-0001372Y0000562D02*
X-0001560Y0000000D01*
X-0001747Y0000562D01*
X0018392Y-0002110D02*
X0033600D01*
X0033037Y-0001922D02*
X0033600Y-0002110D01*
X0033037Y-0002297D01*
X0000000Y-0003235D02*
Y-0000985D01*
X0015208Y-0002110D02*
X0000000D01*
X0000562Y-0002297D02*
X0000000Y-0002110D01*
X0000562Y-0001922D01*
X0033600Y-0003235D02*
Y-0000985D01*
X0006362Y0015637D02*
Y0015262D01*
X0006737Y0015637D02*
X0006362D01*
X0006737Y0015262D02*
Y0015637D01*
X0006362Y0015262D02*
X0006737D01*
Y0015450D02*
X0006362D01*
X0006550Y0015637D02*
Y0015262D01*
X0005812Y0018387D02*
Y0018012D01*
X0006187Y0018387D02*
X0005812D01*
X0006187Y0018012D02*
Y0018387D01*
X0005812Y0018012D02*
X0006187D01*
Y0018200D02*
X0005812D01*
X0006000Y0018387D02*
Y0018012D01*
X0015612Y0018112D02*
Y0017737D01*
X0015987Y0018112D02*
X0015612D01*
X0015987Y0017737D02*
Y0018112D01*
X0015612Y0017737D02*
X0015987D01*
Y0017925D02*
X0015612D01*
X0015800Y0018112D02*
Y0017737D01*
X0004087Y0005687D02*
Y0005312D01*
X0004462Y0005687D02*
X0004087D01*
X0004462Y0005312D02*
Y0005687D01*
X0004087Y0005312D02*
X0004462D01*
Y0005500D02*
X0004087D01*
X0004275Y0005687D02*
Y0005312D01*
X0003612Y0004762D02*
Y0004387D01*
X0003987Y0004762D02*
X0003612D01*
X0003987Y0004387D02*
Y0004762D01*
X0003612Y0004387D02*
X0003987D01*
Y0004575D02*
X0003612D01*
X0003800Y0004762D02*
Y0004387D01*
X0003062Y0001262D02*
Y0000887D01*
X0003437Y0001262D02*
X0003062D01*
X0003437Y0000887D02*
Y0001262D01*
X0003062Y0000887D02*
X0003437D01*
Y0001075D02*
X0003062D01*
X0003250Y0001262D02*
Y0000887D01*
X0002087Y0001237D02*
Y0000862D01*
X0002462Y0001237D02*
X0002087D01*
X0002462Y0000862D02*
Y0001237D01*
X0002087Y0000862D02*
X0002462D01*
Y0001050D02*
X0002087D01*
X0002275Y0001237D02*
Y0000862D01*
X0002587Y0008287D02*
Y0007912D01*
X0002962Y0008287D02*
X0002587D01*
X0002962Y0007912D02*
Y0008287D01*
X0002587Y0007912D02*
X0002962D01*
Y0008100D02*
X0002587D01*
X0002775Y0008287D02*
Y0007912D01*
X0006637Y0018112D02*
Y0017737D01*
X0007012Y0018112D02*
X0006637D01*
X0007012Y0017737D02*
Y0018112D01*
X0006637Y0017737D02*
X0007012D01*
Y0017925D02*
X0006637D01*
X0006825Y0018112D02*
Y0017737D01*
X0009512Y0019162D02*
Y0018787D01*
X0009887Y0019162D02*
X0009512D01*
X0009887Y0018787D02*
Y0019162D01*
X0009512Y0018787D02*
X0009887D01*
Y0018975D02*
X0009512D01*
X0009700Y0019162D02*
Y0018787D01*
X0026962Y0008337D02*
Y0007962D01*
X0027337Y0008337D02*
X0026962D01*
X0027337Y0007962D02*
Y0008337D01*
X0026962Y0007962D02*
X0027337D01*
Y0008150D02*
X0026962D01*
X0027150Y0008337D02*
Y0007962D01*
X0027637Y0007512D02*
Y0007137D01*
X0028012Y0007512D02*
X0027637D01*
X0028012Y0007137D02*
Y0007512D01*
X0027637Y0007137D02*
X0028012D01*
Y0007325D02*
X0027637D01*
X0027825Y0007512D02*
Y0007137D01*
X0003062Y0018762D02*
Y0018387D01*
X0003437Y0018762D02*
X0003062D01*
X0003437Y0018387D02*
Y0018762D01*
X0003062Y0018387D02*
X0003437D01*
Y0018575D02*
X0003062D01*
X0003250Y0018762D02*
Y0018387D01*
X0005187Y0018737D02*
Y0018362D01*
X0005562Y0018737D02*
X0005187D01*
X0005562Y0018362D02*
Y0018737D01*
X0005187Y0018362D02*
X0005562D01*
Y0018550D02*
X0005187D01*
X0005375Y0018737D02*
Y0018362D01*
X0018987Y0007887D02*
Y0007512D01*
X0019362Y0007887D02*
X0018987D01*
X0019362Y0007512D02*
Y0007887D01*
X0018987Y0007512D02*
X0019362D01*
Y0007700D02*
X0018987D01*
X0019175Y0007887D02*
Y0007512D01*
X0004562Y0020287D02*
Y0019912D01*
X0004937Y0020287D02*
X0004562D01*
X0004937Y0019912D02*
Y0020287D01*
X0004562Y0019912D02*
X0004937D01*
Y0020100D02*
X0004562D01*
X0004750Y0020287D02*
Y0019912D01*
X0003562Y0020287D02*
Y0019912D01*
X0003937Y0020287D02*
X0003562D01*
X0003937Y0019912D02*
Y0020287D01*
X0003562Y0019912D02*
X0003937D01*
Y0020100D02*
X0003562D01*
X0003750Y0020287D02*
Y0019912D01*
X0002562Y0020287D02*
Y0019912D01*
X0002937Y0020287D02*
X0002562D01*
X0002937Y0019912D02*
Y0020287D01*
X0002562Y0019912D02*
X0002937D01*
Y0020100D02*
X0002562D01*
X0002750Y0020287D02*
Y0019912D01*
X0024637Y0017912D02*
Y0017537D01*
X0025012Y0017912D02*
X0024637D01*
X0025012Y0017537D02*
Y0017912D01*
X0024637Y0017537D02*
X0025012D01*
Y0017725D02*
X0024637D01*
X0024825Y0017912D02*
Y0017537D01*
X0023637Y0017912D02*
Y0017537D01*
X0024012Y0017912D02*
X0023637D01*
X0024012Y0017537D02*
Y0017912D01*
X0023637Y0017537D02*
X0024012D01*
Y0017725D02*
X0023637D01*
X0023825Y0017912D02*
Y0017537D01*
X0022637Y0017912D02*
Y0017537D01*
X0023012Y0017912D02*
X0022637D01*
X0023012Y0017537D02*
Y0017912D01*
X0022637Y0017537D02*
X0023012D01*
Y0017725D02*
X0022637D01*
X0022825Y0017912D02*
Y0017537D01*
X0021562Y0018287D02*
Y0017912D01*
X0021937Y0018287D02*
X0021562D01*
X0021937Y0017912D02*
Y0018287D01*
X0021562Y0017912D02*
X0021937D01*
Y0018100D02*
X0021562D01*
X0021750Y0018287D02*
Y0017912D01*
X0018562Y0018287D02*
Y0017912D01*
X0018937Y0018287D02*
X0018562D01*
X0018937Y0017912D02*
Y0018287D01*
X0018562Y0017912D02*
X0018937D01*
Y0018100D02*
X0018562D01*
X0018750Y0018287D02*
Y0017912D01*
X0017562Y0018287D02*
Y0017912D01*
X0017937Y0018287D02*
X0017562D01*
X0017937Y0017912D02*
Y0018287D01*
X0017562Y0017912D02*
X0017937D01*
Y0018100D02*
X0017562D01*
X0017750Y0018287D02*
Y0017912D01*
X0016562Y0018287D02*
Y0017912D01*
X0016937Y0018287D02*
X0016562D01*
X0016937Y0017912D02*
Y0018287D01*
X0016562Y0017912D02*
X0016937D01*
Y0018100D02*
X0016562D01*
X0016750Y0018287D02*
Y0017912D01*
X0000562Y0018287D02*
Y0017912D01*
X0000937Y0018287D02*
X0000562D01*
X0000937Y0017912D02*
Y0018287D01*
X0000562Y0017912D02*
X0000937D01*
Y0018100D02*
X0000562D01*
X0000750Y0018287D02*
Y0017912D01*
X0025062Y0017287D02*
Y0016912D01*
X0025437Y0017287D02*
X0025062D01*
X0025437Y0016912D02*
Y0017287D01*
X0025062Y0016912D02*
X0025437D01*
Y0017100D02*
X0025062D01*
X0025250Y0017287D02*
Y0016912D01*
X0024062Y0017287D02*
Y0016912D01*
X0024437Y0017287D02*
X0024062D01*
X0024437Y0016912D02*
Y0017287D01*
X0024062Y0016912D02*
X0024437D01*
Y0017100D02*
X0024062D01*
X0024250Y0017287D02*
Y0016912D01*
X0023062Y0017287D02*
Y0016912D01*
X0023437Y0017287D02*
X0023062D01*
X0023437Y0016912D02*
Y0017287D01*
X0023062Y0016912D02*
X0023437D01*
Y0017100D02*
X0023062D01*
X0023250Y0017287D02*
Y0016912D01*
X0022062Y0017287D02*
Y0016912D01*
X0022437Y0017287D02*
X0022062D01*
X0022437Y0016912D02*
Y0017287D01*
X0022062Y0016912D02*
X0022437D01*
Y0017100D02*
X0022062D01*
X0022250Y0017287D02*
Y0016912D01*
X0019062Y0017287D02*
Y0016912D01*
X0019437Y0017287D02*
X0019062D01*
X0019437Y0016912D02*
Y0017287D01*
X0019062Y0016912D02*
X0019437D01*
Y0017100D02*
X0019062D01*
X0019250Y0017287D02*
Y0016912D01*
X0016062Y0017287D02*
Y0016912D01*
X0016437Y0017287D02*
X0016062D01*
X0016437Y0016912D02*
Y0017287D01*
X0016062Y0016912D02*
X0016437D01*
Y0017100D02*
X0016062D01*
X0016250Y0017287D02*
Y0016912D01*
X0025562Y0016287D02*
Y0015912D01*
X0025937Y0016287D02*
X0025562D01*
X0025937Y0015912D02*
Y0016287D01*
X0025562Y0015912D02*
X0025937D01*
Y0016100D02*
X0025562D01*
X0025750Y0016287D02*
Y0015912D01*
X0024562Y0016287D02*
Y0015912D01*
X0024937Y0016287D02*
X0024562D01*
X0024937Y0015912D02*
Y0016287D01*
X0024562Y0015912D02*
X0024937D01*
Y0016100D02*
X0024562D01*
X0024750Y0016287D02*
Y0015912D01*
X0023562Y0016287D02*
Y0015912D01*
X0023937Y0016287D02*
X0023562D01*
X0023937Y0015912D02*
Y0016287D01*
X0023562Y0015912D02*
X0023937D01*
Y0016100D02*
X0023562D01*
X0023750Y0016287D02*
Y0015912D01*
X0022562Y0016287D02*
Y0015912D01*
X0022937Y0016287D02*
X0022562D01*
X0022937Y0015912D02*
Y0016287D01*
X0022562Y0015912D02*
X0022937D01*
Y0016100D02*
X0022562D01*
X0022750Y0016287D02*
Y0015912D01*
X0021562Y0016287D02*
Y0015912D01*
X0021937Y0016287D02*
X0021562D01*
X0021937Y0015912D02*
Y0016287D01*
X0021562Y0015912D02*
X0021937D01*
Y0016100D02*
X0021562D01*
X0021750Y0016287D02*
Y0015912D01*
X0018562Y0016287D02*
Y0015912D01*
X0018937Y0016287D02*
X0018562D01*
X0018937Y0015912D02*
Y0016287D01*
X0018562Y0015912D02*
X0018937D01*
Y0016100D02*
X0018562D01*
X0018750Y0016287D02*
Y0015912D01*
X0017562Y0016287D02*
Y0015912D01*
X0017937Y0016287D02*
X0017562D01*
X0017937Y0015912D02*
Y0016287D01*
X0017562Y0015912D02*
X0017937D01*
Y0016100D02*
X0017562D01*
X0017750Y0016287D02*
Y0015912D01*
X0016562Y0016287D02*
Y0015912D01*
X0016937Y0016287D02*
X0016562D01*
X0016937Y0015912D02*
Y0016287D01*
X0016562Y0015912D02*
X0016937D01*
Y0016100D02*
X0016562D01*
X0016750Y0016287D02*
Y0015912D01*
X0015562Y0016287D02*
Y0015912D01*
X0015937Y0016287D02*
X0015562D01*
X0015937Y0015912D02*
Y0016287D01*
X0015562Y0015912D02*
X0015937D01*
Y0016100D02*
X0015562D01*
X0015750Y0016287D02*
Y0015912D01*
X0014662Y0018087D02*
Y0017712D01*
X0015037Y0018087D02*
X0014662D01*
X0015037Y0017712D02*
Y0018087D01*
X0014662Y0017712D02*
X0015037D01*
Y0017900D02*
X0014662D01*
X0014850Y0018087D02*
Y0017712D01*
X0010562Y0016287D02*
Y0015912D01*
X0010937Y0016287D02*
X0010562D01*
X0010937Y0015912D02*
Y0016287D01*
X0010562Y0015912D02*
X0010937D01*
Y0016100D02*
X0010562D01*
X0010750Y0016287D02*
Y0015912D01*
X0001562Y0016287D02*
Y0015912D01*
X0001937Y0016287D02*
X0001562D01*
X0001937Y0015912D02*
Y0016287D01*
X0001562Y0015912D02*
X0001937D01*
Y0016100D02*
X0001562D01*
X0001750Y0016287D02*
Y0015912D01*
X0000562Y0016287D02*
Y0015912D01*
X0000937Y0016287D02*
X0000562D01*
X0000937Y0015912D02*
Y0016287D01*
X0000562Y0015912D02*
X0000937D01*
Y0016100D02*
X0000562D01*
X0000750Y0016287D02*
Y0015912D01*
X0025062Y0015287D02*
Y0014912D01*
X0025437Y0015287D02*
X0025062D01*
X0025437Y0014912D02*
Y0015287D01*
X0025062Y0014912D02*
X0025437D01*
Y0015100D02*
X0025062D01*
X0025250Y0015287D02*
Y0014912D01*
X0024062Y0015287D02*
Y0014912D01*
X0024437Y0015287D02*
X0024062D01*
X0024437Y0014912D02*
Y0015287D01*
X0024062Y0014912D02*
X0024437D01*
Y0015100D02*
X0024062D01*
X0024250Y0015287D02*
Y0014912D01*
X0023062Y0015287D02*
Y0014912D01*
X0023437Y0015287D02*
X0023062D01*
X0023437Y0014912D02*
Y0015287D01*
X0023062Y0014912D02*
X0023437D01*
Y0015100D02*
X0023062D01*
X0023250Y0015287D02*
Y0014912D01*
X0022062Y0015287D02*
Y0014912D01*
X0022437Y0015287D02*
X0022062D01*
X0022437Y0014912D02*
Y0015287D01*
X0022062Y0014912D02*
X0022437D01*
Y0015100D02*
X0022062D01*
X0022250Y0015287D02*
Y0014912D01*
X0021062Y0015287D02*
Y0014912D01*
X0021437Y0015287D02*
X0021062D01*
X0021437Y0014912D02*
Y0015287D01*
X0021062Y0014912D02*
X0021437D01*
Y0015100D02*
X0021062D01*
X0021250Y0015287D02*
Y0014912D01*
X0020062Y0015287D02*
Y0014912D01*
X0020437Y0015287D02*
X0020062D01*
X0020437Y0014912D02*
Y0015287D01*
X0020062Y0014912D02*
X0020437D01*
Y0015100D02*
X0020062D01*
X0020250Y0015287D02*
Y0014912D01*
X0019062Y0015287D02*
Y0014912D01*
X0019437Y0015287D02*
X0019062D01*
X0019437Y0014912D02*
Y0015287D01*
X0019062Y0014912D02*
X0019437D01*
Y0015100D02*
X0019062D01*
X0019250Y0015287D02*
Y0014912D01*
X0018087Y0015462D02*
Y0015087D01*
X0018462Y0015462D02*
X0018087D01*
X0018462Y0015087D02*
Y0015462D01*
X0018087Y0015087D02*
X0018462D01*
Y0015275D02*
X0018087D01*
X0018275Y0015462D02*
Y0015087D01*
X0003062Y0015287D02*
Y0014912D01*
X0003437Y0015287D02*
X0003062D01*
X0003437Y0014912D02*
Y0015287D01*
X0003062Y0014912D02*
X0003437D01*
Y0015100D02*
X0003062D01*
X0003250Y0015287D02*
Y0014912D01*
X0002062Y0015287D02*
Y0014912D01*
X0002437Y0015287D02*
X0002062D01*
X0002437Y0014912D02*
Y0015287D01*
X0002062Y0014912D02*
X0002437D01*
Y0015100D02*
X0002062D01*
X0002250Y0015287D02*
Y0014912D01*
X0001062Y0015287D02*
Y0014912D01*
X0001437Y0015287D02*
X0001062D01*
X0001437Y0014912D02*
Y0015287D01*
X0001062Y0014912D02*
X0001437D01*
Y0015100D02*
X0001062D01*
X0001250Y0015287D02*
Y0014912D01*
X0024562Y0014287D02*
Y0013912D01*
X0024937Y0014287D02*
X0024562D01*
X0024937Y0013912D02*
Y0014287D01*
X0024562Y0013912D02*
X0024937D01*
Y0014100D02*
X0024562D01*
X0024750Y0014287D02*
Y0013912D01*
X0023562Y0014287D02*
Y0013912D01*
X0023937Y0014287D02*
X0023562D01*
X0023937Y0013912D02*
Y0014287D01*
X0023562Y0013912D02*
X0023937D01*
Y0014100D02*
X0023562D01*
X0023750Y0014287D02*
Y0013912D01*
X0022562Y0014287D02*
Y0013912D01*
X0022937Y0014287D02*
X0022562D01*
X0022937Y0013912D02*
Y0014287D01*
X0022562Y0013912D02*
X0022937D01*
Y0014100D02*
X0022562D01*
X0022750Y0014287D02*
Y0013912D01*
X0021562Y0014287D02*
Y0013912D01*
X0021937Y0014287D02*
X0021562D01*
X0021937Y0013912D02*
Y0014287D01*
X0021562Y0013912D02*
X0021937D01*
Y0014100D02*
X0021562D01*
X0021750Y0014287D02*
Y0013912D01*
X0020562Y0014287D02*
Y0013912D01*
X0020937Y0014287D02*
X0020562D01*
X0020937Y0013912D02*
Y0014287D01*
X0020562Y0013912D02*
X0020937D01*
Y0014100D02*
X0020562D01*
X0020750Y0014287D02*
Y0013912D01*
X0019562Y0014287D02*
Y0013912D01*
X0019937Y0014287D02*
X0019562D01*
X0019937Y0013912D02*
Y0014287D01*
X0019562Y0013912D02*
X0019937D01*
Y0014100D02*
X0019562D01*
X0019750Y0014287D02*
Y0013912D01*
X0018562Y0014287D02*
Y0013912D01*
X0018937Y0014287D02*
X0018562D01*
X0018937Y0013912D02*
Y0014287D01*
X0018562Y0013912D02*
X0018937D01*
Y0014100D02*
X0018562D01*
X0018750Y0014287D02*
Y0013912D01*
X0007562Y0014287D02*
Y0013912D01*
X0007937Y0014287D02*
X0007562D01*
X0007937Y0013912D02*
Y0014287D01*
X0007562Y0013912D02*
X0007937D01*
Y0014100D02*
X0007562D01*
X0007750Y0014287D02*
Y0013912D01*
X0002562Y0014287D02*
Y0013912D01*
X0002937Y0014287D02*
X0002562D01*
X0002937Y0013912D02*
Y0014287D01*
X0002562Y0013912D02*
X0002937D01*
Y0014100D02*
X0002562D01*
X0002750Y0014287D02*
Y0013912D01*
X0001562Y0014287D02*
Y0013912D01*
X0001937Y0014287D02*
X0001562D01*
X0001937Y0013912D02*
Y0014287D01*
X0001562Y0013912D02*
X0001937D01*
Y0014100D02*
X0001562D01*
X0001750Y0014287D02*
Y0013912D01*
X0000562Y0014287D02*
Y0013912D01*
X0000937Y0014287D02*
X0000562D01*
X0000937Y0013912D02*
Y0014287D01*
X0000562Y0013912D02*
X0000937D01*
Y0014100D02*
X0000562D01*
X0000750Y0014287D02*
Y0013912D01*
X0025062Y0013287D02*
Y0012912D01*
X0025437Y0013287D02*
X0025062D01*
X0025437Y0012912D02*
Y0013287D01*
X0025062Y0012912D02*
X0025437D01*
Y0013100D02*
X0025062D01*
X0025250Y0013287D02*
Y0012912D01*
X0024062Y0013287D02*
Y0012912D01*
X0024437Y0013287D02*
X0024062D01*
X0024437Y0012912D02*
Y0013287D01*
X0024062Y0012912D02*
X0024437D01*
Y0013100D02*
X0024062D01*
X0024250Y0013287D02*
Y0012912D01*
X0023062Y0013287D02*
Y0012912D01*
X0023437Y0013287D02*
X0023062D01*
X0023437Y0012912D02*
Y0013287D01*
X0023062Y0012912D02*
X0023437D01*
Y0013100D02*
X0023062D01*
X0023250Y0013287D02*
Y0012912D01*
X0022062Y0013287D02*
Y0012912D01*
X0022437Y0013287D02*
X0022062D01*
X0022437Y0012912D02*
Y0013287D01*
X0022062Y0012912D02*
X0022437D01*
Y0013100D02*
X0022062D01*
X0022250Y0013287D02*
Y0012912D01*
X0021062Y0013287D02*
Y0012912D01*
X0021437Y0013287D02*
X0021062D01*
X0021437Y0012912D02*
Y0013287D01*
X0021062Y0012912D02*
X0021437D01*
Y0013100D02*
X0021062D01*
X0021250Y0013287D02*
Y0012912D01*
X0020062Y0013287D02*
Y0012912D01*
X0020437Y0013287D02*
X0020062D01*
X0020437Y0012912D02*
Y0013287D01*
X0020062Y0012912D02*
X0020437D01*
Y0013100D02*
X0020062D01*
X0020250Y0013287D02*
Y0012912D01*
X0019062Y0013287D02*
Y0012912D01*
X0019437Y0013287D02*
X0019062D01*
X0019437Y0012912D02*
Y0013287D01*
X0019062Y0012912D02*
X0019437D01*
Y0013100D02*
X0019062D01*
X0019250Y0013287D02*
Y0012912D01*
X0018062Y0013287D02*
Y0012912D01*
X0018437Y0013287D02*
X0018062D01*
X0018437Y0012912D02*
Y0013287D01*
X0018062Y0012912D02*
X0018437D01*
Y0013100D02*
X0018062D01*
X0018250Y0013287D02*
Y0012912D01*
X0025462Y0017912D02*
Y0017537D01*
X0025837Y0017912D02*
X0025462D01*
X0025837Y0017537D02*
Y0017912D01*
X0025462Y0017537D02*
X0025837D01*
Y0017725D02*
X0025462D01*
X0025650Y0017912D02*
Y0017537D01*
X0025937Y0017262D02*
Y0016887D01*
X0026312Y0017262D02*
X0025937D01*
X0026312Y0016887D02*
Y0017262D01*
X0025937Y0016887D02*
X0026312D01*
Y0017075D02*
X0025937D01*
X0026125Y0017262D02*
Y0016887D01*
X0026437Y0010287D02*
Y0009912D01*
X0026812Y0010287D02*
X0026437D01*
X0026812Y0009912D02*
Y0010287D01*
X0026437Y0009912D02*
X0026812D01*
Y0010100D02*
X0026437D01*
X0026625Y0010287D02*
Y0009912D01*
X0015062Y0017262D02*
Y0016887D01*
X0015437Y0017262D02*
X0015062D01*
X0015437Y0016887D02*
Y0017262D01*
X0015062Y0016887D02*
X0015437D01*
Y0017075D02*
X0015062D01*
X0015250Y0017262D02*
Y0016887D01*
X0014062Y0017262D02*
Y0016887D01*
X0014437Y0017262D02*
X0014062D01*
X0014437Y0016887D02*
Y0017262D01*
X0014062Y0016887D02*
X0014437D01*
Y0017075D02*
X0014062D01*
X0014250Y0017262D02*
Y0016887D01*
X0007237Y0020237D02*
Y0019862D01*
X0007612Y0020237D02*
X0007237D01*
X0007612Y0019862D02*
Y0020237D01*
X0007237Y0019862D02*
X0007612D01*
Y0020050D02*
X0007237D01*
X0007425Y0020237D02*
Y0019862D01*
X0008062Y0013287D02*
Y0012912D01*
X0008437Y0013287D02*
X0008062D01*
X0008437Y0012912D02*
Y0013287D01*
X0008062Y0012912D02*
X0008437D01*
Y0013100D02*
X0008062D01*
X0008250Y0013287D02*
Y0012912D01*
X0007062Y0013287D02*
Y0012912D01*
X0007437Y0013287D02*
X0007062D01*
X0007437Y0012912D02*
Y0013287D01*
X0007062Y0012912D02*
X0007437D01*
Y0013100D02*
X0007062D01*
X0007250Y0013287D02*
Y0012912D01*
X0003062Y0013287D02*
Y0012912D01*
X0003437Y0013287D02*
X0003062D01*
X0003437Y0012912D02*
Y0013287D01*
X0003062Y0012912D02*
X0003437D01*
Y0013100D02*
X0003062D01*
X0003250Y0013287D02*
Y0012912D01*
X0002062Y0013287D02*
Y0012912D01*
X0002437Y0013287D02*
X0002062D01*
X0002437Y0012912D02*
Y0013287D01*
X0002062Y0012912D02*
X0002437D01*
Y0013100D02*
X0002062D01*
X0002250Y0013287D02*
Y0012912D01*
X0001062Y0013287D02*
Y0012912D01*
X0001437Y0013287D02*
X0001062D01*
X0001437Y0012912D02*
Y0013287D01*
X0001062Y0012912D02*
X0001437D01*
Y0013100D02*
X0001062D01*
X0001250Y0013287D02*
Y0012912D01*
X0025562Y0012287D02*
Y0011912D01*
X0025937Y0012287D02*
X0025562D01*
X0025937Y0011912D02*
Y0012287D01*
X0025562Y0011912D02*
X0025937D01*
Y0012100D02*
X0025562D01*
X0025750Y0012287D02*
Y0011912D01*
X0024562Y0012287D02*
Y0011912D01*
X0024937Y0012287D02*
X0024562D01*
X0024937Y0011912D02*
Y0012287D01*
X0024562Y0011912D02*
X0024937D01*
Y0012100D02*
X0024562D01*
X0024750Y0012287D02*
Y0011912D01*
X0023562Y0012287D02*
Y0011912D01*
X0023937Y0012287D02*
X0023562D01*
X0023937Y0011912D02*
Y0012287D01*
X0023562Y0011912D02*
X0023937D01*
Y0012100D02*
X0023562D01*
X0023750Y0012287D02*
Y0011912D01*
X0022562Y0012287D02*
Y0011912D01*
X0022937Y0012287D02*
X0022562D01*
X0022937Y0011912D02*
Y0012287D01*
X0022562Y0011912D02*
X0022937D01*
Y0012100D02*
X0022562D01*
X0022750Y0012287D02*
Y0011912D01*
X0021562Y0012287D02*
Y0011912D01*
X0021937Y0012287D02*
X0021562D01*
X0021937Y0011912D02*
Y0012287D01*
X0021562Y0011912D02*
X0021937D01*
Y0012100D02*
X0021562D01*
X0021750Y0012287D02*
Y0011912D01*
X0020562Y0012287D02*
Y0011912D01*
X0020937Y0012287D02*
X0020562D01*
X0020937Y0011912D02*
Y0012287D01*
X0020562Y0011912D02*
X0020937D01*
Y0012100D02*
X0020562D01*
X0020750Y0012287D02*
Y0011912D01*
X0019562Y0012287D02*
Y0011912D01*
X0019937Y0012287D02*
X0019562D01*
X0019937Y0011912D02*
Y0012287D01*
X0019562Y0011912D02*
X0019937D01*
Y0012100D02*
X0019562D01*
X0019750Y0012287D02*
Y0011912D01*
X0018562Y0012287D02*
Y0011912D01*
X0018937Y0012287D02*
X0018562D01*
X0018937Y0011912D02*
Y0012287D01*
X0018562Y0011912D02*
X0018937D01*
Y0012100D02*
X0018562D01*
X0018750Y0012287D02*
Y0011912D01*
X0017687Y0012287D02*
Y0011912D01*
X0018062Y0012287D02*
X0017687D01*
X0018062Y0011912D02*
Y0012287D01*
X0017687Y0011912D02*
X0018062D01*
Y0012100D02*
X0017687D01*
X0017875Y0012287D02*
Y0011912D01*
X0026437Y0016262D02*
Y0015887D01*
X0026812Y0016262D02*
X0026437D01*
X0026812Y0015887D02*
Y0016262D01*
X0026437Y0015887D02*
X0026812D01*
Y0016075D02*
X0026437D01*
X0026625Y0016262D02*
Y0015887D01*
X0027612Y0008337D02*
Y0007962D01*
X0027987Y0008337D02*
X0027612D01*
X0027987Y0007962D02*
Y0008337D01*
X0027612Y0007962D02*
X0027987D01*
Y0008150D02*
X0027612D01*
X0027800Y0008337D02*
Y0007962D01*
X0025937Y0009287D02*
Y0008912D01*
X0026312Y0009287D02*
X0025937D01*
X0026312Y0008912D02*
Y0009287D01*
X0025937Y0008912D02*
X0026312D01*
Y0009100D02*
X0025937D01*
X0026125Y0009287D02*
Y0008912D01*
X0014562Y0016262D02*
Y0015887D01*
X0014937Y0016262D02*
X0014562D01*
X0014937Y0015887D02*
Y0016262D01*
X0014562Y0015887D02*
X0014937D01*
Y0016075D02*
X0014562D01*
X0014750Y0016262D02*
Y0015887D01*
X0013512Y0016237D02*
Y0015862D01*
X0013887Y0016237D02*
X0013512D01*
X0013887Y0015862D02*
Y0016237D01*
X0013512Y0015862D02*
X0013887D01*
Y0016050D02*
X0013512D01*
X0013700Y0016237D02*
Y0015862D01*
X0013012Y0017812D02*
Y0017437D01*
X0013387Y0017812D02*
X0013012D01*
X0013387Y0017437D02*
Y0017812D01*
X0013012Y0017437D02*
X0013387D01*
Y0017625D02*
X0013012D01*
X0013200Y0017812D02*
Y0017437D01*
X0018637Y0002237D02*
Y0001862D01*
X0019012Y0002237D02*
X0018637D01*
X0019012Y0001862D02*
Y0002237D01*
X0018637Y0001862D02*
X0019012D01*
Y0002050D02*
X0018637D01*
X0018825Y0002237D02*
Y0001862D01*
X0008412Y0012287D02*
Y0011912D01*
X0008787Y0012287D02*
X0008412D01*
X0008787Y0011912D02*
Y0012287D01*
X0008412Y0011912D02*
X0008787D01*
Y0012100D02*
X0008412D01*
X0008600Y0012287D02*
Y0011912D01*
X0007562Y0012287D02*
Y0011912D01*
X0007937Y0012287D02*
X0007562D01*
X0007937Y0011912D02*
Y0012287D01*
X0007562Y0011912D02*
X0007937D01*
Y0012100D02*
X0007562D01*
X0007750Y0012287D02*
Y0011912D01*
X0002587Y0012287D02*
Y0011912D01*
X0002962Y0012287D02*
X0002587D01*
X0002962Y0011912D02*
Y0012287D01*
X0002587Y0011912D02*
X0002962D01*
Y0012100D02*
X0002587D01*
X0002775Y0012287D02*
Y0011912D01*
X0001562Y0012287D02*
Y0011912D01*
X0001937Y0012287D02*
X0001562D01*
X0001937Y0011912D02*
Y0012287D01*
X0001562Y0011912D02*
X0001937D01*
Y0012100D02*
X0001562D01*
X0001750Y0012287D02*
Y0011912D01*
X0000562Y0012287D02*
Y0011912D01*
X0000937Y0012287D02*
X0000562D01*
X0000937Y0011912D02*
Y0012287D01*
X0000562Y0011912D02*
X0000937D01*
Y0012100D02*
X0000562D01*
X0000750Y0012287D02*
Y0011912D01*
X0025062Y0011287D02*
Y0010912D01*
X0025437Y0011287D02*
X0025062D01*
X0025437Y0010912D02*
Y0011287D01*
X0025062Y0010912D02*
X0025437D01*
Y0011100D02*
X0025062D01*
X0025250Y0011287D02*
Y0010912D01*
X0024062Y0011287D02*
Y0010912D01*
X0024437Y0011287D02*
X0024062D01*
X0024437Y0010912D02*
Y0011287D01*
X0024062Y0010912D02*
X0024437D01*
Y0011100D02*
X0024062D01*
X0024250Y0011287D02*
Y0010912D01*
X0023062Y0011287D02*
Y0010912D01*
X0023437Y0011287D02*
X0023062D01*
X0023437Y0010912D02*
Y0011287D01*
X0023062Y0010912D02*
X0023437D01*
Y0011100D02*
X0023062D01*
X0023250Y0011287D02*
Y0010912D01*
X0022062Y0011287D02*
Y0010912D01*
X0022437Y0011287D02*
X0022062D01*
X0022437Y0010912D02*
Y0011287D01*
X0022062Y0010912D02*
X0022437D01*
Y0011100D02*
X0022062D01*
X0022250Y0011287D02*
Y0010912D01*
X0021062Y0011287D02*
Y0010912D01*
X0021437Y0011287D02*
X0021062D01*
X0021437Y0010912D02*
Y0011287D01*
X0021062Y0010912D02*
X0021437D01*
Y0011100D02*
X0021062D01*
X0021250Y0011287D02*
Y0010912D01*
X0020062Y0011287D02*
Y0010912D01*
X0020437Y0011287D02*
X0020062D01*
X0020437Y0010912D02*
Y0011287D01*
X0020062Y0010912D02*
X0020437D01*
Y0011100D02*
X0020062D01*
X0020250Y0011287D02*
Y0010912D01*
X0019062Y0011287D02*
Y0010912D01*
X0019437Y0011287D02*
X0019062D01*
X0019437Y0010912D02*
Y0011287D01*
X0019062Y0010912D02*
X0019437D01*
Y0011100D02*
X0019062D01*
X0019250Y0011287D02*
Y0010912D01*
X0018062Y0011287D02*
Y0010912D01*
X0018437Y0011287D02*
X0018062D01*
X0018437Y0010912D02*
Y0011287D01*
X0018062Y0010912D02*
X0018437D01*
Y0011100D02*
X0018062D01*
X0018250Y0011287D02*
Y0010912D01*
X0026437Y0017912D02*
Y0017537D01*
X0026812Y0017912D02*
X0026437D01*
X0026812Y0017537D02*
Y0017912D01*
X0026437Y0017537D02*
X0026812D01*
Y0017725D02*
X0026437D01*
X0026625Y0017912D02*
Y0017537D01*
X0025937Y0015262D02*
Y0014887D01*
X0026312Y0015262D02*
X0025937D01*
X0026312Y0014887D02*
Y0015262D01*
X0025937Y0014887D02*
X0026312D01*
Y0015075D02*
X0025937D01*
X0026125Y0015262D02*
Y0014887D01*
X0026437Y0008287D02*
Y0007912D01*
X0026812Y0008287D02*
X0026437D01*
X0026812Y0007912D02*
Y0008287D01*
X0026437Y0007912D02*
X0026812D01*
Y0008100D02*
X0026437D01*
X0026625Y0008287D02*
Y0007912D01*
X0017012Y0015487D02*
Y0015112D01*
X0017387Y0015487D02*
X0017012D01*
X0017387Y0015112D02*
Y0015487D01*
X0017012Y0015112D02*
X0017387D01*
Y0015300D02*
X0017012D01*
X0017200Y0015487D02*
Y0015112D01*
X0016087Y0015512D02*
Y0015137D01*
X0016462Y0015512D02*
X0016087D01*
X0016462Y0015137D02*
Y0015512D01*
X0016087Y0015137D02*
X0016462D01*
Y0015325D02*
X0016087D01*
X0016275Y0015512D02*
Y0015137D01*
X0012212Y0017012D02*
Y0016637D01*
X0012587Y0017012D02*
X0012212D01*
X0012587Y0016637D02*
Y0017012D01*
X0012212Y0016637D02*
X0012587D01*
Y0016825D02*
X0012212D01*
X0012400Y0017012D02*
Y0016637D01*
X0010962Y0016987D02*
Y0016612D01*
X0011337Y0016987D02*
X0010962D01*
X0011337Y0016612D02*
Y0016987D01*
X0010962Y0016612D02*
X0011337D01*
Y0016800D02*
X0010962D01*
X0011150Y0016987D02*
Y0016612D01*
X0017687Y0002237D02*
Y0001862D01*
X0018062Y0002237D02*
X0017687D01*
X0018062Y0001862D02*
Y0002237D01*
X0017687Y0001862D02*
X0018062D01*
Y0002050D02*
X0017687D01*
X0017875Y0002237D02*
Y0001862D01*
X0008062Y0011287D02*
Y0010912D01*
X0008437Y0011287D02*
X0008062D01*
X0008437Y0010912D02*
Y0011287D01*
X0008062Y0010912D02*
X0008437D01*
Y0011100D02*
X0008062D01*
X0008250Y0011287D02*
Y0010912D01*
X0003062Y0011287D02*
Y0010912D01*
X0003437Y0011287D02*
X0003062D01*
X0003437Y0010912D02*
Y0011287D01*
X0003062Y0010912D02*
X0003437D01*
Y0011100D02*
X0003062D01*
X0003250Y0011287D02*
Y0010912D01*
X0002062Y0011287D02*
Y0010912D01*
X0002437Y0011287D02*
X0002062D01*
X0002437Y0010912D02*
Y0011287D01*
X0002062Y0010912D02*
X0002437D01*
Y0011100D02*
X0002062D01*
X0002250Y0011287D02*
Y0010912D01*
X0001062Y0011287D02*
Y0010912D01*
X0001437Y0011287D02*
X0001062D01*
X0001437Y0010912D02*
Y0011287D01*
X0001062Y0010912D02*
X0001437D01*
Y0011100D02*
X0001062D01*
X0001250Y0011287D02*
Y0010912D01*
X0025562Y0010287D02*
Y0009912D01*
X0025937Y0010287D02*
X0025562D01*
X0025937Y0009912D02*
Y0010287D01*
X0025562Y0009912D02*
X0025937D01*
Y0010100D02*
X0025562D01*
X0025750Y0010287D02*
Y0009912D01*
X0024562Y0010287D02*
Y0009912D01*
X0024937Y0010287D02*
X0024562D01*
X0024937Y0009912D02*
Y0010287D01*
X0024562Y0009912D02*
X0024937D01*
Y0010100D02*
X0024562D01*
X0024750Y0010287D02*
Y0009912D01*
X0023562Y0010287D02*
Y0009912D01*
X0023937Y0010287D02*
X0023562D01*
X0023937Y0009912D02*
Y0010287D01*
X0023562Y0009912D02*
X0023937D01*
Y0010100D02*
X0023562D01*
X0023750Y0010287D02*
Y0009912D01*
X0022562Y0010287D02*
Y0009912D01*
X0022937Y0010287D02*
X0022562D01*
X0022937Y0009912D02*
Y0010287D01*
X0022562Y0009912D02*
X0022937D01*
Y0010100D02*
X0022562D01*
X0022750Y0010287D02*
Y0009912D01*
X0021562Y0010287D02*
Y0009912D01*
X0021937Y0010287D02*
X0021562D01*
X0021937Y0009912D02*
Y0010287D01*
X0021562Y0009912D02*
X0021937D01*
Y0010100D02*
X0021562D01*
X0021750Y0010287D02*
Y0009912D01*
X0020562Y0010287D02*
Y0009912D01*
X0020937Y0010287D02*
X0020562D01*
X0020937Y0009912D02*
Y0010287D01*
X0020562Y0009912D02*
X0020937D01*
Y0010100D02*
X0020562D01*
X0020750Y0010287D02*
Y0009912D01*
X0019562Y0010287D02*
Y0009912D01*
X0019937Y0010287D02*
X0019562D01*
X0019937Y0009912D02*
Y0010287D01*
X0019562Y0009912D02*
X0019937D01*
Y0010100D02*
X0019562D01*
X0019750Y0010287D02*
Y0009912D01*
X0018562Y0010287D02*
Y0009912D01*
X0018937Y0010287D02*
X0018562D01*
X0018937Y0009912D02*
Y0010287D01*
X0018562Y0009912D02*
X0018937D01*
Y0010100D02*
X0018562D01*
X0018750Y0010287D02*
Y0009912D01*
X0017712Y0010287D02*
Y0009912D01*
X0018087Y0010287D02*
X0017712D01*
X0018087Y0009912D02*
Y0010287D01*
X0017712Y0009912D02*
X0018087D01*
Y0010100D02*
X0017712D01*
X0017900Y0010287D02*
Y0009912D01*
X0026387Y0012262D02*
Y0011887D01*
X0026762Y0012262D02*
X0026387D01*
X0026762Y0011887D02*
Y0012262D01*
X0026387Y0011887D02*
X0026762D01*
Y0012075D02*
X0026387D01*
X0026575Y0012262D02*
Y0011887D01*
X0026937Y0007512D02*
Y0007137D01*
X0027312Y0007512D02*
X0026937D01*
X0027312Y0007137D02*
Y0007512D01*
X0026937Y0007137D02*
X0027312D01*
Y0007325D02*
X0026937D01*
X0027125Y0007512D02*
Y0007137D01*
X0025937Y0007287D02*
Y0006912D01*
X0026312Y0007287D02*
X0025937D01*
X0026312Y0006912D02*
Y0007287D01*
X0025937Y0006912D02*
X0026312D01*
Y0007100D02*
X0025937D01*
X0026125Y0007287D02*
Y0006912D01*
X0014987Y0015512D02*
Y0015137D01*
X0015362Y0015512D02*
X0014987D01*
X0015362Y0015137D02*
Y0015512D01*
X0014987Y0015137D02*
X0015362D01*
Y0015325D02*
X0014987D01*
X0015175Y0015512D02*
Y0015137D01*
X0013987Y0015512D02*
Y0015137D01*
X0014362Y0015512D02*
X0013987D01*
X0014362Y0015137D02*
Y0015512D01*
X0013987Y0015137D02*
X0014362D01*
Y0015325D02*
X0013987D01*
X0014175Y0015512D02*
Y0015137D01*
X0014212Y0019012D02*
Y0018637D01*
X0014587Y0019012D02*
X0014212D01*
X0014587Y0018637D02*
Y0019012D01*
X0014212Y0018637D02*
X0014587D01*
Y0018825D02*
X0014212D01*
X0014400Y0019012D02*
Y0018637D01*
X0007937Y0006287D02*
Y0005912D01*
X0008312Y0006287D02*
X0007937D01*
X0008312Y0005912D02*
Y0006287D01*
X0007937Y0005912D02*
X0008312D01*
Y0006100D02*
X0007937D01*
X0008125Y0006287D02*
Y0005912D01*
X0008087Y0007362D02*
Y0006987D01*
X0008462Y0007362D02*
X0008087D01*
X0008462Y0006987D02*
Y0007362D01*
X0008087Y0006987D02*
X0008462D01*
Y0007175D02*
X0008087D01*
X0008275Y0007362D02*
Y0006987D01*
X0008412Y0010312D02*
Y0009937D01*
X0008787Y0010312D02*
X0008412D01*
X0008787Y0009937D02*
Y0010312D01*
X0008412Y0009937D02*
X0008787D01*
Y0010125D02*
X0008412D01*
X0008600Y0010312D02*
Y0009937D01*
X0007612Y0010287D02*
Y0009912D01*
X0007987Y0010287D02*
X0007612D01*
X0007987Y0009912D02*
Y0010287D01*
X0007612Y0009912D02*
X0007987D01*
Y0010100D02*
X0007612D01*
X0007800Y0010287D02*
Y0009912D01*
X0002562Y0010287D02*
Y0009912D01*
X0002937Y0010287D02*
X0002562D01*
X0002937Y0009912D02*
Y0010287D01*
X0002562Y0009912D02*
X0002937D01*
Y0010100D02*
X0002562D01*
X0002750Y0010287D02*
Y0009912D01*
X0001562Y0010287D02*
Y0009912D01*
X0001937Y0010287D02*
X0001562D01*
X0001937Y0009912D02*
Y0010287D01*
X0001562Y0009912D02*
X0001937D01*
Y0010100D02*
X0001562D01*
X0001750Y0010287D02*
Y0009912D01*
X0000562Y0010287D02*
Y0009912D01*
X0000937Y0010287D02*
X0000562D01*
X0000937Y0009912D02*
Y0010287D01*
X0000562Y0009912D02*
X0000937D01*
Y0010100D02*
X0000562D01*
X0000750Y0010287D02*
Y0009912D01*
X0025062Y0009287D02*
Y0008912D01*
X0025437Y0009287D02*
X0025062D01*
X0025437Y0008912D02*
Y0009287D01*
X0025062Y0008912D02*
X0025437D01*
Y0009100D02*
X0025062D01*
X0025250Y0009287D02*
Y0008912D01*
X0024062Y0009287D02*
Y0008912D01*
X0024437Y0009287D02*
X0024062D01*
X0024437Y0008912D02*
Y0009287D01*
X0024062Y0008912D02*
X0024437D01*
Y0009100D02*
X0024062D01*
X0024250Y0009287D02*
Y0008912D01*
X0021062Y0009287D02*
Y0008912D01*
X0021437Y0009287D02*
X0021062D01*
X0021437Y0008912D02*
Y0009287D01*
X0021062Y0008912D02*
X0021437D01*
Y0009100D02*
X0021062D01*
X0021250Y0009287D02*
Y0008912D01*
X0020062Y0009287D02*
Y0008912D01*
X0020437Y0009287D02*
X0020062D01*
X0020437Y0008912D02*
Y0009287D01*
X0020062Y0008912D02*
X0020437D01*
Y0009100D02*
X0020062D01*
X0020250Y0009287D02*
Y0008912D01*
X0019062Y0009287D02*
Y0008912D01*
X0019437Y0009287D02*
X0019062D01*
X0019437Y0008912D02*
Y0009287D01*
X0019062Y0008912D02*
X0019437D01*
Y0009100D02*
X0019062D01*
X0019250Y0009287D02*
Y0008912D01*
X0025937Y0011262D02*
Y0010887D01*
X0026312Y0011262D02*
X0025937D01*
X0026312Y0010887D02*
Y0011262D01*
X0025937Y0010887D02*
X0026312D01*
Y0011075D02*
X0025937D01*
X0026125Y0011262D02*
Y0010887D01*
X0025937Y0013262D02*
Y0012887D01*
X0026312Y0013262D02*
X0025937D01*
X0026312Y0012887D02*
Y0013262D01*
X0025937Y0012887D02*
X0026312D01*
Y0013075D02*
X0025937D01*
X0026125Y0013262D02*
Y0012887D01*
X0015087Y0003312D02*
Y0002937D01*
X0015462Y0003312D02*
X0015087D01*
X0015462Y0002937D02*
Y0003312D01*
X0015087Y0002937D02*
X0015462D01*
Y0003125D02*
X0015087D01*
X0015275Y0003312D02*
Y0002937D01*
X0014612Y0004187D02*
Y0003812D01*
X0014987Y0004187D02*
X0014612D01*
X0014987Y0003812D02*
Y0004187D01*
X0014612Y0003812D02*
X0014987D01*
Y0004000D02*
X0014612D01*
X0014800Y0004187D02*
Y0003812D01*
X0013462Y0002262D02*
Y0001887D01*
X0013837Y0002262D02*
X0013462D01*
X0013837Y0001887D02*
Y0002262D01*
X0013462Y0001887D02*
X0013837D01*
Y0002075D02*
X0013462D01*
X0013650Y0002262D02*
Y0001887D01*
X0012462Y0002262D02*
Y0001887D01*
X0012837Y0002262D02*
X0012462D01*
X0012837Y0001887D02*
Y0002262D01*
X0012462Y0001887D02*
X0012837D01*
Y0002075D02*
X0012462D01*
X0012650Y0002262D02*
Y0001887D01*
X0004512Y0004012D02*
Y0003637D01*
X0004887Y0004012D02*
X0004512D01*
X0004887Y0003637D02*
Y0004012D01*
X0004512Y0003637D02*
X0004887D01*
Y0003825D02*
X0004512D01*
X0004700Y0004012D02*
Y0003637D01*
X0005587Y0004787D02*
Y0004412D01*
X0005962Y0004787D02*
X0005587D01*
X0005962Y0004412D02*
Y0004787D01*
X0005587Y0004412D02*
X0005962D01*
Y0004600D02*
X0005587D01*
X0005775Y0004787D02*
Y0004412D01*
X0004587Y0004787D02*
Y0004412D01*
X0004962Y0004787D02*
X0004587D01*
X0004962Y0004412D02*
Y0004787D01*
X0004587Y0004412D02*
X0004962D01*
Y0004600D02*
X0004587D01*
X0004775Y0004787D02*
Y0004412D01*
X0008062Y0009287D02*
Y0008912D01*
X0008437Y0009287D02*
X0008062D01*
X0008437Y0008912D02*
Y0009287D01*
X0008062Y0008912D02*
X0008437D01*
Y0009100D02*
X0008062D01*
X0008250Y0009287D02*
Y0008912D01*
X0003062Y0009287D02*
Y0008912D01*
X0003437Y0009287D02*
X0003062D01*
X0003437Y0008912D02*
Y0009287D01*
X0003062Y0008912D02*
X0003437D01*
Y0009100D02*
X0003062D01*
X0003250Y0009287D02*
Y0008912D01*
X0001087Y0009312D02*
Y0008937D01*
X0001462Y0009312D02*
X0001087D01*
X0001462Y0008937D02*
Y0009312D01*
X0001087Y0008937D02*
X0001462D01*
Y0009125D02*
X0001087D01*
X0001275Y0009312D02*
Y0008937D01*
X0025562Y0008287D02*
Y0007912D01*
X0025937Y0008287D02*
X0025562D01*
X0025937Y0007912D02*
Y0008287D01*
X0025562Y0007912D02*
X0025937D01*
Y0008100D02*
X0025562D01*
X0025750Y0008287D02*
Y0007912D01*
X0024562Y0008287D02*
Y0007912D01*
X0024937Y0008287D02*
X0024562D01*
X0024937Y0007912D02*
Y0008287D01*
X0024562Y0007912D02*
X0024937D01*
Y0008100D02*
X0024562D01*
X0024750Y0008287D02*
Y0007912D01*
X0023562Y0008287D02*
Y0007912D01*
X0023937Y0008287D02*
X0023562D01*
X0023937Y0007912D02*
Y0008287D01*
X0023562Y0007912D02*
X0023937D01*
Y0008100D02*
X0023562D01*
X0023750Y0008287D02*
Y0007912D01*
X0021637Y0008437D02*
Y0008062D01*
X0022012Y0008437D02*
X0021637D01*
X0022012Y0008062D02*
Y0008437D01*
X0021637Y0008062D02*
X0022012D01*
Y0008250D02*
X0021637D01*
X0021825Y0008437D02*
Y0008062D01*
X0020637Y0008437D02*
Y0008062D01*
X0021012Y0008437D02*
X0020637D01*
X0021012Y0008062D02*
Y0008437D01*
X0020637Y0008062D02*
X0021012D01*
Y0008250D02*
X0020637D01*
X0020825Y0008437D02*
Y0008062D01*
X0019812Y0007287D02*
Y0006912D01*
X0020187Y0007287D02*
X0019812D01*
X0020187Y0006912D02*
Y0007287D01*
X0019812Y0006912D02*
X0020187D01*
Y0007100D02*
X0019812D01*
X0020000Y0007287D02*
Y0006912D01*
X0019012Y0007287D02*
Y0006912D01*
X0019387Y0007287D02*
X0019012D01*
X0019387Y0006912D02*
Y0007287D01*
X0019012Y0006912D02*
X0019387D01*
Y0007100D02*
X0019012D01*
X0019200Y0007287D02*
Y0006912D01*
X0012062Y0003137D02*
Y0002762D01*
X0012437Y0003137D02*
X0012062D01*
X0012437Y0002762D02*
Y0003137D01*
X0012062Y0002762D02*
X0012437D01*
Y0002950D02*
X0012062D01*
X0012250Y0003137D02*
Y0002762D01*
X0011062Y0003137D02*
Y0002762D01*
X0011437Y0003137D02*
X0011062D01*
X0011437Y0002762D02*
Y0003137D01*
X0011062Y0002762D02*
X0011437D01*
Y0002950D02*
X0011062D01*
X0011250Y0003137D02*
Y0002762D01*
X0010062Y0003137D02*
Y0002762D01*
X0010437Y0003137D02*
X0010062D01*
X0010437Y0002762D02*
Y0003137D01*
X0010062Y0002762D02*
X0010437D01*
Y0002950D02*
X0010062D01*
X0010250Y0003137D02*
Y0002762D01*
X0009062Y0003137D02*
Y0002762D01*
X0009437Y0003137D02*
X0009062D01*
X0009437Y0002762D02*
Y0003137D01*
X0009062Y0002762D02*
X0009437D01*
Y0002950D02*
X0009062D01*
X0009250Y0003137D02*
Y0002762D01*
X0008062Y0003137D02*
Y0002762D01*
X0008437Y0003137D02*
X0008062D01*
X0008437Y0002762D02*
Y0003137D01*
X0008062Y0002762D02*
X0008437D01*
Y0002950D02*
X0008062D01*
X0008250Y0003137D02*
Y0002762D01*
X0007612Y0008287D02*
Y0007912D01*
X0007987Y0008287D02*
X0007612D01*
X0007987Y0007912D02*
Y0008287D01*
X0007612Y0007912D02*
X0007987D01*
Y0008100D02*
X0007612D01*
X0007800Y0008287D02*
Y0007912D01*
X0001562Y0008287D02*
Y0007912D01*
X0001937Y0008287D02*
X0001562D01*
X0001937Y0007912D02*
Y0008287D01*
X0001562Y0007912D02*
X0001937D01*
Y0008100D02*
X0001562D01*
X0001750Y0008287D02*
Y0007912D01*
X0000562Y0008287D02*
Y0007912D01*
X0000937Y0008287D02*
X0000562D01*
X0000937Y0007912D02*
Y0008287D01*
X0000562Y0007912D02*
X0000937D01*
Y0008100D02*
X0000562D01*
X0000750Y0008287D02*
Y0007912D01*
X0025062Y0007287D02*
Y0006912D01*
X0025437Y0007287D02*
X0025062D01*
X0025437Y0006912D02*
Y0007287D01*
X0025062Y0006912D02*
X0025437D01*
Y0007100D02*
X0025062D01*
X0025250Y0007287D02*
Y0006912D01*
X0024062Y0007287D02*
Y0006912D01*
X0024437Y0007287D02*
X0024062D01*
X0024437Y0006912D02*
Y0007287D01*
X0024062Y0006912D02*
X0024437D01*
Y0007100D02*
X0024062D01*
X0024250Y0007287D02*
Y0006912D01*
X0021937Y0006937D02*
Y0006562D01*
X0022312Y0006937D02*
X0021937D01*
X0022312Y0006562D02*
Y0006937D01*
X0021937Y0006562D02*
X0022312D01*
Y0006750D02*
X0021937D01*
X0022125Y0006937D02*
Y0006562D01*
X0021137Y0007437D02*
Y0007062D01*
X0021512Y0007437D02*
X0021137D01*
X0021512Y0007062D02*
Y0007437D01*
X0021137Y0007062D02*
X0021512D01*
Y0007250D02*
X0021137D01*
X0021325Y0007437D02*
Y0007062D01*
X0020512Y0006287D02*
Y0005912D01*
X0020887Y0006287D02*
X0020512D01*
X0020887Y0005912D02*
Y0006287D01*
X0020512Y0005912D02*
X0020887D01*
Y0006100D02*
X0020512D01*
X0020700Y0006287D02*
Y0005912D01*
X0019512Y0006287D02*
Y0005912D01*
X0019887Y0006287D02*
X0019512D01*
X0019887Y0005912D02*
Y0006287D01*
X0019512Y0005912D02*
X0019887D01*
Y0006100D02*
X0019512D01*
X0019700Y0006287D02*
Y0005912D01*
X0007037Y0003137D02*
Y0002762D01*
X0007412Y0003137D02*
X0007037D01*
X0007412Y0002762D02*
Y0003137D01*
X0007037Y0002762D02*
X0007412D01*
Y0002950D02*
X0007037D01*
X0007225Y0003137D02*
Y0002762D01*
X0006037Y0003137D02*
Y0002762D01*
X0006412Y0003137D02*
X0006037D01*
X0006412Y0002762D02*
Y0003137D01*
X0006037Y0002762D02*
X0006412D01*
Y0002950D02*
X0006037D01*
X0006225Y0003137D02*
Y0002762D01*
X0005037Y0003137D02*
Y0002762D01*
X0005412Y0003137D02*
X0005037D01*
X0005412Y0002762D02*
Y0003137D01*
X0005037Y0002762D02*
X0005412D01*
Y0002950D02*
X0005037D01*
X0005225Y0003137D02*
Y0002762D01*
X0006537Y0003987D02*
Y0003612D01*
X0006912Y0003987D02*
X0006537D01*
X0006912Y0003612D02*
Y0003987D01*
X0006537Y0003612D02*
X0006912D01*
Y0003800D02*
X0006537D01*
X0006725Y0003987D02*
Y0003612D01*
X0005537Y0003987D02*
Y0003612D01*
X0005912Y0003987D02*
X0005537D01*
X0005912Y0003612D02*
Y0003987D01*
X0005537Y0003612D02*
X0005912D01*
Y0003800D02*
X0005537D01*
X0005725Y0003987D02*
Y0003612D01*
X0002112Y0009287D02*
Y0008912D01*
X0002487Y0009287D02*
X0002112D01*
X0002487Y0008912D02*
Y0009287D01*
X0002112Y0008912D02*
X0002487D01*
Y0009100D02*
X0002112D01*
X0002300Y0009287D02*
Y0008912D01*
X0018562Y0006287D02*
Y0005912D01*
X0018937Y0006287D02*
X0018562D01*
X0018937Y0005912D02*
Y0006287D01*
X0018562Y0005912D02*
X0018937D01*
Y0006100D02*
X0018562D01*
X0018750Y0006287D02*
Y0005912D01*
X0025062Y0005287D02*
Y0004912D01*
X0025437Y0005287D02*
X0025062D01*
X0025437Y0004912D02*
Y0005287D01*
X0025062Y0004912D02*
X0025437D01*
Y0005100D02*
X0025062D01*
X0025250Y0005287D02*
Y0004912D01*
X0024062Y0005287D02*
Y0004912D01*
X0024437Y0005287D02*
X0024062D01*
X0024437Y0004912D02*
Y0005287D01*
X0024062Y0004912D02*
X0024437D01*
Y0005100D02*
X0024062D01*
X0024250Y0005287D02*
Y0004912D01*
X0023062Y0005287D02*
Y0004912D01*
X0023437Y0005287D02*
X0023062D01*
X0023437Y0004912D02*
Y0005287D01*
X0023062Y0004912D02*
X0023437D01*
Y0005100D02*
X0023062D01*
X0023250Y0005287D02*
Y0004912D01*
X0022062Y0005287D02*
Y0004912D01*
X0022437Y0005287D02*
X0022062D01*
X0022437Y0004912D02*
Y0005287D01*
X0022062Y0004912D02*
X0022437D01*
Y0005100D02*
X0022062D01*
X0022250Y0005287D02*
Y0004912D01*
X0021062Y0005287D02*
Y0004912D01*
X0021437Y0005287D02*
X0021062D01*
X0021437Y0004912D02*
Y0005287D01*
X0021062Y0004912D02*
X0021437D01*
Y0005100D02*
X0021062D01*
X0021250Y0005287D02*
Y0004912D01*
X0020062Y0005287D02*
Y0004912D01*
X0020437Y0005287D02*
X0020062D01*
X0020437Y0004912D02*
Y0005287D01*
X0020062Y0004912D02*
X0020437D01*
Y0005100D02*
X0020062D01*
X0020250Y0005287D02*
Y0004912D01*
X0019062Y0005287D02*
Y0004912D01*
X0019437Y0005287D02*
X0019062D01*
X0019437Y0004912D02*
Y0005287D01*
X0019062Y0004912D02*
X0019437D01*
Y0005100D02*
X0019062D01*
X0019250Y0005287D02*
Y0004912D01*
X0018062Y0005287D02*
Y0004912D01*
X0018437Y0005287D02*
X0018062D01*
X0018437Y0004912D02*
Y0005287D01*
X0018062Y0004912D02*
X0018437D01*
Y0005100D02*
X0018062D01*
X0018250Y0005287D02*
Y0004912D01*
X0017062Y0005287D02*
Y0004912D01*
X0017437Y0005287D02*
X0017062D01*
X0017437Y0004912D02*
Y0005287D01*
X0017062Y0004912D02*
X0017437D01*
Y0005100D02*
X0017062D01*
X0017250Y0005287D02*
Y0004912D01*
X0016062Y0005287D02*
Y0004912D01*
X0016437Y0005287D02*
X0016062D01*
X0016437Y0004912D02*
Y0005287D01*
X0016062Y0004912D02*
X0016437D01*
Y0005100D02*
X0016062D01*
X0016250Y0005287D02*
Y0004912D01*
X0015062Y0005287D02*
Y0004912D01*
X0015437Y0005287D02*
X0015062D01*
X0015437Y0004912D02*
Y0005287D01*
X0015062Y0004912D02*
X0015437D01*
Y0005100D02*
X0015062D01*
X0015250Y0005287D02*
Y0004912D01*
X0014062Y0005287D02*
Y0004912D01*
X0014437Y0005287D02*
X0014062D01*
X0014437Y0004912D02*
Y0005287D01*
X0014062Y0004912D02*
X0014437D01*
Y0005100D02*
X0014062D01*
X0014250Y0005287D02*
Y0004912D01*
X0013062Y0005287D02*
Y0004912D01*
X0013437Y0005287D02*
X0013062D01*
X0013437Y0004912D02*
Y0005287D01*
X0013062Y0004912D02*
X0013437D01*
Y0005100D02*
X0013062D01*
X0013250Y0005287D02*
Y0004912D01*
X0022562Y0004287D02*
Y0003912D01*
X0022937Y0004287D02*
X0022562D01*
X0022937Y0003912D02*
Y0004287D01*
X0022562Y0003912D02*
X0022937D01*
Y0004100D02*
X0022562D01*
X0022750Y0004287D02*
Y0003912D01*
X0021562Y0004287D02*
Y0003912D01*
X0021937Y0004287D02*
X0021562D01*
X0021937Y0003912D02*
Y0004287D01*
X0021562Y0003912D02*
X0021937D01*
Y0004100D02*
X0021562D01*
X0021750Y0004287D02*
Y0003912D01*
X0020562Y0004287D02*
Y0003912D01*
X0020937Y0004287D02*
X0020562D01*
X0020937Y0003912D02*
Y0004287D01*
X0020562Y0003912D02*
X0020937D01*
Y0004100D02*
X0020562D01*
X0020750Y0004287D02*
Y0003912D01*
X0019562Y0004287D02*
Y0003912D01*
X0019937Y0004287D02*
X0019562D01*
X0019937Y0003912D02*
Y0004287D01*
X0019562Y0003912D02*
X0019937D01*
Y0004100D02*
X0019562D01*
X0019750Y0004287D02*
Y0003912D01*
X0018562Y0004287D02*
Y0003912D01*
X0018937Y0004287D02*
X0018562D01*
X0018937Y0003912D02*
Y0004287D01*
X0018562Y0003912D02*
X0018937D01*
Y0004100D02*
X0018562D01*
X0018750Y0004287D02*
Y0003912D01*
X0017562Y0004287D02*
Y0003912D01*
X0017937Y0004287D02*
X0017562D01*
X0017937Y0003912D02*
Y0004287D01*
X0017562Y0003912D02*
X0017937D01*
Y0004100D02*
X0017562D01*
X0017750Y0004287D02*
Y0003912D01*
X0016562Y0004287D02*
Y0003912D01*
X0016937Y0004287D02*
X0016562D01*
X0016937Y0003912D02*
Y0004287D01*
X0016562Y0003912D02*
X0016937D01*
Y0004100D02*
X0016562D01*
X0016750Y0004287D02*
Y0003912D01*
X0015562Y0004287D02*
Y0003912D01*
X0015937Y0004287D02*
X0015562D01*
X0015937Y0003912D02*
Y0004287D01*
X0015562Y0003912D02*
X0015937D01*
Y0004100D02*
X0015562D01*
X0015750Y0004287D02*
Y0003912D01*
X0003587Y0004012D02*
Y0003637D01*
X0003962Y0004012D02*
X0003587D01*
X0003962Y0003637D02*
Y0004012D01*
X0003587Y0003637D02*
X0003962D01*
Y0003825D02*
X0003587D01*
X0003775Y0004012D02*
Y0003637D01*
X0002587Y0004012D02*
Y0003637D01*
X0002962Y0004012D02*
X0002587D01*
X0002962Y0003637D02*
Y0004012D01*
X0002587Y0003637D02*
X0002962D01*
Y0003825D02*
X0002587D01*
X0002775Y0004012D02*
Y0003637D01*
X0001587Y0004012D02*
Y0003637D01*
X0001962Y0004012D02*
X0001587D01*
X0001962Y0003637D02*
Y0004012D01*
X0001587Y0003637D02*
X0001962D01*
Y0003825D02*
X0001587D01*
X0001775Y0004012D02*
Y0003637D01*
X0000587Y0004012D02*
Y0003637D01*
X0000962Y0004012D02*
X0000587D01*
X0000962Y0003637D02*
Y0004012D01*
X0000587Y0003637D02*
X0000962D01*
Y0003825D02*
X0000587D01*
X0000775Y0004012D02*
Y0003637D01*
X0021887Y0003287D02*
Y0002912D01*
X0022262Y0003287D02*
X0021887D01*
X0022262Y0002912D02*
Y0003287D01*
X0021887Y0002912D02*
X0022262D01*
Y0003100D02*
X0021887D01*
X0022075Y0003287D02*
Y0002912D01*
X0021062Y0003287D02*
Y0002912D01*
X0021437Y0003287D02*
X0021062D01*
X0021437Y0002912D02*
Y0003287D01*
X0021062Y0002912D02*
X0021437D01*
Y0003100D02*
X0021062D01*
X0021250Y0003287D02*
Y0002912D01*
X0020062Y0003287D02*
Y0002912D01*
X0020437Y0003287D02*
X0020062D01*
X0020437Y0002912D02*
Y0003287D01*
X0020062Y0002912D02*
X0020437D01*
Y0003100D02*
X0020062D01*
X0020250Y0003287D02*
Y0002912D01*
X0017062Y0003287D02*
Y0002912D01*
X0017437Y0003287D02*
X0017062D01*
X0017437Y0002912D02*
Y0003287D01*
X0017062Y0002912D02*
X0017437D01*
Y0003100D02*
X0017062D01*
X0017250Y0003287D02*
Y0002912D01*
X0016062Y0003287D02*
Y0002912D01*
X0016437Y0003287D02*
X0016062D01*
X0016437Y0002912D02*
Y0003287D01*
X0016062Y0002912D02*
X0016437D01*
Y0003100D02*
X0016062D01*
X0016250Y0003287D02*
Y0002912D01*
X0004062Y0003287D02*
Y0002912D01*
X0004437Y0003287D02*
X0004062D01*
X0004437Y0002912D02*
Y0003287D01*
X0004062Y0002912D02*
X0004437D01*
Y0003100D02*
X0004062D01*
X0004250Y0003287D02*
Y0002912D01*
X0002062Y0003162D02*
Y0002787D01*
X0002437Y0003162D02*
X0002062D01*
X0002437Y0002787D02*
Y0003162D01*
X0002062Y0002787D02*
X0002437D01*
Y0002975D02*
X0002062D01*
X0002250Y0003162D02*
Y0002787D01*
X0020562Y0002287D02*
Y0001912D01*
X0020937Y0002287D02*
X0020562D01*
X0020937Y0001912D02*
Y0002287D01*
X0020562Y0001912D02*
X0020937D01*
Y0002100D02*
X0020562D01*
X0020750Y0002287D02*
Y0001912D01*
X0019562Y0002287D02*
Y0001912D01*
X0019937Y0002287D02*
X0019562D01*
X0019937Y0001912D02*
Y0002287D01*
X0019562Y0001912D02*
X0019937D01*
Y0002100D02*
X0019562D01*
X0019750Y0002287D02*
Y0001912D01*
X0016562Y0002287D02*
Y0001912D01*
X0016937Y0002287D02*
X0016562D01*
X0016937Y0001912D02*
Y0002287D01*
X0016562Y0001912D02*
X0016937D01*
Y0002100D02*
X0016562D01*
X0016750Y0002287D02*
Y0001912D01*
X0015562Y0002287D02*
Y0001912D01*
X0015937Y0002287D02*
X0015562D01*
X0015937Y0001912D02*
Y0002287D01*
X0015562Y0001912D02*
X0015937D01*
Y0002100D02*
X0015562D01*
X0015750Y0002287D02*
Y0001912D01*
X0011562Y0002287D02*
Y0001912D01*
X0011937Y0002287D02*
X0011562D01*
X0011937Y0001912D02*
Y0002287D01*
X0011562Y0001912D02*
X0011937D01*
Y0002100D02*
X0011562D01*
X0011750Y0002287D02*
Y0001912D01*
X0010562Y0002287D02*
Y0001912D01*
X0010937Y0002287D02*
X0010562D01*
X0010937Y0001912D02*
Y0002287D01*
X0010562Y0001912D02*
X0010937D01*
Y0002100D02*
X0010562D01*
X0010750Y0002287D02*
Y0001912D01*
X0009562Y0002287D02*
Y0001912D01*
X0009937Y0002287D02*
X0009562D01*
X0009937Y0001912D02*
Y0002287D01*
X0009562Y0001912D02*
X0009937D01*
Y0002100D02*
X0009562D01*
X0009750Y0002287D02*
Y0001912D01*
X0008562Y0002287D02*
Y0001912D01*
X0008937Y0002287D02*
X0008562D01*
X0008937Y0001912D02*
Y0002287D01*
X0008562Y0001912D02*
X0008937D01*
Y0002100D02*
X0008562D01*
X0008750Y0002287D02*
Y0001912D01*
X0007562Y0002287D02*
Y0001912D01*
X0007937Y0002287D02*
X0007562D01*
X0007937Y0001912D02*
Y0002287D01*
X0007562Y0001912D02*
X0007937D01*
Y0002100D02*
X0007562D01*
X0007750Y0002287D02*
Y0001912D01*
X0006562Y0002287D02*
Y0001912D01*
X0006937Y0002287D02*
X0006562D01*
X0006937Y0001912D02*
Y0002287D01*
X0006562Y0001912D02*
X0006937D01*
Y0002100D02*
X0006562D01*
X0006750Y0002287D02*
Y0001912D01*
X0005562Y0002287D02*
Y0001912D01*
X0005937Y0002287D02*
X0005562D01*
X0005937Y0001912D02*
Y0002287D01*
X0005562Y0001912D02*
X0005937D01*
Y0002100D02*
X0005562D01*
X0005750Y0002287D02*
Y0001912D01*
X0004562Y0002287D02*
Y0001912D01*
X0004937Y0002287D02*
X0004562D01*
X0004937Y0001912D02*
Y0002287D01*
X0004562Y0001912D02*
X0004937D01*
Y0002100D02*
X0004562D01*
X0004750Y0002287D02*
Y0001912D01*
X0003562Y0002287D02*
Y0001912D01*
X0003937Y0002287D02*
X0003562D01*
X0003937Y0001912D02*
Y0002287D01*
X0003562Y0001912D02*
X0003937D01*
Y0002100D02*
X0003562D01*
X0003750Y0002287D02*
Y0001912D01*
X0002487Y0002287D02*
Y0001912D01*
X0002862Y0002287D02*
X0002487D01*
X0002862Y0001912D02*
Y0002287D01*
X0002487Y0001912D02*
X0002862D01*
Y0002100D02*
X0002487D01*
X0002675Y0002287D02*
Y0001912D01*
X0001562Y0002287D02*
Y0001912D01*
X0001937Y0002287D02*
X0001562D01*
X0001937Y0001912D02*
Y0002287D01*
X0001562Y0001912D02*
X0001937D01*
Y0002100D02*
X0001562D01*
X0001750Y0002287D02*
Y0001912D01*
X0000737Y0001212D02*
Y0000837D01*
X0001112Y0001212D02*
X0000737D01*
X0001112Y0000837D02*
Y0001212D01*
X0000737Y0000837D02*
X0001112D01*
Y0001025D02*
X0000737D01*
X0000925Y0001212D02*
Y0000837D01*
X0019062Y0001287D02*
Y0000912D01*
X0019437Y0001287D02*
X0019062D01*
X0019437Y0000912D02*
Y0001287D01*
X0019062Y0000912D02*
X0019437D01*
Y0001100D02*
X0019062D01*
X0019250Y0001287D02*
Y0000912D01*
X0012062Y0001287D02*
Y0000912D01*
X0012437Y0001287D02*
X0012062D01*
X0012437Y0000912D02*
Y0001287D01*
X0012062Y0000912D02*
X0012437D01*
Y0001100D02*
X0012062D01*
X0012250Y0001287D02*
Y0000912D01*
X0011062Y0001287D02*
Y0000912D01*
X0011437Y0001287D02*
X0011062D01*
X0011437Y0000912D02*
Y0001287D01*
X0011062Y0000912D02*
X0011437D01*
Y0001100D02*
X0011062D01*
X0011250Y0001287D02*
Y0000912D01*
X0010062Y0001287D02*
Y0000912D01*
X0010437Y0001287D02*
X0010062D01*
X0010437Y0000912D02*
Y0001287D01*
X0010062Y0000912D02*
X0010437D01*
Y0001100D02*
X0010062D01*
X0010250Y0001287D02*
Y0000912D01*
X0009062Y0001287D02*
Y0000912D01*
X0009437Y0001287D02*
X0009062D01*
X0009437Y0000912D02*
Y0001287D01*
X0009062Y0000912D02*
X0009437D01*
Y0001100D02*
X0009062D01*
X0009250Y0001287D02*
Y0000912D01*
X0008062Y0001287D02*
Y0000912D01*
X0008437Y0001287D02*
X0008062D01*
X0008437Y0000912D02*
Y0001287D01*
X0008062Y0000912D02*
X0008437D01*
Y0001100D02*
X0008062D01*
X0008250Y0001287D02*
Y0000912D01*
X0007062Y0001287D02*
Y0000912D01*
X0007437Y0001287D02*
X0007062D01*
X0007437Y0000912D02*
Y0001287D01*
X0007062Y0000912D02*
X0007437D01*
Y0001100D02*
X0007062D01*
X0007250Y0001287D02*
Y0000912D01*
X0012787Y0015587D02*
Y0015212D01*
X0013162Y0015587D02*
X0012787D01*
X0013162Y0015212D02*
Y0015587D01*
X0012787Y0015212D02*
X0013162D01*
Y0015400D02*
X0012787D01*
X0012975Y0015587D02*
Y0015212D01*
X0014812Y0019037D02*
Y0018662D01*
X0015187Y0019037D02*
X0014812D01*
X0015187Y0018662D02*
Y0019037D01*
X0014812Y0018662D02*
X0015187D01*
Y0018850D02*
X0014812D01*
X0015000Y0019037D02*
Y0018662D01*
X0005587Y0017662D02*
Y0017287D01*
X0005962Y0017662D02*
X0005587D01*
X0005962Y0017287D02*
Y0017662D01*
X0005587Y0017287D02*
X0005962D01*
Y0017475D02*
X0005587D01*
X0005775Y0017662D02*
Y0017287D01*
X0004937Y0016612D02*
Y0016237D01*
X0005312Y0016612D02*
X0004937D01*
X0005312Y0016237D02*
Y0016612D01*
X0004937Y0016237D02*
X0005312D01*
Y0016425D02*
X0004937D01*
X0005125Y0016612D02*
Y0016237D01*
X0004962Y0017287D02*
Y0016912D01*
X0005337Y0017287D02*
X0004962D01*
X0005337Y0016912D02*
Y0017287D01*
X0004962Y0016912D02*
X0005337D01*
Y0017100D02*
X0004962D01*
X0005150Y0017287D02*
Y0016912D01*
X0004637Y0016987D02*
Y0016612D01*
X0005012Y0016987D02*
X0004637D01*
X0005012Y0016612D02*
Y0016987D01*
X0004637Y0016612D02*
X0005012D01*
Y0016800D02*
X0004637D01*
X0004825Y0016987D02*
Y0016612D01*
X0004337D02*
Y0016237D01*
X0004712Y0016612D02*
X0004337D01*
X0004712Y0016237D02*
Y0016612D01*
X0004337Y0016237D02*
X0004712D01*
Y0016425D02*
X0004337D01*
X0004525Y0016612D02*
Y0016237D01*
X0003337Y0017112D02*
Y0016737D01*
X0003712Y0017112D02*
X0003337D01*
X0003712Y0016737D02*
Y0017112D01*
X0003337Y0016737D02*
X0003712D01*
Y0016925D02*
X0003337D01*
X0003525Y0017112D02*
Y0016737D01*
X0002687Y0016862D02*
Y0016487D01*
X0003062Y0016862D02*
X0002687D01*
X0003062Y0016487D02*
Y0016862D01*
X0002687Y0016487D02*
X0003062D01*
Y0016675D02*
X0002687D01*
X0002875Y0016862D02*
Y0016487D01*
X0001741Y0017483D02*
Y0017108D01*
X0002116Y0017483D02*
X0001741D01*
X0002116Y0017108D02*
Y0017483D01*
X0001741Y0017108D02*
X0002116D01*
Y0017296D02*
X0001741D01*
X0001929Y0017483D02*
Y0017108D01*
X0011162Y0018187D02*
Y0017812D01*
X0011537Y0018187D02*
X0011162D01*
X0011537Y0017812D02*
Y0018187D01*
X0011162Y0017812D02*
X0011537D01*
Y0018000D02*
X0011162D01*
X0011350Y0018187D02*
Y0017812D01*
X0011187Y0018687D02*
Y0018312D01*
X0011562Y0018687D02*
X0011187D01*
X0011562Y0018312D02*
Y0018687D01*
X0011187Y0018312D02*
X0011562D01*
Y0018500D02*
X0011187D01*
X0011375Y0018687D02*
Y0018312D01*
X0006000Y0007187D02*
X0005812Y0007000D01*
X0006187D02*
X0006000Y0007187D01*
Y0006812D02*
X0006187Y0007000D01*
X0005812D02*
X0006000Y0006812D01*
Y0008187D02*
X0005812Y0008000D01*
X0006187D02*
X0006000Y0008187D01*
Y0007812D02*
X0006187Y0008000D01*
X0005812D02*
X0006000Y0007812D01*
Y0009187D02*
X0005812Y0009000D01*
X0006187D02*
X0006000Y0009187D01*
Y0008812D02*
X0006187Y0009000D01*
X0005812D02*
X0006000Y0008812D01*
Y0010187D02*
X0005812Y0010000D01*
X0006187D02*
X0006000Y0010187D01*
Y0009812D02*
X0006187Y0010000D01*
X0005812D02*
X0006000Y0009812D01*
Y0011187D02*
X0005812Y0011000D01*
X0006187D02*
X0006000Y0011187D01*
Y0010812D02*
X0006187Y0011000D01*
X0005812D02*
X0006000Y0010812D01*
Y0012187D02*
X0005812Y0012000D01*
X0006187D02*
X0006000Y0012187D01*
Y0011812D02*
X0006187Y0012000D01*
X0005812D02*
X0006000Y0011812D01*
Y0013187D02*
X0005812Y0013000D01*
X0006187D02*
X0006000Y0013187D01*
Y0012812D02*
X0006187Y0013000D01*
X0005812D02*
X0006000Y0012812D01*
Y0014187D02*
X0005812Y0014000D01*
X0006187D02*
X0006000Y0014187D01*
Y0013812D02*
X0006187Y0014000D01*
X0005812D02*
X0006000Y0013812D01*
Y0015187D02*
X0005812Y0015000D01*
X0006187D02*
X0006000Y0015187D01*
Y0014812D02*
X0006187Y0015000D01*
X0005812D02*
X0006000Y0014812D01*
X0013187Y0001187D02*
X0012812Y0000812D01*
X0013187D02*
X0012812Y0001187D01*
X0014187D02*
X0013812Y0000812D01*
X0014187D02*
X0013812Y0001187D01*
X0015187D02*
X0014812Y0000812D01*
X0015187D02*
X0014812Y0001187D01*
X0016187D02*
X0015812Y0000812D01*
X0016187D02*
X0015812Y0001187D01*
X0017187D02*
X0016812Y0000812D01*
X0017187D02*
X0016812Y0001187D01*
X0018187D02*
X0017812Y0000812D01*
X0018187D02*
X0017812Y0001187D01*
X0016400Y0020187D02*
X0016212Y0020000D01*
X0016587D02*
X0016400Y0020187D01*
Y0019812D02*
X0016587Y0020000D01*
X0016212D02*
X0016400Y0019812D01*
X0015400Y0020187D02*
X0015212Y0020000D01*
X0015587D02*
X0015400Y0020187D01*
Y0019812D02*
X0015587Y0020000D01*
X0015212D02*
X0015400Y0019812D01*
X0014400Y0020187D02*
X0014212Y0020000D01*
X0014587D02*
X0014400Y0020187D01*
Y0019812D02*
X0014587Y0020000D01*
X0014212D02*
X0014400Y0019812D01*
X0013400Y0020187D02*
X0013212Y0020000D01*
X0013587D02*
X0013400Y0020187D01*
Y0019812D02*
X0013587Y0020000D01*
X0013212D02*
X0013400Y0019812D01*
X0012400Y0020187D02*
X0012212Y0020000D01*
X0012587D02*
X0012400Y0020187D01*
Y0019812D02*
X0012587Y0020000D01*
X0012212D02*
X0012400Y0019812D01*
X0011400Y0020187D02*
X0011212Y0020000D01*
X0011587D02*
X0011400Y0020187D01*
Y0019812D02*
X0011587Y0020000D01*
X0011212D02*
X0011400Y0019812D01*
X0010400Y0020187D02*
X0010212Y0020000D01*
X0010587D02*
X0010400Y0020187D01*
Y0019812D02*
X0010587Y0020000D01*
X0010212D02*
X0010400Y0019812D01*
X0009400Y0020187D02*
X0009212Y0020000D01*
X0009587D02*
X0009400Y0020187D01*
Y0019812D02*
X0009587Y0020000D01*
X0009212D02*
X0009400Y0019812D01*
X0020187Y0001187D02*
X0019812Y0000812D01*
X0020187D02*
X0019812Y0001187D01*
X0021187D02*
X0020812Y0000812D01*
X0021187D02*
X0020812Y0001187D01*
X0022187D02*
X0021812Y0000812D01*
X0022187D02*
X0021812Y0001187D01*
X0023187D02*
X0022812Y0000812D01*
X0023187D02*
X0022812Y0001187D01*
X0024187D02*
X0023812Y0000812D01*
X0024187D02*
X0023812Y0001187D01*
X0025187D02*
X0024812Y0000812D01*
X0025187D02*
X0024812Y0001187D01*
X0025000Y0020187D02*
X0024812Y0020000D01*
X0025187D02*
X0025000Y0020187D01*
Y0019812D02*
X0025187Y0020000D01*
X0024812D02*
X0025000Y0019812D01*
X0024000Y0020187D02*
X0023812Y0020000D01*
X0024187D02*
X0024000Y0020187D01*
Y0019812D02*
X0024187Y0020000D01*
X0023812D02*
X0024000Y0019812D01*
X0023000Y0020187D02*
X0022812Y0020000D01*
X0023187D02*
X0023000Y0020187D01*
Y0019812D02*
X0023187Y0020000D01*
X0022812D02*
X0023000Y0019812D01*
X0022000Y0020187D02*
X0021812Y0020000D01*
X0022187D02*
X0022000Y0020187D01*
Y0019812D02*
X0022187Y0020000D01*
X0021812D02*
X0022000Y0019812D01*
X0021000Y0020187D02*
X0020812Y0020000D01*
X0021187D02*
X0021000Y0020187D01*
Y0019812D02*
X0021187Y0020000D01*
X0020812D02*
X0021000Y0019812D01*
X0020000Y0020187D02*
X0019812Y0020000D01*
X0020187D02*
X0020000Y0020187D01*
Y0019812D02*
X0020187Y0020000D01*
X0019812D02*
X0020000Y0019812D01*
X0019000Y0020187D02*
X0018812Y0020000D01*
X0019187D02*
X0019000Y0020187D01*
Y0019812D02*
X0019187Y0020000D01*
X0018812D02*
X0019000Y0019812D01*
X0018000Y0020187D02*
X0017812Y0020000D01*
X0018187D02*
X0018000Y0020187D01*
Y0019812D02*
X0018187Y0020000D01*
X0017812D02*
X0018000Y0019812D01*
X0007587Y0017237D02*
X0007212Y0016862D01*
X0007587D02*
X0007212Y0017237D01*
X0007587Y0018237D02*
X0007212Y0017862D01*
X0007587D02*
X0007212Y0018237D01*
X0007587Y0019237D02*
X0007212Y0018862D01*
X0007587D02*
X0007212Y0019237D01*
X0008587D02*
X0008212Y0018862D01*
X0008587D02*
X0008212Y0019237D01*
X0008587Y0018237D02*
X0008212Y0017862D01*
X0008587D02*
X0008212Y0018237D01*
X0008587Y0017237D02*
X0008212Y0016862D01*
X0008587D02*
X0008212Y0017237D01*
X0003187Y0007187D02*
X0002812Y0006812D01*
X0003187D02*
X0002812Y0007187D01*
X0004187D02*
X0003812Y0006812D01*
X0004187D02*
X0003812Y0007187D01*
X0005187D02*
X0004812Y0006812D01*
X0005187D02*
X0004812Y0007187D01*
X0006187Y0001000D02*
X0005812D01*
X0006000Y0001187D02*
Y0000812D01*
X0006187Y0020000D02*
X0005812D01*
X0006000Y0020187D02*
Y0019812D01*
X0026187Y0003000D02*
X0025812D01*
X0026000Y0003187D02*
Y0002812D01*
X0026187Y0014000D02*
X0025812D01*
X0026000Y0014187D02*
Y0013812D01*
M02*
