*
G04 Mass Parameters ***
*
G04 Image ***
*
%INC:\SVN\HWTREE\PROJECT\NANO_SHIELD\NANO_SHIELD_RX2.SMT*%
%ICAS*%
%MOIN*%
%IPPOS*%
%ASAXBY*%
G74*%FSLAN2X34Y34*%
*
G04 Aperture Definitions ***
*
%ADD10C,0.1280*%
%ADD11C,0.0400*%
%ADD12R,0.0394X0.0394*%
%ADD13R,0.0236X0.0354*%
%ADD14R,0.0354X0.0236*%
%ADD15R,0.0390X0.0320*%
%ADD16R,0.0390X0.0390*%
%ADD17R,0.0410X0.0870*%
%ADD18C,0.0580*%
%ADD19R,0.0580X0.0580*%
%ADD20R,0.0300X0.0150*%
%ADD21R,0.0150X0.0300*%
%ADD22C,0.0620*%
%ADD23R,0.1850X0.1350*%
%ADD24O,0.0334X0.0931*%
%ADD25O,0.0931X0.0334*%
%ADD26O,0.0470X0.0140*%
%ADD27R,0.0470X0.0140*%
%ADD28C,0.0350*%
%ADD29C,0.0010*%
%ADD30C,0.0100*%
%ADD31C,0.0150*%
%ADD32C,0.0080*%
%ADD33C,0.0500*%
%ADD34C,0.0170*%
%ADD35C,0.0200*%
%ADD36R,0.1200X0.1200*%
%ADD37R,0.0472X0.0472*%
%ADD38R,0.0275X0.0393*%
%ADD39R,0.0393X0.0275*%
%ADD40R,0.0450X0.0380*%
%ADD41R,0.0450X0.0450*%
%ADD42R,0.0410X0.0750*%
%ADD43R,0.0330X0.0220*%
%ADD44R,0.0220X0.0330*%
%ADD45C,0.0640*%
%ADD46R,0.0640X0.0640*%
%ADD47C,0.0670*%
%ADD48R,0.1900X0.1400*%
%ADD49O,0.0394X0.0990*%
%ADD50O,0.0990X0.0394*%
%ADD51O,0.0510X0.0190*%
%ADD52R,0.0510X0.0190*%
%ADD53C,0.0157*%
%ADD54C,0.0079*%
*
G04 Plot Data ***
*
G54D53*
G01X0029336Y0011644D02*
X0028155D01*
X0029212D02*
Y0011584D01*
X0029070Y0011644D02*
Y0011584D01*
X0028929Y0011644D02*
Y0011584D01*
X0028787Y0011644D02*
Y0011584D01*
X0028646Y0011644D02*
Y0011584D01*
X0028504Y0011644D02*
Y0011584D01*
X0028363Y0011644D02*
Y0011584D01*
X0028221Y0011644D02*
Y0011584D01*
X0028155Y0011644D02*
Y0011584D01*
X0029336D02*
X0028155D01*
X0029336Y0011644D02*
Y0011584D01*
G54D54*
G01X0028929Y0013573D02*
Y0013514D01*
X0028858Y0013573D02*
Y0013514D01*
X0028787Y0013573D02*
Y0013514D01*
X0028717Y0013573D02*
Y0013514D01*
X0028646Y0013573D02*
Y0013514D01*
X0028575Y0013573D02*
Y0013514D01*
X0028504Y0013573D02*
Y0013514D01*
X0028433Y0013573D02*
Y0013514D01*
X0028363Y0013573D02*
Y0013514D01*
X0028292Y0013573D02*
Y0013514D01*
X0028221Y0013573D02*
Y0013514D01*
X0028155Y0013573D02*
Y0013514D01*
X0029336D02*
X0028155D01*
X0029336Y0013573D02*
Y0013514D01*
Y0013573D02*
X0028155D01*
X0029283D02*
Y0013514D01*
X0029212Y0013573D02*
Y0013514D01*
X0029141Y0013573D02*
Y0013514D01*
X0029070Y0013573D02*
Y0013514D01*
X0029000Y0013573D02*
Y0013514D01*
X0028929Y0012588D02*
Y0012529D01*
X0028858Y0012588D02*
Y0012529D01*
X0028787Y0012588D02*
Y0012529D01*
X0028717Y0012588D02*
Y0012529D01*
X0028646Y0012588D02*
Y0012529D01*
X0028575Y0012588D02*
Y0012529D01*
X0028504Y0012588D02*
Y0012529D01*
X0028433Y0012588D02*
Y0012529D01*
X0028363Y0012588D02*
Y0012529D01*
X0028292Y0012588D02*
Y0012529D01*
X0028221Y0012588D02*
Y0012529D01*
X0029336Y0012588D02*
X0028155D01*
X0029336D02*
Y0012529D01*
X0028155D01*
Y0012588D02*
Y0012529D01*
X0029283Y0012588D02*
Y0012529D01*
X0029212Y0012588D02*
Y0012529D01*
X0029141Y0012588D02*
Y0012529D01*
X0029070Y0012588D02*
Y0012529D01*
X0029000Y0012588D02*
Y0012529D01*
X0028929Y0013061D02*
Y0013002D01*
X0028858Y0013061D02*
Y0013002D01*
X0028787Y0013061D02*
Y0013002D01*
X0028717Y0013061D02*
Y0013002D01*
X0028646Y0013061D02*
Y0013002D01*
X0028575Y0013061D02*
Y0013002D01*
X0028504Y0013061D02*
Y0013002D01*
X0028433Y0013061D02*
Y0013002D01*
X0028363Y0013061D02*
Y0013002D01*
X0028292Y0013061D02*
Y0013002D01*
X0028221Y0013061D02*
Y0013002D01*
X0029336Y0013061D02*
X0028155D01*
X0029336D02*
Y0013002D01*
X0028155D01*
Y0013061D02*
Y0013002D01*
X0029283Y0013061D02*
Y0013002D01*
X0029212Y0013061D02*
Y0013002D01*
X0029141Y0013061D02*
Y0013002D01*
X0029070Y0013061D02*
Y0013002D01*
X0029000Y0013061D02*
Y0013002D01*
X0028929Y0012116D02*
Y0012057D01*
X0028858Y0012116D02*
Y0012057D01*
X0028787Y0012116D02*
Y0012057D01*
X0028717Y0012116D02*
Y0012057D01*
X0028646Y0012116D02*
Y0012057D01*
X0028575Y0012116D02*
Y0012057D01*
X0028504Y0012116D02*
Y0012057D01*
X0028433Y0012116D02*
Y0012057D01*
X0028363Y0012116D02*
Y0012057D01*
X0028292Y0012116D02*
Y0012057D01*
X0028221Y0012116D02*
Y0012057D01*
X0029336Y0012116D02*
X0028155D01*
X0029336D02*
Y0012057D01*
X0028155D01*
Y0012116D02*
Y0012057D01*
X0029283Y0012116D02*
Y0012057D01*
X0029212Y0012116D02*
Y0012057D01*
X0029141Y0012116D02*
Y0012057D01*
X0029070Y0012116D02*
Y0012057D01*
X0029000Y0012116D02*
Y0012057D01*
G54D10*
X0006000Y0001000D03*
Y0020000D03*
X0026000Y0003000D03*
Y0014000D03*
G54D18*
X0007400Y0018050D03*
Y0019050D03*
X0008400Y0018050D03*
Y0017050D03*
X0004000Y0007000D03*
X0005000D03*
G54D19*
X0007400Y0017050D03*
X0008400Y0019050D03*
X0003000Y0007000D03*
G54D36*
X0001150Y0019850D03*
X0018400Y0003050D03*
X0017950Y0017100D03*
G54D37*
X0028450Y0006250D03*
X0026481Y0004675D03*
G54D38*
X0013065Y0015900D03*
X0012435D03*
X0007235D03*
X0007865D03*
X0002915Y0016246D03*
X0002285D03*
X0002335Y0017296D03*
X0002965D03*
X0010865Y0018450D03*
X0010235D03*
X0010865Y0017950D03*
X0010235D03*
X0024035Y0006250D03*
X0024665D03*
X0008935Y0015750D03*
X0009565D03*
X0023115Y0007850D03*
X0022485D03*
X0002915Y0015696D03*
X0002285D03*
G54D39*
X0021000Y0017535D03*
Y0018165D03*
X0020000Y0017535D03*
Y0018165D03*
X0023100Y0006835D03*
Y0007465D03*
X0027850Y0006235D03*
Y0006865D03*
X0001600Y0006635D03*
Y0007265D03*
X0001000Y0006635D03*
Y0007265D03*
X0010000Y0015685D03*
Y0016315D03*
X0008450Y0015685D03*
Y0016315D03*
G54D40*
X0021000Y0017050D03*
Y0016450D03*
X0020000Y0017050D03*
Y0016450D03*
G54D41*
X0023120Y0008460D03*
G54D42*
X0023700Y0009050D03*
X0022540D03*
G54D43*
X0023100Y0006265D03*
Y0006435D03*
G54D44*
X0023515Y0006250D03*
X0023685D03*
G54D45*
X0014000Y0001000D03*
X0015000D03*
X0016000D03*
X0017000D03*
X0018000D03*
X0015400Y0020000D03*
X0014400D03*
X0013400D03*
X0012400D03*
X0011400D03*
X0010400D03*
X0009400D03*
X0021000Y0001000D03*
X0022000D03*
X0023000D03*
X0024000D03*
X0025000D03*
X0024000Y0020000D03*
X0023000D03*
X0022000D03*
X0021000D03*
X0020000D03*
X0019000D03*
X0018000D03*
G54D46*
X0013000Y0001000D03*
X0016400Y0020000D03*
X0020000Y0001000D03*
X0025000Y0020000D03*
G54D47*
X0006000Y0007000D03*
Y0008000D03*
Y0009000D03*
Y0010000D03*
Y0011000D03*
Y0012000D03*
Y0013000D03*
Y0014000D03*
Y0015000D03*
G54D48*
X0001950Y0002550D03*
Y0005400D03*
G54D49*
X0017413Y0014444D03*
X0016920D03*
X0016428D03*
X0015936D03*
X0015444D03*
X0014952D03*
X0014460D03*
X0013968D03*
X0013476D03*
X0012983D03*
X0012491D03*
X0011999D03*
X0011507D03*
X0011015D03*
X0010523D03*
X0010031D03*
Y0005956D03*
X0010523D03*
X0011015D03*
X0011507D03*
X0011999D03*
X0012491D03*
X0012983D03*
X0013476D03*
X0013968D03*
X0014460D03*
X0014952D03*
X0015444D03*
X0015936D03*
X0016428D03*
X0016920D03*
X0017413D03*
X0009539Y0014444D03*
X0009046D03*
X0009539Y0005956D03*
X0009046D03*
G54D50*
X0018287Y0007247D03*
Y0007739D03*
Y0008231D03*
Y0008724D03*
Y0009216D03*
G54D51*
X0006400Y0016152D03*
Y0016408D03*
Y0016664D03*
Y0016920D03*
Y0017176D03*
Y0017432D03*
Y0017688D03*
Y0017944D03*
Y0018200D03*
X0004060D03*
Y0017944D03*
Y0017688D03*
Y0017432D03*
Y0017176D03*
Y0016920D03*
Y0016664D03*
Y0016408D03*
Y0016152D03*
Y0015896D03*
G54D52*
X0006400D03*
M02*
